G04 #@! TF.GenerationSoftware,KiCad,Pcbnew,7.0.2*
G04 #@! TF.CreationDate,2024-03-05T19:29:17+01:00*
G04 #@! TF.ProjectId,BalunAndFilter,42616c75-6e41-46e6-9446-696c7465722e,rev?*
G04 #@! TF.SameCoordinates,Original*
G04 #@! TF.FileFunction,Legend,Top*
G04 #@! TF.FilePolarity,Positive*
%FSLAX46Y46*%
G04 Gerber Fmt 4.6, Leading zero omitted, Abs format (unit mm)*
G04 Created by KiCad (PCBNEW 7.0.2) date 2024-03-05 19:29:17*
%MOMM*%
%LPD*%
G01*
G04 APERTURE LIST*
%ADD10C,0.100000*%
%ADD11C,0.150000*%
%ADD12C,0.120000*%
G04 APERTURE END LIST*
D10*
X106237047Y-101504761D02*
X105837047Y-101504761D01*
X105818000Y-101028571D02*
X106332285Y-101371428D01*
X106275142Y-100628571D02*
X106256095Y-100666666D01*
X106256095Y-100666666D02*
X106218000Y-100704761D01*
X106218000Y-100704761D02*
X106160857Y-100761904D01*
X106160857Y-100761904D02*
X106141809Y-100799999D01*
X106141809Y-100799999D02*
X106141809Y-100838095D01*
X106237047Y-100819047D02*
X106218000Y-100857142D01*
X106218000Y-100857142D02*
X106179904Y-100895237D01*
X106179904Y-100895237D02*
X106103714Y-100914285D01*
X106103714Y-100914285D02*
X105970380Y-100914285D01*
X105970380Y-100914285D02*
X105894190Y-100895237D01*
X105894190Y-100895237D02*
X105856095Y-100857142D01*
X105856095Y-100857142D02*
X105837047Y-100819047D01*
X105837047Y-100819047D02*
X105837047Y-100742856D01*
X105837047Y-100742856D02*
X105856095Y-100704761D01*
X105856095Y-100704761D02*
X105894190Y-100666666D01*
X105894190Y-100666666D02*
X105970380Y-100647618D01*
X105970380Y-100647618D02*
X106103714Y-100647618D01*
X106103714Y-100647618D02*
X106179904Y-100666666D01*
X106179904Y-100666666D02*
X106218000Y-100704761D01*
X106218000Y-100704761D02*
X106237047Y-100742856D01*
X106237047Y-100742856D02*
X106237047Y-100819047D01*
X106027523Y-100038094D02*
X106046571Y-99980951D01*
X106046571Y-99980951D02*
X106065619Y-99961904D01*
X106065619Y-99961904D02*
X106103714Y-99942856D01*
X106103714Y-99942856D02*
X106160857Y-99942856D01*
X106160857Y-99942856D02*
X106198952Y-99961904D01*
X106198952Y-99961904D02*
X106218000Y-99980951D01*
X106218000Y-99980951D02*
X106237047Y-100019046D01*
X106237047Y-100019046D02*
X106237047Y-100171427D01*
X106237047Y-100171427D02*
X105837047Y-100171427D01*
X105837047Y-100171427D02*
X105837047Y-100038094D01*
X105837047Y-100038094D02*
X105856095Y-99999999D01*
X105856095Y-99999999D02*
X105875142Y-99980951D01*
X105875142Y-99980951D02*
X105913238Y-99961904D01*
X105913238Y-99961904D02*
X105951333Y-99961904D01*
X105951333Y-99961904D02*
X105989428Y-99980951D01*
X105989428Y-99980951D02*
X106008476Y-99999999D01*
X106008476Y-99999999D02*
X106027523Y-100038094D01*
X106027523Y-100038094D02*
X106027523Y-100171427D01*
X106237047Y-99599999D02*
X106027523Y-99599999D01*
X106027523Y-99599999D02*
X105989428Y-99619046D01*
X105989428Y-99619046D02*
X105970380Y-99657142D01*
X105970380Y-99657142D02*
X105970380Y-99733332D01*
X105970380Y-99733332D02*
X105989428Y-99771427D01*
X106218000Y-99599999D02*
X106237047Y-99638094D01*
X106237047Y-99638094D02*
X106237047Y-99733332D01*
X106237047Y-99733332D02*
X106218000Y-99771427D01*
X106218000Y-99771427D02*
X106179904Y-99790475D01*
X106179904Y-99790475D02*
X106141809Y-99790475D01*
X106141809Y-99790475D02*
X106103714Y-99771427D01*
X106103714Y-99771427D02*
X106084666Y-99733332D01*
X106084666Y-99733332D02*
X106084666Y-99638094D01*
X106084666Y-99638094D02*
X106065619Y-99599999D01*
X106237047Y-99352380D02*
X106218000Y-99390475D01*
X106218000Y-99390475D02*
X106179904Y-99409522D01*
X106179904Y-99409522D02*
X105837047Y-99409522D01*
X105970380Y-99028570D02*
X106237047Y-99028570D01*
X105970380Y-99199998D02*
X106179904Y-99199998D01*
X106179904Y-99199998D02*
X106218000Y-99180951D01*
X106218000Y-99180951D02*
X106237047Y-99142856D01*
X106237047Y-99142856D02*
X106237047Y-99085713D01*
X106237047Y-99085713D02*
X106218000Y-99047617D01*
X106218000Y-99047617D02*
X106198952Y-99028570D01*
X105970380Y-98838093D02*
X106237047Y-98838093D01*
X106008476Y-98838093D02*
X105989428Y-98819046D01*
X105989428Y-98819046D02*
X105970380Y-98780951D01*
X105970380Y-98780951D02*
X105970380Y-98723808D01*
X105970380Y-98723808D02*
X105989428Y-98685712D01*
X105989428Y-98685712D02*
X106027523Y-98666665D01*
X106027523Y-98666665D02*
X106237047Y-98666665D01*
X106237047Y-97847617D02*
X106237047Y-97866665D01*
X106237047Y-97866665D02*
X106218000Y-97904760D01*
X106218000Y-97904760D02*
X106160857Y-97961903D01*
X106160857Y-97961903D02*
X106046571Y-98057141D01*
X106046571Y-98057141D02*
X105989428Y-98095236D01*
X105989428Y-98095236D02*
X105932285Y-98114284D01*
X105932285Y-98114284D02*
X105894190Y-98114284D01*
X105894190Y-98114284D02*
X105856095Y-98095236D01*
X105856095Y-98095236D02*
X105837047Y-98057141D01*
X105837047Y-98057141D02*
X105837047Y-98038093D01*
X105837047Y-98038093D02*
X105856095Y-97999998D01*
X105856095Y-97999998D02*
X105894190Y-97980950D01*
X105894190Y-97980950D02*
X105913238Y-97980950D01*
X105913238Y-97980950D02*
X105951333Y-97999998D01*
X105951333Y-97999998D02*
X105970380Y-98019045D01*
X105970380Y-98019045D02*
X106046571Y-98133331D01*
X106046571Y-98133331D02*
X106065619Y-98152379D01*
X106065619Y-98152379D02*
X106103714Y-98171426D01*
X106103714Y-98171426D02*
X106160857Y-98171426D01*
X106160857Y-98171426D02*
X106198952Y-98152379D01*
X106198952Y-98152379D02*
X106218000Y-98133331D01*
X106218000Y-98133331D02*
X106237047Y-98095236D01*
X106237047Y-98095236D02*
X106237047Y-98038093D01*
X106237047Y-98038093D02*
X106218000Y-97999998D01*
X106218000Y-97999998D02*
X106198952Y-97980950D01*
X106198952Y-97980950D02*
X106122761Y-97923807D01*
X106122761Y-97923807D02*
X106065619Y-97904760D01*
X106065619Y-97904760D02*
X106027523Y-97904760D01*
X106237047Y-97180950D02*
X106237047Y-97371426D01*
X106237047Y-97371426D02*
X105837047Y-97371426D01*
X106218000Y-96895235D02*
X106237047Y-96933331D01*
X106237047Y-96933331D02*
X106237047Y-97009521D01*
X106237047Y-97009521D02*
X106218000Y-97047616D01*
X106218000Y-97047616D02*
X106179904Y-97066664D01*
X106179904Y-97066664D02*
X106027523Y-97066664D01*
X106027523Y-97066664D02*
X105989428Y-97047616D01*
X105989428Y-97047616D02*
X105970380Y-97009521D01*
X105970380Y-97009521D02*
X105970380Y-96933331D01*
X105970380Y-96933331D02*
X105989428Y-96895235D01*
X105989428Y-96895235D02*
X106027523Y-96876188D01*
X106027523Y-96876188D02*
X106065619Y-96876188D01*
X106065619Y-96876188D02*
X106103714Y-97066664D01*
X105970380Y-96742855D02*
X106237047Y-96647617D01*
X106237047Y-96647617D02*
X105970380Y-96552378D01*
X106218000Y-96247616D02*
X106237047Y-96285712D01*
X106237047Y-96285712D02*
X106237047Y-96361902D01*
X106237047Y-96361902D02*
X106218000Y-96399997D01*
X106218000Y-96399997D02*
X106179904Y-96419045D01*
X106179904Y-96419045D02*
X106027523Y-96419045D01*
X106027523Y-96419045D02*
X105989428Y-96399997D01*
X105989428Y-96399997D02*
X105970380Y-96361902D01*
X105970380Y-96361902D02*
X105970380Y-96285712D01*
X105970380Y-96285712D02*
X105989428Y-96247616D01*
X105989428Y-96247616D02*
X106027523Y-96228569D01*
X106027523Y-96228569D02*
X106065619Y-96228569D01*
X106065619Y-96228569D02*
X106103714Y-96419045D01*
X106237047Y-95999998D02*
X106218000Y-96038093D01*
X106218000Y-96038093D02*
X106179904Y-96057140D01*
X106179904Y-96057140D02*
X105837047Y-96057140D01*
X106218000Y-95561902D02*
X106237047Y-95523807D01*
X106237047Y-95523807D02*
X106237047Y-95447616D01*
X106237047Y-95447616D02*
X106218000Y-95409521D01*
X106218000Y-95409521D02*
X106179904Y-95390473D01*
X106179904Y-95390473D02*
X106160857Y-95390473D01*
X106160857Y-95390473D02*
X106122761Y-95409521D01*
X106122761Y-95409521D02*
X106103714Y-95447616D01*
X106103714Y-95447616D02*
X106103714Y-95504759D01*
X106103714Y-95504759D02*
X106084666Y-95542854D01*
X106084666Y-95542854D02*
X106046571Y-95561902D01*
X106046571Y-95561902D02*
X106027523Y-95561902D01*
X106027523Y-95561902D02*
X105989428Y-95542854D01*
X105989428Y-95542854D02*
X105970380Y-95504759D01*
X105970380Y-95504759D02*
X105970380Y-95447616D01*
X105970380Y-95447616D02*
X105989428Y-95409521D01*
X106237047Y-95219044D02*
X105837047Y-95219044D01*
X106237047Y-95047616D02*
X106027523Y-95047616D01*
X106027523Y-95047616D02*
X105989428Y-95066663D01*
X105989428Y-95066663D02*
X105970380Y-95104759D01*
X105970380Y-95104759D02*
X105970380Y-95161902D01*
X105970380Y-95161902D02*
X105989428Y-95199997D01*
X105989428Y-95199997D02*
X106008476Y-95219044D01*
X106237047Y-94857139D02*
X105970380Y-94857139D01*
X105837047Y-94857139D02*
X105856095Y-94876187D01*
X105856095Y-94876187D02*
X105875142Y-94857139D01*
X105875142Y-94857139D02*
X105856095Y-94838092D01*
X105856095Y-94838092D02*
X105837047Y-94857139D01*
X105837047Y-94857139D02*
X105875142Y-94857139D01*
X105970380Y-94723806D02*
X105970380Y-94571425D01*
X106237047Y-94666663D02*
X105894190Y-94666663D01*
X105894190Y-94666663D02*
X105856095Y-94647616D01*
X105856095Y-94647616D02*
X105837047Y-94609521D01*
X105837047Y-94609521D02*
X105837047Y-94571425D01*
X105970380Y-94495235D02*
X105970380Y-94342854D01*
X105837047Y-94438092D02*
X106179904Y-94438092D01*
X106179904Y-94438092D02*
X106218000Y-94419045D01*
X106218000Y-94419045D02*
X106237047Y-94380950D01*
X106237047Y-94380950D02*
X106237047Y-94342854D01*
X106218000Y-94057140D02*
X106237047Y-94095236D01*
X106237047Y-94095236D02*
X106237047Y-94171426D01*
X106237047Y-94171426D02*
X106218000Y-94209521D01*
X106218000Y-94209521D02*
X106179904Y-94228569D01*
X106179904Y-94228569D02*
X106027523Y-94228569D01*
X106027523Y-94228569D02*
X105989428Y-94209521D01*
X105989428Y-94209521D02*
X105970380Y-94171426D01*
X105970380Y-94171426D02*
X105970380Y-94095236D01*
X105970380Y-94095236D02*
X105989428Y-94057140D01*
X105989428Y-94057140D02*
X106027523Y-94038093D01*
X106027523Y-94038093D02*
X106065619Y-94038093D01*
X106065619Y-94038093D02*
X106103714Y-94228569D01*
X106237047Y-93866664D02*
X105970380Y-93866664D01*
X106046571Y-93866664D02*
X106008476Y-93847617D01*
X106008476Y-93847617D02*
X105989428Y-93828569D01*
X105989428Y-93828569D02*
X105970380Y-93790474D01*
X105970380Y-93790474D02*
X105970380Y-93752379D01*
X105970380Y-93352379D02*
X106237047Y-93257141D01*
X106237047Y-93257141D02*
X105970380Y-93161902D01*
X105875142Y-93028569D02*
X105856095Y-93009521D01*
X105856095Y-93009521D02*
X105837047Y-92971426D01*
X105837047Y-92971426D02*
X105837047Y-92876188D01*
X105837047Y-92876188D02*
X105856095Y-92838093D01*
X105856095Y-92838093D02*
X105875142Y-92819045D01*
X105875142Y-92819045D02*
X105913238Y-92799998D01*
X105913238Y-92799998D02*
X105951333Y-92799998D01*
X105951333Y-92799998D02*
X106008476Y-92819045D01*
X106008476Y-92819045D02*
X106237047Y-93047617D01*
X106237047Y-93047617D02*
X106237047Y-92799998D01*
X106618380Y-101542857D02*
X106885047Y-101466666D01*
X106885047Y-101466666D02*
X106694571Y-101390476D01*
X106694571Y-101390476D02*
X106885047Y-101314285D01*
X106885047Y-101314285D02*
X106618380Y-101238095D01*
X106618380Y-101123809D02*
X106885047Y-101047618D01*
X106885047Y-101047618D02*
X106694571Y-100971428D01*
X106694571Y-100971428D02*
X106885047Y-100895237D01*
X106885047Y-100895237D02*
X106618380Y-100819047D01*
X106618380Y-100704761D02*
X106885047Y-100628570D01*
X106885047Y-100628570D02*
X106694571Y-100552380D01*
X106694571Y-100552380D02*
X106885047Y-100476189D01*
X106885047Y-100476189D02*
X106618380Y-100399999D01*
X106846952Y-100247617D02*
X106866000Y-100228570D01*
X106866000Y-100228570D02*
X106885047Y-100247617D01*
X106885047Y-100247617D02*
X106866000Y-100266665D01*
X106866000Y-100266665D02*
X106846952Y-100247617D01*
X106846952Y-100247617D02*
X106885047Y-100247617D01*
X106618380Y-100114284D02*
X106618380Y-99961903D01*
X106485047Y-100057141D02*
X106827904Y-100057141D01*
X106827904Y-100057141D02*
X106866000Y-100038094D01*
X106866000Y-100038094D02*
X106885047Y-99999999D01*
X106885047Y-99999999D02*
X106885047Y-99961903D01*
X106866000Y-99847618D02*
X106885047Y-99809523D01*
X106885047Y-99809523D02*
X106885047Y-99733332D01*
X106885047Y-99733332D02*
X106866000Y-99695237D01*
X106866000Y-99695237D02*
X106827904Y-99676189D01*
X106827904Y-99676189D02*
X106808857Y-99676189D01*
X106808857Y-99676189D02*
X106770761Y-99695237D01*
X106770761Y-99695237D02*
X106751714Y-99733332D01*
X106751714Y-99733332D02*
X106751714Y-99790475D01*
X106751714Y-99790475D02*
X106732666Y-99828570D01*
X106732666Y-99828570D02*
X106694571Y-99847618D01*
X106694571Y-99847618D02*
X106675523Y-99847618D01*
X106675523Y-99847618D02*
X106637428Y-99828570D01*
X106637428Y-99828570D02*
X106618380Y-99790475D01*
X106618380Y-99790475D02*
X106618380Y-99733332D01*
X106618380Y-99733332D02*
X106637428Y-99695237D01*
X106618380Y-99504760D02*
X107018380Y-99504760D01*
X106637428Y-99504760D02*
X106618380Y-99466665D01*
X106618380Y-99466665D02*
X106618380Y-99390475D01*
X106618380Y-99390475D02*
X106637428Y-99352379D01*
X106637428Y-99352379D02*
X106656476Y-99333332D01*
X106656476Y-99333332D02*
X106694571Y-99314284D01*
X106694571Y-99314284D02*
X106808857Y-99314284D01*
X106808857Y-99314284D02*
X106846952Y-99333332D01*
X106846952Y-99333332D02*
X106866000Y-99352379D01*
X106866000Y-99352379D02*
X106885047Y-99390475D01*
X106885047Y-99390475D02*
X106885047Y-99466665D01*
X106885047Y-99466665D02*
X106866000Y-99504760D01*
X106885047Y-99142855D02*
X106618380Y-99142855D01*
X106485047Y-99142855D02*
X106504095Y-99161903D01*
X106504095Y-99161903D02*
X106523142Y-99142855D01*
X106523142Y-99142855D02*
X106504095Y-99123808D01*
X106504095Y-99123808D02*
X106485047Y-99142855D01*
X106485047Y-99142855D02*
X106523142Y-99142855D01*
X106846952Y-98952379D02*
X106866000Y-98933332D01*
X106866000Y-98933332D02*
X106885047Y-98952379D01*
X106885047Y-98952379D02*
X106866000Y-98971427D01*
X106866000Y-98971427D02*
X106846952Y-98952379D01*
X106846952Y-98952379D02*
X106885047Y-98952379D01*
X106885047Y-98590475D02*
X106675523Y-98590475D01*
X106675523Y-98590475D02*
X106637428Y-98609522D01*
X106637428Y-98609522D02*
X106618380Y-98647618D01*
X106618380Y-98647618D02*
X106618380Y-98723808D01*
X106618380Y-98723808D02*
X106637428Y-98761903D01*
X106866000Y-98590475D02*
X106885047Y-98628570D01*
X106885047Y-98628570D02*
X106885047Y-98723808D01*
X106885047Y-98723808D02*
X106866000Y-98761903D01*
X106866000Y-98761903D02*
X106827904Y-98780951D01*
X106827904Y-98780951D02*
X106789809Y-98780951D01*
X106789809Y-98780951D02*
X106751714Y-98761903D01*
X106751714Y-98761903D02*
X106732666Y-98723808D01*
X106732666Y-98723808D02*
X106732666Y-98628570D01*
X106732666Y-98628570D02*
X106713619Y-98590475D01*
X106618380Y-98457141D02*
X106618380Y-98304760D01*
X106485047Y-98399998D02*
X106827904Y-98399998D01*
X106827904Y-98399998D02*
X106866000Y-98380951D01*
X106866000Y-98380951D02*
X106885047Y-98342856D01*
X106885047Y-98342856D02*
X106885047Y-98304760D01*
D11*
G04 #@! TO.C,F2*
X109427809Y-104219333D02*
X109427809Y-104552666D01*
X109951619Y-104552666D02*
X108951619Y-104552666D01*
X108951619Y-104552666D02*
X108951619Y-104076476D01*
X109046857Y-103743142D02*
X108999238Y-103695523D01*
X108999238Y-103695523D02*
X108951619Y-103600285D01*
X108951619Y-103600285D02*
X108951619Y-103362190D01*
X108951619Y-103362190D02*
X108999238Y-103266952D01*
X108999238Y-103266952D02*
X109046857Y-103219333D01*
X109046857Y-103219333D02*
X109142095Y-103171714D01*
X109142095Y-103171714D02*
X109237333Y-103171714D01*
X109237333Y-103171714D02*
X109380190Y-103219333D01*
X109380190Y-103219333D02*
X109951619Y-103790761D01*
X109951619Y-103790761D02*
X109951619Y-103171714D01*
G04 #@! TO.C,F1*
X115071809Y-104219333D02*
X115071809Y-104552666D01*
X115595619Y-104552666D02*
X114595619Y-104552666D01*
X114595619Y-104552666D02*
X114595619Y-104076476D01*
X115595619Y-103171714D02*
X115595619Y-103743142D01*
X115595619Y-103457428D02*
X114595619Y-103457428D01*
X114595619Y-103457428D02*
X114738476Y-103552666D01*
X114738476Y-103552666D02*
X114833714Y-103647904D01*
X114833714Y-103647904D02*
X114881333Y-103743142D01*
G04 #@! TO.C,D3*
X115087619Y-89384094D02*
X114087619Y-89384094D01*
X114087619Y-89384094D02*
X114087619Y-89145999D01*
X114087619Y-89145999D02*
X114135238Y-89003142D01*
X114135238Y-89003142D02*
X114230476Y-88907904D01*
X114230476Y-88907904D02*
X114325714Y-88860285D01*
X114325714Y-88860285D02*
X114516190Y-88812666D01*
X114516190Y-88812666D02*
X114659047Y-88812666D01*
X114659047Y-88812666D02*
X114849523Y-88860285D01*
X114849523Y-88860285D02*
X114944761Y-88907904D01*
X114944761Y-88907904D02*
X115040000Y-89003142D01*
X115040000Y-89003142D02*
X115087619Y-89145999D01*
X115087619Y-89145999D02*
X115087619Y-89384094D01*
X114087619Y-88479332D02*
X114087619Y-87860285D01*
X114087619Y-87860285D02*
X114468571Y-88193618D01*
X114468571Y-88193618D02*
X114468571Y-88050761D01*
X114468571Y-88050761D02*
X114516190Y-87955523D01*
X114516190Y-87955523D02*
X114563809Y-87907904D01*
X114563809Y-87907904D02*
X114659047Y-87860285D01*
X114659047Y-87860285D02*
X114897142Y-87860285D01*
X114897142Y-87860285D02*
X114992380Y-87907904D01*
X114992380Y-87907904D02*
X115040000Y-87955523D01*
X115040000Y-87955523D02*
X115087619Y-88050761D01*
X115087619Y-88050761D02*
X115087619Y-88336475D01*
X115087619Y-88336475D02*
X115040000Y-88431713D01*
X115040000Y-88431713D02*
X114992380Y-88479332D01*
X117187619Y-82049904D02*
X116187619Y-82049904D01*
X117187619Y-81478476D02*
X116616190Y-81907047D01*
X116187619Y-81478476D02*
X116759047Y-82049904D01*
G04 #@! TO.C,D2*
X118897619Y-88368094D02*
X117897619Y-88368094D01*
X117897619Y-88368094D02*
X117897619Y-88129999D01*
X117897619Y-88129999D02*
X117945238Y-87987142D01*
X117945238Y-87987142D02*
X118040476Y-87891904D01*
X118040476Y-87891904D02*
X118135714Y-87844285D01*
X118135714Y-87844285D02*
X118326190Y-87796666D01*
X118326190Y-87796666D02*
X118469047Y-87796666D01*
X118469047Y-87796666D02*
X118659523Y-87844285D01*
X118659523Y-87844285D02*
X118754761Y-87891904D01*
X118754761Y-87891904D02*
X118850000Y-87987142D01*
X118850000Y-87987142D02*
X118897619Y-88129999D01*
X118897619Y-88129999D02*
X118897619Y-88368094D01*
X117992857Y-87415713D02*
X117945238Y-87368094D01*
X117945238Y-87368094D02*
X117897619Y-87272856D01*
X117897619Y-87272856D02*
X117897619Y-87034761D01*
X117897619Y-87034761D02*
X117945238Y-86939523D01*
X117945238Y-86939523D02*
X117992857Y-86891904D01*
X117992857Y-86891904D02*
X118088095Y-86844285D01*
X118088095Y-86844285D02*
X118183333Y-86844285D01*
X118183333Y-86844285D02*
X118326190Y-86891904D01*
X118326190Y-86891904D02*
X118897619Y-87463332D01*
X118897619Y-87463332D02*
X118897619Y-86844285D01*
X116797619Y-94749904D02*
X115797619Y-94749904D01*
X116797619Y-94178476D02*
X116226190Y-94607047D01*
X115797619Y-94178476D02*
X116369047Y-94749904D01*
G04 #@! TO.C,R25*
X132119642Y-73488619D02*
X131786309Y-73012428D01*
X131548214Y-73488619D02*
X131548214Y-72488619D01*
X131548214Y-72488619D02*
X131929166Y-72488619D01*
X131929166Y-72488619D02*
X132024404Y-72536238D01*
X132024404Y-72536238D02*
X132072023Y-72583857D01*
X132072023Y-72583857D02*
X132119642Y-72679095D01*
X132119642Y-72679095D02*
X132119642Y-72821952D01*
X132119642Y-72821952D02*
X132072023Y-72917190D01*
X132072023Y-72917190D02*
X132024404Y-72964809D01*
X132024404Y-72964809D02*
X131929166Y-73012428D01*
X131929166Y-73012428D02*
X131548214Y-73012428D01*
X132500595Y-72583857D02*
X132548214Y-72536238D01*
X132548214Y-72536238D02*
X132643452Y-72488619D01*
X132643452Y-72488619D02*
X132881547Y-72488619D01*
X132881547Y-72488619D02*
X132976785Y-72536238D01*
X132976785Y-72536238D02*
X133024404Y-72583857D01*
X133024404Y-72583857D02*
X133072023Y-72679095D01*
X133072023Y-72679095D02*
X133072023Y-72774333D01*
X133072023Y-72774333D02*
X133024404Y-72917190D01*
X133024404Y-72917190D02*
X132452976Y-73488619D01*
X132452976Y-73488619D02*
X133072023Y-73488619D01*
X133976785Y-72488619D02*
X133500595Y-72488619D01*
X133500595Y-72488619D02*
X133452976Y-72964809D01*
X133452976Y-72964809D02*
X133500595Y-72917190D01*
X133500595Y-72917190D02*
X133595833Y-72869571D01*
X133595833Y-72869571D02*
X133833928Y-72869571D01*
X133833928Y-72869571D02*
X133929166Y-72917190D01*
X133929166Y-72917190D02*
X133976785Y-72964809D01*
X133976785Y-72964809D02*
X134024404Y-73060047D01*
X134024404Y-73060047D02*
X134024404Y-73298142D01*
X134024404Y-73298142D02*
X133976785Y-73393380D01*
X133976785Y-73393380D02*
X133929166Y-73441000D01*
X133929166Y-73441000D02*
X133833928Y-73488619D01*
X133833928Y-73488619D02*
X133595833Y-73488619D01*
X133595833Y-73488619D02*
X133500595Y-73441000D01*
X133500595Y-73441000D02*
X133452976Y-73393380D01*
G04 #@! TO.C,JP1*
X132009666Y-62619619D02*
X132009666Y-63333904D01*
X132009666Y-63333904D02*
X131962047Y-63476761D01*
X131962047Y-63476761D02*
X131866809Y-63572000D01*
X131866809Y-63572000D02*
X131723952Y-63619619D01*
X131723952Y-63619619D02*
X131628714Y-63619619D01*
X132485857Y-63619619D02*
X132485857Y-62619619D01*
X132485857Y-62619619D02*
X132866809Y-62619619D01*
X132866809Y-62619619D02*
X132962047Y-62667238D01*
X132962047Y-62667238D02*
X133009666Y-62714857D01*
X133009666Y-62714857D02*
X133057285Y-62810095D01*
X133057285Y-62810095D02*
X133057285Y-62952952D01*
X133057285Y-62952952D02*
X133009666Y-63048190D01*
X133009666Y-63048190D02*
X132962047Y-63095809D01*
X132962047Y-63095809D02*
X132866809Y-63143428D01*
X132866809Y-63143428D02*
X132485857Y-63143428D01*
X134009666Y-63619619D02*
X133438238Y-63619619D01*
X133723952Y-63619619D02*
X133723952Y-62619619D01*
X133723952Y-62619619D02*
X133628714Y-62762476D01*
X133628714Y-62762476D02*
X133533476Y-62857714D01*
X133533476Y-62857714D02*
X133438238Y-62905333D01*
G04 #@! TO.C,J8*
X137250166Y-62664619D02*
X137250166Y-63378904D01*
X137250166Y-63378904D02*
X137202547Y-63521761D01*
X137202547Y-63521761D02*
X137107309Y-63617000D01*
X137107309Y-63617000D02*
X136964452Y-63664619D01*
X136964452Y-63664619D02*
X136869214Y-63664619D01*
X137869214Y-63093190D02*
X137773976Y-63045571D01*
X137773976Y-63045571D02*
X137726357Y-62997952D01*
X137726357Y-62997952D02*
X137678738Y-62902714D01*
X137678738Y-62902714D02*
X137678738Y-62855095D01*
X137678738Y-62855095D02*
X137726357Y-62759857D01*
X137726357Y-62759857D02*
X137773976Y-62712238D01*
X137773976Y-62712238D02*
X137869214Y-62664619D01*
X137869214Y-62664619D02*
X138059690Y-62664619D01*
X138059690Y-62664619D02*
X138154928Y-62712238D01*
X138154928Y-62712238D02*
X138202547Y-62759857D01*
X138202547Y-62759857D02*
X138250166Y-62855095D01*
X138250166Y-62855095D02*
X138250166Y-62902714D01*
X138250166Y-62902714D02*
X138202547Y-62997952D01*
X138202547Y-62997952D02*
X138154928Y-63045571D01*
X138154928Y-63045571D02*
X138059690Y-63093190D01*
X138059690Y-63093190D02*
X137869214Y-63093190D01*
X137869214Y-63093190D02*
X137773976Y-63140809D01*
X137773976Y-63140809D02*
X137726357Y-63188428D01*
X137726357Y-63188428D02*
X137678738Y-63283666D01*
X137678738Y-63283666D02*
X137678738Y-63474142D01*
X137678738Y-63474142D02*
X137726357Y-63569380D01*
X137726357Y-63569380D02*
X137773976Y-63617000D01*
X137773976Y-63617000D02*
X137869214Y-63664619D01*
X137869214Y-63664619D02*
X138059690Y-63664619D01*
X138059690Y-63664619D02*
X138154928Y-63617000D01*
X138154928Y-63617000D02*
X138202547Y-63569380D01*
X138202547Y-63569380D02*
X138250166Y-63474142D01*
X138250166Y-63474142D02*
X138250166Y-63283666D01*
X138250166Y-63283666D02*
X138202547Y-63188428D01*
X138202547Y-63188428D02*
X138154928Y-63140809D01*
X138154928Y-63140809D02*
X138059690Y-63093190D01*
G04 #@! TO.C,D1*
X136019119Y-74144094D02*
X135019119Y-74144094D01*
X135019119Y-74144094D02*
X135019119Y-73905999D01*
X135019119Y-73905999D02*
X135066738Y-73763142D01*
X135066738Y-73763142D02*
X135161976Y-73667904D01*
X135161976Y-73667904D02*
X135257214Y-73620285D01*
X135257214Y-73620285D02*
X135447690Y-73572666D01*
X135447690Y-73572666D02*
X135590547Y-73572666D01*
X135590547Y-73572666D02*
X135781023Y-73620285D01*
X135781023Y-73620285D02*
X135876261Y-73667904D01*
X135876261Y-73667904D02*
X135971500Y-73763142D01*
X135971500Y-73763142D02*
X136019119Y-73905999D01*
X136019119Y-73905999D02*
X136019119Y-74144094D01*
X136019119Y-72620285D02*
X136019119Y-73191713D01*
X136019119Y-72905999D02*
X135019119Y-72905999D01*
X135019119Y-72905999D02*
X135161976Y-73001237D01*
X135161976Y-73001237D02*
X135257214Y-73096475D01*
X135257214Y-73096475D02*
X135304833Y-73191713D01*
G04 #@! TO.C,U5*
X133645619Y-78739904D02*
X134455142Y-78739904D01*
X134455142Y-78739904D02*
X134550380Y-78692285D01*
X134550380Y-78692285D02*
X134598000Y-78644666D01*
X134598000Y-78644666D02*
X134645619Y-78549428D01*
X134645619Y-78549428D02*
X134645619Y-78358952D01*
X134645619Y-78358952D02*
X134598000Y-78263714D01*
X134598000Y-78263714D02*
X134550380Y-78216095D01*
X134550380Y-78216095D02*
X134455142Y-78168476D01*
X134455142Y-78168476D02*
X133645619Y-78168476D01*
X133645619Y-77216095D02*
X133645619Y-77692285D01*
X133645619Y-77692285D02*
X134121809Y-77739904D01*
X134121809Y-77739904D02*
X134074190Y-77692285D01*
X134074190Y-77692285D02*
X134026571Y-77597047D01*
X134026571Y-77597047D02*
X134026571Y-77358952D01*
X134026571Y-77358952D02*
X134074190Y-77263714D01*
X134074190Y-77263714D02*
X134121809Y-77216095D01*
X134121809Y-77216095D02*
X134217047Y-77168476D01*
X134217047Y-77168476D02*
X134455142Y-77168476D01*
X134455142Y-77168476D02*
X134550380Y-77216095D01*
X134550380Y-77216095D02*
X134598000Y-77263714D01*
X134598000Y-77263714D02*
X134645619Y-77358952D01*
X134645619Y-77358952D02*
X134645619Y-77597047D01*
X134645619Y-77597047D02*
X134598000Y-77692285D01*
X134598000Y-77692285D02*
X134550380Y-77739904D01*
G04 #@! TO.C,U4*
X134447095Y-97071619D02*
X134447095Y-97881142D01*
X134447095Y-97881142D02*
X134494714Y-97976380D01*
X134494714Y-97976380D02*
X134542333Y-98024000D01*
X134542333Y-98024000D02*
X134637571Y-98071619D01*
X134637571Y-98071619D02*
X134828047Y-98071619D01*
X134828047Y-98071619D02*
X134923285Y-98024000D01*
X134923285Y-98024000D02*
X134970904Y-97976380D01*
X134970904Y-97976380D02*
X135018523Y-97881142D01*
X135018523Y-97881142D02*
X135018523Y-97071619D01*
X135923285Y-97404952D02*
X135923285Y-98071619D01*
X135685190Y-97024000D02*
X135447095Y-97738285D01*
X135447095Y-97738285D02*
X136066142Y-97738285D01*
G04 #@! TO.C,U3*
X134447095Y-88180619D02*
X134447095Y-88990142D01*
X134447095Y-88990142D02*
X134494714Y-89085380D01*
X134494714Y-89085380D02*
X134542333Y-89133000D01*
X134542333Y-89133000D02*
X134637571Y-89180619D01*
X134637571Y-89180619D02*
X134828047Y-89180619D01*
X134828047Y-89180619D02*
X134923285Y-89133000D01*
X134923285Y-89133000D02*
X134970904Y-89085380D01*
X134970904Y-89085380D02*
X135018523Y-88990142D01*
X135018523Y-88990142D02*
X135018523Y-88180619D01*
X135399476Y-88180619D02*
X136018523Y-88180619D01*
X136018523Y-88180619D02*
X135685190Y-88561571D01*
X135685190Y-88561571D02*
X135828047Y-88561571D01*
X135828047Y-88561571D02*
X135923285Y-88609190D01*
X135923285Y-88609190D02*
X135970904Y-88656809D01*
X135970904Y-88656809D02*
X136018523Y-88752047D01*
X136018523Y-88752047D02*
X136018523Y-88990142D01*
X136018523Y-88990142D02*
X135970904Y-89085380D01*
X135970904Y-89085380D02*
X135923285Y-89133000D01*
X135923285Y-89133000D02*
X135828047Y-89180619D01*
X135828047Y-89180619D02*
X135542333Y-89180619D01*
X135542333Y-89180619D02*
X135447095Y-89133000D01*
X135447095Y-89133000D02*
X135399476Y-89085380D01*
G04 #@! TO.C,U2*
X108712095Y-65502619D02*
X108712095Y-66312142D01*
X108712095Y-66312142D02*
X108759714Y-66407380D01*
X108759714Y-66407380D02*
X108807333Y-66455000D01*
X108807333Y-66455000D02*
X108902571Y-66502619D01*
X108902571Y-66502619D02*
X109093047Y-66502619D01*
X109093047Y-66502619D02*
X109188285Y-66455000D01*
X109188285Y-66455000D02*
X109235904Y-66407380D01*
X109235904Y-66407380D02*
X109283523Y-66312142D01*
X109283523Y-66312142D02*
X109283523Y-65502619D01*
X109712095Y-65597857D02*
X109759714Y-65550238D01*
X109759714Y-65550238D02*
X109854952Y-65502619D01*
X109854952Y-65502619D02*
X110093047Y-65502619D01*
X110093047Y-65502619D02*
X110188285Y-65550238D01*
X110188285Y-65550238D02*
X110235904Y-65597857D01*
X110235904Y-65597857D02*
X110283523Y-65693095D01*
X110283523Y-65693095D02*
X110283523Y-65788333D01*
X110283523Y-65788333D02*
X110235904Y-65931190D01*
X110235904Y-65931190D02*
X109664476Y-66502619D01*
X109664476Y-66502619D02*
X110283523Y-66502619D01*
G04 #@! TO.C,U1*
X119888095Y-47976619D02*
X119888095Y-48786142D01*
X119888095Y-48786142D02*
X119935714Y-48881380D01*
X119935714Y-48881380D02*
X119983333Y-48929000D01*
X119983333Y-48929000D02*
X120078571Y-48976619D01*
X120078571Y-48976619D02*
X120269047Y-48976619D01*
X120269047Y-48976619D02*
X120364285Y-48929000D01*
X120364285Y-48929000D02*
X120411904Y-48881380D01*
X120411904Y-48881380D02*
X120459523Y-48786142D01*
X120459523Y-48786142D02*
X120459523Y-47976619D01*
X121459523Y-48976619D02*
X120888095Y-48976619D01*
X121173809Y-48976619D02*
X121173809Y-47976619D01*
X121173809Y-47976619D02*
X121078571Y-48119476D01*
X121078571Y-48119476D02*
X120983333Y-48214714D01*
X120983333Y-48214714D02*
X120888095Y-48262333D01*
G04 #@! TO.C,R24*
X121874619Y-71612357D02*
X121398428Y-71945690D01*
X121874619Y-72183785D02*
X120874619Y-72183785D01*
X120874619Y-72183785D02*
X120874619Y-71802833D01*
X120874619Y-71802833D02*
X120922238Y-71707595D01*
X120922238Y-71707595D02*
X120969857Y-71659976D01*
X120969857Y-71659976D02*
X121065095Y-71612357D01*
X121065095Y-71612357D02*
X121207952Y-71612357D01*
X121207952Y-71612357D02*
X121303190Y-71659976D01*
X121303190Y-71659976D02*
X121350809Y-71707595D01*
X121350809Y-71707595D02*
X121398428Y-71802833D01*
X121398428Y-71802833D02*
X121398428Y-72183785D01*
X120969857Y-71231404D02*
X120922238Y-71183785D01*
X120922238Y-71183785D02*
X120874619Y-71088547D01*
X120874619Y-71088547D02*
X120874619Y-70850452D01*
X120874619Y-70850452D02*
X120922238Y-70755214D01*
X120922238Y-70755214D02*
X120969857Y-70707595D01*
X120969857Y-70707595D02*
X121065095Y-70659976D01*
X121065095Y-70659976D02*
X121160333Y-70659976D01*
X121160333Y-70659976D02*
X121303190Y-70707595D01*
X121303190Y-70707595D02*
X121874619Y-71279023D01*
X121874619Y-71279023D02*
X121874619Y-70659976D01*
X121207952Y-69802833D02*
X121874619Y-69802833D01*
X120827000Y-70040928D02*
X121541285Y-70279023D01*
X121541285Y-70279023D02*
X121541285Y-69659976D01*
G04 #@! TO.C,R23*
X125176619Y-71612357D02*
X124700428Y-71945690D01*
X125176619Y-72183785D02*
X124176619Y-72183785D01*
X124176619Y-72183785D02*
X124176619Y-71802833D01*
X124176619Y-71802833D02*
X124224238Y-71707595D01*
X124224238Y-71707595D02*
X124271857Y-71659976D01*
X124271857Y-71659976D02*
X124367095Y-71612357D01*
X124367095Y-71612357D02*
X124509952Y-71612357D01*
X124509952Y-71612357D02*
X124605190Y-71659976D01*
X124605190Y-71659976D02*
X124652809Y-71707595D01*
X124652809Y-71707595D02*
X124700428Y-71802833D01*
X124700428Y-71802833D02*
X124700428Y-72183785D01*
X124271857Y-71231404D02*
X124224238Y-71183785D01*
X124224238Y-71183785D02*
X124176619Y-71088547D01*
X124176619Y-71088547D02*
X124176619Y-70850452D01*
X124176619Y-70850452D02*
X124224238Y-70755214D01*
X124224238Y-70755214D02*
X124271857Y-70707595D01*
X124271857Y-70707595D02*
X124367095Y-70659976D01*
X124367095Y-70659976D02*
X124462333Y-70659976D01*
X124462333Y-70659976D02*
X124605190Y-70707595D01*
X124605190Y-70707595D02*
X125176619Y-71279023D01*
X125176619Y-71279023D02*
X125176619Y-70659976D01*
X124176619Y-70326642D02*
X124176619Y-69707595D01*
X124176619Y-69707595D02*
X124557571Y-70040928D01*
X124557571Y-70040928D02*
X124557571Y-69898071D01*
X124557571Y-69898071D02*
X124605190Y-69802833D01*
X124605190Y-69802833D02*
X124652809Y-69755214D01*
X124652809Y-69755214D02*
X124748047Y-69707595D01*
X124748047Y-69707595D02*
X124986142Y-69707595D01*
X124986142Y-69707595D02*
X125081380Y-69755214D01*
X125081380Y-69755214D02*
X125129000Y-69802833D01*
X125129000Y-69802833D02*
X125176619Y-69898071D01*
X125176619Y-69898071D02*
X125176619Y-70183785D01*
X125176619Y-70183785D02*
X125129000Y-70279023D01*
X125129000Y-70279023D02*
X125081380Y-70326642D01*
G04 #@! TO.C,R22*
X106252619Y-57030857D02*
X105776428Y-57364190D01*
X106252619Y-57602285D02*
X105252619Y-57602285D01*
X105252619Y-57602285D02*
X105252619Y-57221333D01*
X105252619Y-57221333D02*
X105300238Y-57126095D01*
X105300238Y-57126095D02*
X105347857Y-57078476D01*
X105347857Y-57078476D02*
X105443095Y-57030857D01*
X105443095Y-57030857D02*
X105585952Y-57030857D01*
X105585952Y-57030857D02*
X105681190Y-57078476D01*
X105681190Y-57078476D02*
X105728809Y-57126095D01*
X105728809Y-57126095D02*
X105776428Y-57221333D01*
X105776428Y-57221333D02*
X105776428Y-57602285D01*
X105347857Y-56649904D02*
X105300238Y-56602285D01*
X105300238Y-56602285D02*
X105252619Y-56507047D01*
X105252619Y-56507047D02*
X105252619Y-56268952D01*
X105252619Y-56268952D02*
X105300238Y-56173714D01*
X105300238Y-56173714D02*
X105347857Y-56126095D01*
X105347857Y-56126095D02*
X105443095Y-56078476D01*
X105443095Y-56078476D02*
X105538333Y-56078476D01*
X105538333Y-56078476D02*
X105681190Y-56126095D01*
X105681190Y-56126095D02*
X106252619Y-56697523D01*
X106252619Y-56697523D02*
X106252619Y-56078476D01*
X105347857Y-55697523D02*
X105300238Y-55649904D01*
X105300238Y-55649904D02*
X105252619Y-55554666D01*
X105252619Y-55554666D02*
X105252619Y-55316571D01*
X105252619Y-55316571D02*
X105300238Y-55221333D01*
X105300238Y-55221333D02*
X105347857Y-55173714D01*
X105347857Y-55173714D02*
X105443095Y-55126095D01*
X105443095Y-55126095D02*
X105538333Y-55126095D01*
X105538333Y-55126095D02*
X105681190Y-55173714D01*
X105681190Y-55173714D02*
X106252619Y-55745142D01*
X106252619Y-55745142D02*
X106252619Y-55126095D01*
G04 #@! TO.C,R21*
X104663642Y-62056619D02*
X104330309Y-61580428D01*
X104092214Y-62056619D02*
X104092214Y-61056619D01*
X104092214Y-61056619D02*
X104473166Y-61056619D01*
X104473166Y-61056619D02*
X104568404Y-61104238D01*
X104568404Y-61104238D02*
X104616023Y-61151857D01*
X104616023Y-61151857D02*
X104663642Y-61247095D01*
X104663642Y-61247095D02*
X104663642Y-61389952D01*
X104663642Y-61389952D02*
X104616023Y-61485190D01*
X104616023Y-61485190D02*
X104568404Y-61532809D01*
X104568404Y-61532809D02*
X104473166Y-61580428D01*
X104473166Y-61580428D02*
X104092214Y-61580428D01*
X105044595Y-61151857D02*
X105092214Y-61104238D01*
X105092214Y-61104238D02*
X105187452Y-61056619D01*
X105187452Y-61056619D02*
X105425547Y-61056619D01*
X105425547Y-61056619D02*
X105520785Y-61104238D01*
X105520785Y-61104238D02*
X105568404Y-61151857D01*
X105568404Y-61151857D02*
X105616023Y-61247095D01*
X105616023Y-61247095D02*
X105616023Y-61342333D01*
X105616023Y-61342333D02*
X105568404Y-61485190D01*
X105568404Y-61485190D02*
X104996976Y-62056619D01*
X104996976Y-62056619D02*
X105616023Y-62056619D01*
X106568404Y-62056619D02*
X105996976Y-62056619D01*
X106282690Y-62056619D02*
X106282690Y-61056619D01*
X106282690Y-61056619D02*
X106187452Y-61199476D01*
X106187452Y-61199476D02*
X106092214Y-61294714D01*
X106092214Y-61294714D02*
X105996976Y-61342333D01*
G04 #@! TO.C,R20*
X128350619Y-67294357D02*
X127874428Y-67627690D01*
X128350619Y-67865785D02*
X127350619Y-67865785D01*
X127350619Y-67865785D02*
X127350619Y-67484833D01*
X127350619Y-67484833D02*
X127398238Y-67389595D01*
X127398238Y-67389595D02*
X127445857Y-67341976D01*
X127445857Y-67341976D02*
X127541095Y-67294357D01*
X127541095Y-67294357D02*
X127683952Y-67294357D01*
X127683952Y-67294357D02*
X127779190Y-67341976D01*
X127779190Y-67341976D02*
X127826809Y-67389595D01*
X127826809Y-67389595D02*
X127874428Y-67484833D01*
X127874428Y-67484833D02*
X127874428Y-67865785D01*
X127445857Y-66913404D02*
X127398238Y-66865785D01*
X127398238Y-66865785D02*
X127350619Y-66770547D01*
X127350619Y-66770547D02*
X127350619Y-66532452D01*
X127350619Y-66532452D02*
X127398238Y-66437214D01*
X127398238Y-66437214D02*
X127445857Y-66389595D01*
X127445857Y-66389595D02*
X127541095Y-66341976D01*
X127541095Y-66341976D02*
X127636333Y-66341976D01*
X127636333Y-66341976D02*
X127779190Y-66389595D01*
X127779190Y-66389595D02*
X128350619Y-66961023D01*
X128350619Y-66961023D02*
X128350619Y-66341976D01*
X127350619Y-65722928D02*
X127350619Y-65627690D01*
X127350619Y-65627690D02*
X127398238Y-65532452D01*
X127398238Y-65532452D02*
X127445857Y-65484833D01*
X127445857Y-65484833D02*
X127541095Y-65437214D01*
X127541095Y-65437214D02*
X127731571Y-65389595D01*
X127731571Y-65389595D02*
X127969666Y-65389595D01*
X127969666Y-65389595D02*
X128160142Y-65437214D01*
X128160142Y-65437214D02*
X128255380Y-65484833D01*
X128255380Y-65484833D02*
X128303000Y-65532452D01*
X128303000Y-65532452D02*
X128350619Y-65627690D01*
X128350619Y-65627690D02*
X128350619Y-65722928D01*
X128350619Y-65722928D02*
X128303000Y-65818166D01*
X128303000Y-65818166D02*
X128255380Y-65865785D01*
X128255380Y-65865785D02*
X128160142Y-65913404D01*
X128160142Y-65913404D02*
X127969666Y-65961023D01*
X127969666Y-65961023D02*
X127731571Y-65961023D01*
X127731571Y-65961023D02*
X127541095Y-65913404D01*
X127541095Y-65913404D02*
X127445857Y-65865785D01*
X127445857Y-65865785D02*
X127398238Y-65818166D01*
X127398238Y-65818166D02*
X127350619Y-65722928D01*
G04 #@! TO.C,R19*
X128350619Y-63634857D02*
X127874428Y-63968190D01*
X128350619Y-64206285D02*
X127350619Y-64206285D01*
X127350619Y-64206285D02*
X127350619Y-63825333D01*
X127350619Y-63825333D02*
X127398238Y-63730095D01*
X127398238Y-63730095D02*
X127445857Y-63682476D01*
X127445857Y-63682476D02*
X127541095Y-63634857D01*
X127541095Y-63634857D02*
X127683952Y-63634857D01*
X127683952Y-63634857D02*
X127779190Y-63682476D01*
X127779190Y-63682476D02*
X127826809Y-63730095D01*
X127826809Y-63730095D02*
X127874428Y-63825333D01*
X127874428Y-63825333D02*
X127874428Y-64206285D01*
X128350619Y-62682476D02*
X128350619Y-63253904D01*
X128350619Y-62968190D02*
X127350619Y-62968190D01*
X127350619Y-62968190D02*
X127493476Y-63063428D01*
X127493476Y-63063428D02*
X127588714Y-63158666D01*
X127588714Y-63158666D02*
X127636333Y-63253904D01*
X128350619Y-62206285D02*
X128350619Y-62015809D01*
X128350619Y-62015809D02*
X128303000Y-61920571D01*
X128303000Y-61920571D02*
X128255380Y-61872952D01*
X128255380Y-61872952D02*
X128112523Y-61777714D01*
X128112523Y-61777714D02*
X127922047Y-61730095D01*
X127922047Y-61730095D02*
X127541095Y-61730095D01*
X127541095Y-61730095D02*
X127445857Y-61777714D01*
X127445857Y-61777714D02*
X127398238Y-61825333D01*
X127398238Y-61825333D02*
X127350619Y-61920571D01*
X127350619Y-61920571D02*
X127350619Y-62111047D01*
X127350619Y-62111047D02*
X127398238Y-62206285D01*
X127398238Y-62206285D02*
X127445857Y-62253904D01*
X127445857Y-62253904D02*
X127541095Y-62301523D01*
X127541095Y-62301523D02*
X127779190Y-62301523D01*
X127779190Y-62301523D02*
X127874428Y-62253904D01*
X127874428Y-62253904D02*
X127922047Y-62206285D01*
X127922047Y-62206285D02*
X127969666Y-62111047D01*
X127969666Y-62111047D02*
X127969666Y-61920571D01*
X127969666Y-61920571D02*
X127922047Y-61825333D01*
X127922047Y-61825333D02*
X127874428Y-61777714D01*
X127874428Y-61777714D02*
X127779190Y-61730095D01*
G04 #@! TO.C,R18*
X121746619Y-67294357D02*
X121270428Y-67627690D01*
X121746619Y-67865785D02*
X120746619Y-67865785D01*
X120746619Y-67865785D02*
X120746619Y-67484833D01*
X120746619Y-67484833D02*
X120794238Y-67389595D01*
X120794238Y-67389595D02*
X120841857Y-67341976D01*
X120841857Y-67341976D02*
X120937095Y-67294357D01*
X120937095Y-67294357D02*
X121079952Y-67294357D01*
X121079952Y-67294357D02*
X121175190Y-67341976D01*
X121175190Y-67341976D02*
X121222809Y-67389595D01*
X121222809Y-67389595D02*
X121270428Y-67484833D01*
X121270428Y-67484833D02*
X121270428Y-67865785D01*
X121746619Y-66341976D02*
X121746619Y-66913404D01*
X121746619Y-66627690D02*
X120746619Y-66627690D01*
X120746619Y-66627690D02*
X120889476Y-66722928D01*
X120889476Y-66722928D02*
X120984714Y-66818166D01*
X120984714Y-66818166D02*
X121032333Y-66913404D01*
X121175190Y-65770547D02*
X121127571Y-65865785D01*
X121127571Y-65865785D02*
X121079952Y-65913404D01*
X121079952Y-65913404D02*
X120984714Y-65961023D01*
X120984714Y-65961023D02*
X120937095Y-65961023D01*
X120937095Y-65961023D02*
X120841857Y-65913404D01*
X120841857Y-65913404D02*
X120794238Y-65865785D01*
X120794238Y-65865785D02*
X120746619Y-65770547D01*
X120746619Y-65770547D02*
X120746619Y-65580071D01*
X120746619Y-65580071D02*
X120794238Y-65484833D01*
X120794238Y-65484833D02*
X120841857Y-65437214D01*
X120841857Y-65437214D02*
X120937095Y-65389595D01*
X120937095Y-65389595D02*
X120984714Y-65389595D01*
X120984714Y-65389595D02*
X121079952Y-65437214D01*
X121079952Y-65437214D02*
X121127571Y-65484833D01*
X121127571Y-65484833D02*
X121175190Y-65580071D01*
X121175190Y-65580071D02*
X121175190Y-65770547D01*
X121175190Y-65770547D02*
X121222809Y-65865785D01*
X121222809Y-65865785D02*
X121270428Y-65913404D01*
X121270428Y-65913404D02*
X121365666Y-65961023D01*
X121365666Y-65961023D02*
X121556142Y-65961023D01*
X121556142Y-65961023D02*
X121651380Y-65913404D01*
X121651380Y-65913404D02*
X121699000Y-65865785D01*
X121699000Y-65865785D02*
X121746619Y-65770547D01*
X121746619Y-65770547D02*
X121746619Y-65580071D01*
X121746619Y-65580071D02*
X121699000Y-65484833D01*
X121699000Y-65484833D02*
X121651380Y-65437214D01*
X121651380Y-65437214D02*
X121556142Y-65389595D01*
X121556142Y-65389595D02*
X121365666Y-65389595D01*
X121365666Y-65389595D02*
X121270428Y-65437214D01*
X121270428Y-65437214D02*
X121222809Y-65484833D01*
X121222809Y-65484833D02*
X121175190Y-65580071D01*
G04 #@! TO.C,R17*
X121620619Y-63634857D02*
X121144428Y-63968190D01*
X121620619Y-64206285D02*
X120620619Y-64206285D01*
X120620619Y-64206285D02*
X120620619Y-63825333D01*
X120620619Y-63825333D02*
X120668238Y-63730095D01*
X120668238Y-63730095D02*
X120715857Y-63682476D01*
X120715857Y-63682476D02*
X120811095Y-63634857D01*
X120811095Y-63634857D02*
X120953952Y-63634857D01*
X120953952Y-63634857D02*
X121049190Y-63682476D01*
X121049190Y-63682476D02*
X121096809Y-63730095D01*
X121096809Y-63730095D02*
X121144428Y-63825333D01*
X121144428Y-63825333D02*
X121144428Y-64206285D01*
X121620619Y-62682476D02*
X121620619Y-63253904D01*
X121620619Y-62968190D02*
X120620619Y-62968190D01*
X120620619Y-62968190D02*
X120763476Y-63063428D01*
X120763476Y-63063428D02*
X120858714Y-63158666D01*
X120858714Y-63158666D02*
X120906333Y-63253904D01*
X120620619Y-62349142D02*
X120620619Y-61682476D01*
X120620619Y-61682476D02*
X121620619Y-62111047D01*
G04 #@! TO.C,R16*
X124922619Y-63634857D02*
X124446428Y-63968190D01*
X124922619Y-64206285D02*
X123922619Y-64206285D01*
X123922619Y-64206285D02*
X123922619Y-63825333D01*
X123922619Y-63825333D02*
X123970238Y-63730095D01*
X123970238Y-63730095D02*
X124017857Y-63682476D01*
X124017857Y-63682476D02*
X124113095Y-63634857D01*
X124113095Y-63634857D02*
X124255952Y-63634857D01*
X124255952Y-63634857D02*
X124351190Y-63682476D01*
X124351190Y-63682476D02*
X124398809Y-63730095D01*
X124398809Y-63730095D02*
X124446428Y-63825333D01*
X124446428Y-63825333D02*
X124446428Y-64206285D01*
X124922619Y-62682476D02*
X124922619Y-63253904D01*
X124922619Y-62968190D02*
X123922619Y-62968190D01*
X123922619Y-62968190D02*
X124065476Y-63063428D01*
X124065476Y-63063428D02*
X124160714Y-63158666D01*
X124160714Y-63158666D02*
X124208333Y-63253904D01*
X123922619Y-61825333D02*
X123922619Y-62015809D01*
X123922619Y-62015809D02*
X123970238Y-62111047D01*
X123970238Y-62111047D02*
X124017857Y-62158666D01*
X124017857Y-62158666D02*
X124160714Y-62253904D01*
X124160714Y-62253904D02*
X124351190Y-62301523D01*
X124351190Y-62301523D02*
X124732142Y-62301523D01*
X124732142Y-62301523D02*
X124827380Y-62253904D01*
X124827380Y-62253904D02*
X124875000Y-62206285D01*
X124875000Y-62206285D02*
X124922619Y-62111047D01*
X124922619Y-62111047D02*
X124922619Y-61920571D01*
X124922619Y-61920571D02*
X124875000Y-61825333D01*
X124875000Y-61825333D02*
X124827380Y-61777714D01*
X124827380Y-61777714D02*
X124732142Y-61730095D01*
X124732142Y-61730095D02*
X124494047Y-61730095D01*
X124494047Y-61730095D02*
X124398809Y-61777714D01*
X124398809Y-61777714D02*
X124351190Y-61825333D01*
X124351190Y-61825333D02*
X124303571Y-61920571D01*
X124303571Y-61920571D02*
X124303571Y-62111047D01*
X124303571Y-62111047D02*
X124351190Y-62206285D01*
X124351190Y-62206285D02*
X124398809Y-62253904D01*
X124398809Y-62253904D02*
X124494047Y-62301523D01*
G04 #@! TO.C,R15*
X125048619Y-67294357D02*
X124572428Y-67627690D01*
X125048619Y-67865785D02*
X124048619Y-67865785D01*
X124048619Y-67865785D02*
X124048619Y-67484833D01*
X124048619Y-67484833D02*
X124096238Y-67389595D01*
X124096238Y-67389595D02*
X124143857Y-67341976D01*
X124143857Y-67341976D02*
X124239095Y-67294357D01*
X124239095Y-67294357D02*
X124381952Y-67294357D01*
X124381952Y-67294357D02*
X124477190Y-67341976D01*
X124477190Y-67341976D02*
X124524809Y-67389595D01*
X124524809Y-67389595D02*
X124572428Y-67484833D01*
X124572428Y-67484833D02*
X124572428Y-67865785D01*
X125048619Y-66341976D02*
X125048619Y-66913404D01*
X125048619Y-66627690D02*
X124048619Y-66627690D01*
X124048619Y-66627690D02*
X124191476Y-66722928D01*
X124191476Y-66722928D02*
X124286714Y-66818166D01*
X124286714Y-66818166D02*
X124334333Y-66913404D01*
X124048619Y-65437214D02*
X124048619Y-65913404D01*
X124048619Y-65913404D02*
X124524809Y-65961023D01*
X124524809Y-65961023D02*
X124477190Y-65913404D01*
X124477190Y-65913404D02*
X124429571Y-65818166D01*
X124429571Y-65818166D02*
X124429571Y-65580071D01*
X124429571Y-65580071D02*
X124477190Y-65484833D01*
X124477190Y-65484833D02*
X124524809Y-65437214D01*
X124524809Y-65437214D02*
X124620047Y-65389595D01*
X124620047Y-65389595D02*
X124858142Y-65389595D01*
X124858142Y-65389595D02*
X124953380Y-65437214D01*
X124953380Y-65437214D02*
X125001000Y-65484833D01*
X125001000Y-65484833D02*
X125048619Y-65580071D01*
X125048619Y-65580071D02*
X125048619Y-65818166D01*
X125048619Y-65818166D02*
X125001000Y-65913404D01*
X125001000Y-65913404D02*
X124953380Y-65961023D01*
G04 #@! TO.C,R14*
X133304619Y-55760857D02*
X132828428Y-56094190D01*
X133304619Y-56332285D02*
X132304619Y-56332285D01*
X132304619Y-56332285D02*
X132304619Y-55951333D01*
X132304619Y-55951333D02*
X132352238Y-55856095D01*
X132352238Y-55856095D02*
X132399857Y-55808476D01*
X132399857Y-55808476D02*
X132495095Y-55760857D01*
X132495095Y-55760857D02*
X132637952Y-55760857D01*
X132637952Y-55760857D02*
X132733190Y-55808476D01*
X132733190Y-55808476D02*
X132780809Y-55856095D01*
X132780809Y-55856095D02*
X132828428Y-55951333D01*
X132828428Y-55951333D02*
X132828428Y-56332285D01*
X133304619Y-54808476D02*
X133304619Y-55379904D01*
X133304619Y-55094190D02*
X132304619Y-55094190D01*
X132304619Y-55094190D02*
X132447476Y-55189428D01*
X132447476Y-55189428D02*
X132542714Y-55284666D01*
X132542714Y-55284666D02*
X132590333Y-55379904D01*
X132637952Y-53951333D02*
X133304619Y-53951333D01*
X132257000Y-54189428D02*
X132971285Y-54427523D01*
X132971285Y-54427523D02*
X132971285Y-53808476D01*
G04 #@! TO.C,R13*
X109554619Y-54998857D02*
X109078428Y-55332190D01*
X109554619Y-55570285D02*
X108554619Y-55570285D01*
X108554619Y-55570285D02*
X108554619Y-55189333D01*
X108554619Y-55189333D02*
X108602238Y-55094095D01*
X108602238Y-55094095D02*
X108649857Y-55046476D01*
X108649857Y-55046476D02*
X108745095Y-54998857D01*
X108745095Y-54998857D02*
X108887952Y-54998857D01*
X108887952Y-54998857D02*
X108983190Y-55046476D01*
X108983190Y-55046476D02*
X109030809Y-55094095D01*
X109030809Y-55094095D02*
X109078428Y-55189333D01*
X109078428Y-55189333D02*
X109078428Y-55570285D01*
X109554619Y-54046476D02*
X109554619Y-54617904D01*
X109554619Y-54332190D02*
X108554619Y-54332190D01*
X108554619Y-54332190D02*
X108697476Y-54427428D01*
X108697476Y-54427428D02*
X108792714Y-54522666D01*
X108792714Y-54522666D02*
X108840333Y-54617904D01*
X108554619Y-53713142D02*
X108554619Y-53094095D01*
X108554619Y-53094095D02*
X108935571Y-53427428D01*
X108935571Y-53427428D02*
X108935571Y-53284571D01*
X108935571Y-53284571D02*
X108983190Y-53189333D01*
X108983190Y-53189333D02*
X109030809Y-53141714D01*
X109030809Y-53141714D02*
X109126047Y-53094095D01*
X109126047Y-53094095D02*
X109364142Y-53094095D01*
X109364142Y-53094095D02*
X109459380Y-53141714D01*
X109459380Y-53141714D02*
X109507000Y-53189333D01*
X109507000Y-53189333D02*
X109554619Y-53284571D01*
X109554619Y-53284571D02*
X109554619Y-53570285D01*
X109554619Y-53570285D02*
X109507000Y-53665523D01*
X109507000Y-53665523D02*
X109459380Y-53713142D01*
G04 #@! TO.C,R12*
X131018619Y-46870857D02*
X130542428Y-47204190D01*
X131018619Y-47442285D02*
X130018619Y-47442285D01*
X130018619Y-47442285D02*
X130018619Y-47061333D01*
X130018619Y-47061333D02*
X130066238Y-46966095D01*
X130066238Y-46966095D02*
X130113857Y-46918476D01*
X130113857Y-46918476D02*
X130209095Y-46870857D01*
X130209095Y-46870857D02*
X130351952Y-46870857D01*
X130351952Y-46870857D02*
X130447190Y-46918476D01*
X130447190Y-46918476D02*
X130494809Y-46966095D01*
X130494809Y-46966095D02*
X130542428Y-47061333D01*
X130542428Y-47061333D02*
X130542428Y-47442285D01*
X131018619Y-45918476D02*
X131018619Y-46489904D01*
X131018619Y-46204190D02*
X130018619Y-46204190D01*
X130018619Y-46204190D02*
X130161476Y-46299428D01*
X130161476Y-46299428D02*
X130256714Y-46394666D01*
X130256714Y-46394666D02*
X130304333Y-46489904D01*
X130113857Y-45537523D02*
X130066238Y-45489904D01*
X130066238Y-45489904D02*
X130018619Y-45394666D01*
X130018619Y-45394666D02*
X130018619Y-45156571D01*
X130018619Y-45156571D02*
X130066238Y-45061333D01*
X130066238Y-45061333D02*
X130113857Y-45013714D01*
X130113857Y-45013714D02*
X130209095Y-44966095D01*
X130209095Y-44966095D02*
X130304333Y-44966095D01*
X130304333Y-44966095D02*
X130447190Y-45013714D01*
X130447190Y-45013714D02*
X131018619Y-45585142D01*
X131018619Y-45585142D02*
X131018619Y-44966095D01*
G04 #@! TO.C,R11*
X124160619Y-47124857D02*
X123684428Y-47458190D01*
X124160619Y-47696285D02*
X123160619Y-47696285D01*
X123160619Y-47696285D02*
X123160619Y-47315333D01*
X123160619Y-47315333D02*
X123208238Y-47220095D01*
X123208238Y-47220095D02*
X123255857Y-47172476D01*
X123255857Y-47172476D02*
X123351095Y-47124857D01*
X123351095Y-47124857D02*
X123493952Y-47124857D01*
X123493952Y-47124857D02*
X123589190Y-47172476D01*
X123589190Y-47172476D02*
X123636809Y-47220095D01*
X123636809Y-47220095D02*
X123684428Y-47315333D01*
X123684428Y-47315333D02*
X123684428Y-47696285D01*
X124160619Y-46172476D02*
X124160619Y-46743904D01*
X124160619Y-46458190D02*
X123160619Y-46458190D01*
X123160619Y-46458190D02*
X123303476Y-46553428D01*
X123303476Y-46553428D02*
X123398714Y-46648666D01*
X123398714Y-46648666D02*
X123446333Y-46743904D01*
X124160619Y-45220095D02*
X124160619Y-45791523D01*
X124160619Y-45505809D02*
X123160619Y-45505809D01*
X123160619Y-45505809D02*
X123303476Y-45601047D01*
X123303476Y-45601047D02*
X123398714Y-45696285D01*
X123398714Y-45696285D02*
X123446333Y-45791523D01*
G04 #@! TO.C,R10*
X111714619Y-47378857D02*
X111238428Y-47712190D01*
X111714619Y-47950285D02*
X110714619Y-47950285D01*
X110714619Y-47950285D02*
X110714619Y-47569333D01*
X110714619Y-47569333D02*
X110762238Y-47474095D01*
X110762238Y-47474095D02*
X110809857Y-47426476D01*
X110809857Y-47426476D02*
X110905095Y-47378857D01*
X110905095Y-47378857D02*
X111047952Y-47378857D01*
X111047952Y-47378857D02*
X111143190Y-47426476D01*
X111143190Y-47426476D02*
X111190809Y-47474095D01*
X111190809Y-47474095D02*
X111238428Y-47569333D01*
X111238428Y-47569333D02*
X111238428Y-47950285D01*
X111714619Y-46426476D02*
X111714619Y-46997904D01*
X111714619Y-46712190D02*
X110714619Y-46712190D01*
X110714619Y-46712190D02*
X110857476Y-46807428D01*
X110857476Y-46807428D02*
X110952714Y-46902666D01*
X110952714Y-46902666D02*
X111000333Y-46997904D01*
X110714619Y-45807428D02*
X110714619Y-45712190D01*
X110714619Y-45712190D02*
X110762238Y-45616952D01*
X110762238Y-45616952D02*
X110809857Y-45569333D01*
X110809857Y-45569333D02*
X110905095Y-45521714D01*
X110905095Y-45521714D02*
X111095571Y-45474095D01*
X111095571Y-45474095D02*
X111333666Y-45474095D01*
X111333666Y-45474095D02*
X111524142Y-45521714D01*
X111524142Y-45521714D02*
X111619380Y-45569333D01*
X111619380Y-45569333D02*
X111667000Y-45616952D01*
X111667000Y-45616952D02*
X111714619Y-45712190D01*
X111714619Y-45712190D02*
X111714619Y-45807428D01*
X111714619Y-45807428D02*
X111667000Y-45902666D01*
X111667000Y-45902666D02*
X111619380Y-45950285D01*
X111619380Y-45950285D02*
X111524142Y-45997904D01*
X111524142Y-45997904D02*
X111333666Y-46045523D01*
X111333666Y-46045523D02*
X111095571Y-46045523D01*
X111095571Y-46045523D02*
X110905095Y-45997904D01*
X110905095Y-45997904D02*
X110809857Y-45950285D01*
X110809857Y-45950285D02*
X110762238Y-45902666D01*
X110762238Y-45902666D02*
X110714619Y-45807428D01*
G04 #@! TO.C,R9*
X104856619Y-46902666D02*
X104380428Y-47235999D01*
X104856619Y-47474094D02*
X103856619Y-47474094D01*
X103856619Y-47474094D02*
X103856619Y-47093142D01*
X103856619Y-47093142D02*
X103904238Y-46997904D01*
X103904238Y-46997904D02*
X103951857Y-46950285D01*
X103951857Y-46950285D02*
X104047095Y-46902666D01*
X104047095Y-46902666D02*
X104189952Y-46902666D01*
X104189952Y-46902666D02*
X104285190Y-46950285D01*
X104285190Y-46950285D02*
X104332809Y-46997904D01*
X104332809Y-46997904D02*
X104380428Y-47093142D01*
X104380428Y-47093142D02*
X104380428Y-47474094D01*
X104856619Y-46426475D02*
X104856619Y-46235999D01*
X104856619Y-46235999D02*
X104809000Y-46140761D01*
X104809000Y-46140761D02*
X104761380Y-46093142D01*
X104761380Y-46093142D02*
X104618523Y-45997904D01*
X104618523Y-45997904D02*
X104428047Y-45950285D01*
X104428047Y-45950285D02*
X104047095Y-45950285D01*
X104047095Y-45950285D02*
X103951857Y-45997904D01*
X103951857Y-45997904D02*
X103904238Y-46045523D01*
X103904238Y-46045523D02*
X103856619Y-46140761D01*
X103856619Y-46140761D02*
X103856619Y-46331237D01*
X103856619Y-46331237D02*
X103904238Y-46426475D01*
X103904238Y-46426475D02*
X103951857Y-46474094D01*
X103951857Y-46474094D02*
X104047095Y-46521713D01*
X104047095Y-46521713D02*
X104285190Y-46521713D01*
X104285190Y-46521713D02*
X104380428Y-46474094D01*
X104380428Y-46474094D02*
X104428047Y-46426475D01*
X104428047Y-46426475D02*
X104475666Y-46331237D01*
X104475666Y-46331237D02*
X104475666Y-46140761D01*
X104475666Y-46140761D02*
X104428047Y-46045523D01*
X104428047Y-46045523D02*
X104380428Y-45997904D01*
X104380428Y-45997904D02*
X104285190Y-45950285D01*
G04 #@! TO.C,R8*
X129622619Y-55284666D02*
X129146428Y-55617999D01*
X129622619Y-55856094D02*
X128622619Y-55856094D01*
X128622619Y-55856094D02*
X128622619Y-55475142D01*
X128622619Y-55475142D02*
X128670238Y-55379904D01*
X128670238Y-55379904D02*
X128717857Y-55332285D01*
X128717857Y-55332285D02*
X128813095Y-55284666D01*
X128813095Y-55284666D02*
X128955952Y-55284666D01*
X128955952Y-55284666D02*
X129051190Y-55332285D01*
X129051190Y-55332285D02*
X129098809Y-55379904D01*
X129098809Y-55379904D02*
X129146428Y-55475142D01*
X129146428Y-55475142D02*
X129146428Y-55856094D01*
X129051190Y-54713237D02*
X129003571Y-54808475D01*
X129003571Y-54808475D02*
X128955952Y-54856094D01*
X128955952Y-54856094D02*
X128860714Y-54903713D01*
X128860714Y-54903713D02*
X128813095Y-54903713D01*
X128813095Y-54903713D02*
X128717857Y-54856094D01*
X128717857Y-54856094D02*
X128670238Y-54808475D01*
X128670238Y-54808475D02*
X128622619Y-54713237D01*
X128622619Y-54713237D02*
X128622619Y-54522761D01*
X128622619Y-54522761D02*
X128670238Y-54427523D01*
X128670238Y-54427523D02*
X128717857Y-54379904D01*
X128717857Y-54379904D02*
X128813095Y-54332285D01*
X128813095Y-54332285D02*
X128860714Y-54332285D01*
X128860714Y-54332285D02*
X128955952Y-54379904D01*
X128955952Y-54379904D02*
X129003571Y-54427523D01*
X129003571Y-54427523D02*
X129051190Y-54522761D01*
X129051190Y-54522761D02*
X129051190Y-54713237D01*
X129051190Y-54713237D02*
X129098809Y-54808475D01*
X129098809Y-54808475D02*
X129146428Y-54856094D01*
X129146428Y-54856094D02*
X129241666Y-54903713D01*
X129241666Y-54903713D02*
X129432142Y-54903713D01*
X129432142Y-54903713D02*
X129527380Y-54856094D01*
X129527380Y-54856094D02*
X129575000Y-54808475D01*
X129575000Y-54808475D02*
X129622619Y-54713237D01*
X129622619Y-54713237D02*
X129622619Y-54522761D01*
X129622619Y-54522761D02*
X129575000Y-54427523D01*
X129575000Y-54427523D02*
X129527380Y-54379904D01*
X129527380Y-54379904D02*
X129432142Y-54332285D01*
X129432142Y-54332285D02*
X129241666Y-54332285D01*
X129241666Y-54332285D02*
X129146428Y-54379904D01*
X129146428Y-54379904D02*
X129098809Y-54427523D01*
X129098809Y-54427523D02*
X129051190Y-54522761D01*
G04 #@! TO.C,R7*
X129494619Y-58840666D02*
X129018428Y-59173999D01*
X129494619Y-59412094D02*
X128494619Y-59412094D01*
X128494619Y-59412094D02*
X128494619Y-59031142D01*
X128494619Y-59031142D02*
X128542238Y-58935904D01*
X128542238Y-58935904D02*
X128589857Y-58888285D01*
X128589857Y-58888285D02*
X128685095Y-58840666D01*
X128685095Y-58840666D02*
X128827952Y-58840666D01*
X128827952Y-58840666D02*
X128923190Y-58888285D01*
X128923190Y-58888285D02*
X128970809Y-58935904D01*
X128970809Y-58935904D02*
X129018428Y-59031142D01*
X129018428Y-59031142D02*
X129018428Y-59412094D01*
X128494619Y-58507332D02*
X128494619Y-57840666D01*
X128494619Y-57840666D02*
X129494619Y-58269237D01*
G04 #@! TO.C,R6*
X134066619Y-46648666D02*
X133590428Y-46981999D01*
X134066619Y-47220094D02*
X133066619Y-47220094D01*
X133066619Y-47220094D02*
X133066619Y-46839142D01*
X133066619Y-46839142D02*
X133114238Y-46743904D01*
X133114238Y-46743904D02*
X133161857Y-46696285D01*
X133161857Y-46696285D02*
X133257095Y-46648666D01*
X133257095Y-46648666D02*
X133399952Y-46648666D01*
X133399952Y-46648666D02*
X133495190Y-46696285D01*
X133495190Y-46696285D02*
X133542809Y-46743904D01*
X133542809Y-46743904D02*
X133590428Y-46839142D01*
X133590428Y-46839142D02*
X133590428Y-47220094D01*
X133066619Y-45791523D02*
X133066619Y-45981999D01*
X133066619Y-45981999D02*
X133114238Y-46077237D01*
X133114238Y-46077237D02*
X133161857Y-46124856D01*
X133161857Y-46124856D02*
X133304714Y-46220094D01*
X133304714Y-46220094D02*
X133495190Y-46267713D01*
X133495190Y-46267713D02*
X133876142Y-46267713D01*
X133876142Y-46267713D02*
X133971380Y-46220094D01*
X133971380Y-46220094D02*
X134019000Y-46172475D01*
X134019000Y-46172475D02*
X134066619Y-46077237D01*
X134066619Y-46077237D02*
X134066619Y-45886761D01*
X134066619Y-45886761D02*
X134019000Y-45791523D01*
X134019000Y-45791523D02*
X133971380Y-45743904D01*
X133971380Y-45743904D02*
X133876142Y-45696285D01*
X133876142Y-45696285D02*
X133638047Y-45696285D01*
X133638047Y-45696285D02*
X133542809Y-45743904D01*
X133542809Y-45743904D02*
X133495190Y-45791523D01*
X133495190Y-45791523D02*
X133447571Y-45886761D01*
X133447571Y-45886761D02*
X133447571Y-46077237D01*
X133447571Y-46077237D02*
X133495190Y-46172475D01*
X133495190Y-46172475D02*
X133542809Y-46220094D01*
X133542809Y-46220094D02*
X133638047Y-46267713D01*
G04 #@! TO.C,R5*
X131000833Y-49230619D02*
X130667500Y-48754428D01*
X130429405Y-49230619D02*
X130429405Y-48230619D01*
X130429405Y-48230619D02*
X130810357Y-48230619D01*
X130810357Y-48230619D02*
X130905595Y-48278238D01*
X130905595Y-48278238D02*
X130953214Y-48325857D01*
X130953214Y-48325857D02*
X131000833Y-48421095D01*
X131000833Y-48421095D02*
X131000833Y-48563952D01*
X131000833Y-48563952D02*
X130953214Y-48659190D01*
X130953214Y-48659190D02*
X130905595Y-48706809D01*
X130905595Y-48706809D02*
X130810357Y-48754428D01*
X130810357Y-48754428D02*
X130429405Y-48754428D01*
X131905595Y-48230619D02*
X131429405Y-48230619D01*
X131429405Y-48230619D02*
X131381786Y-48706809D01*
X131381786Y-48706809D02*
X131429405Y-48659190D01*
X131429405Y-48659190D02*
X131524643Y-48611571D01*
X131524643Y-48611571D02*
X131762738Y-48611571D01*
X131762738Y-48611571D02*
X131857976Y-48659190D01*
X131857976Y-48659190D02*
X131905595Y-48706809D01*
X131905595Y-48706809D02*
X131953214Y-48802047D01*
X131953214Y-48802047D02*
X131953214Y-49040142D01*
X131953214Y-49040142D02*
X131905595Y-49135380D01*
X131905595Y-49135380D02*
X131857976Y-49183000D01*
X131857976Y-49183000D02*
X131762738Y-49230619D01*
X131762738Y-49230619D02*
X131524643Y-49230619D01*
X131524643Y-49230619D02*
X131429405Y-49183000D01*
X131429405Y-49183000D02*
X131381786Y-49135380D01*
G04 #@! TO.C,R4*
X111950833Y-55708619D02*
X111617500Y-55232428D01*
X111379405Y-55708619D02*
X111379405Y-54708619D01*
X111379405Y-54708619D02*
X111760357Y-54708619D01*
X111760357Y-54708619D02*
X111855595Y-54756238D01*
X111855595Y-54756238D02*
X111903214Y-54803857D01*
X111903214Y-54803857D02*
X111950833Y-54899095D01*
X111950833Y-54899095D02*
X111950833Y-55041952D01*
X111950833Y-55041952D02*
X111903214Y-55137190D01*
X111903214Y-55137190D02*
X111855595Y-55184809D01*
X111855595Y-55184809D02*
X111760357Y-55232428D01*
X111760357Y-55232428D02*
X111379405Y-55232428D01*
X112807976Y-55041952D02*
X112807976Y-55708619D01*
X112569881Y-54661000D02*
X112331786Y-55375285D01*
X112331786Y-55375285D02*
X112950833Y-55375285D01*
G04 #@! TO.C,R3*
X115270619Y-47006166D02*
X114794428Y-47339499D01*
X115270619Y-47577594D02*
X114270619Y-47577594D01*
X114270619Y-47577594D02*
X114270619Y-47196642D01*
X114270619Y-47196642D02*
X114318238Y-47101404D01*
X114318238Y-47101404D02*
X114365857Y-47053785D01*
X114365857Y-47053785D02*
X114461095Y-47006166D01*
X114461095Y-47006166D02*
X114603952Y-47006166D01*
X114603952Y-47006166D02*
X114699190Y-47053785D01*
X114699190Y-47053785D02*
X114746809Y-47101404D01*
X114746809Y-47101404D02*
X114794428Y-47196642D01*
X114794428Y-47196642D02*
X114794428Y-47577594D01*
X114270619Y-46672832D02*
X114270619Y-46053785D01*
X114270619Y-46053785D02*
X114651571Y-46387118D01*
X114651571Y-46387118D02*
X114651571Y-46244261D01*
X114651571Y-46244261D02*
X114699190Y-46149023D01*
X114699190Y-46149023D02*
X114746809Y-46101404D01*
X114746809Y-46101404D02*
X114842047Y-46053785D01*
X114842047Y-46053785D02*
X115080142Y-46053785D01*
X115080142Y-46053785D02*
X115175380Y-46101404D01*
X115175380Y-46101404D02*
X115223000Y-46149023D01*
X115223000Y-46149023D02*
X115270619Y-46244261D01*
X115270619Y-46244261D02*
X115270619Y-46529975D01*
X115270619Y-46529975D02*
X115223000Y-46625213D01*
X115223000Y-46625213D02*
X115175380Y-46672832D01*
G04 #@! TO.C,R2*
X111847333Y-50754619D02*
X111514000Y-50278428D01*
X111275905Y-50754619D02*
X111275905Y-49754619D01*
X111275905Y-49754619D02*
X111656857Y-49754619D01*
X111656857Y-49754619D02*
X111752095Y-49802238D01*
X111752095Y-49802238D02*
X111799714Y-49849857D01*
X111799714Y-49849857D02*
X111847333Y-49945095D01*
X111847333Y-49945095D02*
X111847333Y-50087952D01*
X111847333Y-50087952D02*
X111799714Y-50183190D01*
X111799714Y-50183190D02*
X111752095Y-50230809D01*
X111752095Y-50230809D02*
X111656857Y-50278428D01*
X111656857Y-50278428D02*
X111275905Y-50278428D01*
X112228286Y-49849857D02*
X112275905Y-49802238D01*
X112275905Y-49802238D02*
X112371143Y-49754619D01*
X112371143Y-49754619D02*
X112609238Y-49754619D01*
X112609238Y-49754619D02*
X112704476Y-49802238D01*
X112704476Y-49802238D02*
X112752095Y-49849857D01*
X112752095Y-49849857D02*
X112799714Y-49945095D01*
X112799714Y-49945095D02*
X112799714Y-50040333D01*
X112799714Y-50040333D02*
X112752095Y-50183190D01*
X112752095Y-50183190D02*
X112180667Y-50754619D01*
X112180667Y-50754619D02*
X112799714Y-50754619D01*
G04 #@! TO.C,R1*
X106663833Y-49612619D02*
X106330500Y-49136428D01*
X106092405Y-49612619D02*
X106092405Y-48612619D01*
X106092405Y-48612619D02*
X106473357Y-48612619D01*
X106473357Y-48612619D02*
X106568595Y-48660238D01*
X106568595Y-48660238D02*
X106616214Y-48707857D01*
X106616214Y-48707857D02*
X106663833Y-48803095D01*
X106663833Y-48803095D02*
X106663833Y-48945952D01*
X106663833Y-48945952D02*
X106616214Y-49041190D01*
X106616214Y-49041190D02*
X106568595Y-49088809D01*
X106568595Y-49088809D02*
X106473357Y-49136428D01*
X106473357Y-49136428D02*
X106092405Y-49136428D01*
X107616214Y-49612619D02*
X107044786Y-49612619D01*
X107330500Y-49612619D02*
X107330500Y-48612619D01*
X107330500Y-48612619D02*
X107235262Y-48755476D01*
X107235262Y-48755476D02*
X107140024Y-48850714D01*
X107140024Y-48850714D02*
X107044786Y-48898333D01*
G04 #@! TO.C,J7*
X113833619Y-111839333D02*
X114547904Y-111839333D01*
X114547904Y-111839333D02*
X114690761Y-111886952D01*
X114690761Y-111886952D02*
X114786000Y-111982190D01*
X114786000Y-111982190D02*
X114833619Y-112125047D01*
X114833619Y-112125047D02*
X114833619Y-112220285D01*
X113833619Y-111458380D02*
X113833619Y-110791714D01*
X113833619Y-110791714D02*
X114833619Y-111220285D01*
G04 #@! TO.C,J6*
X103044666Y-82730619D02*
X103044666Y-83444904D01*
X103044666Y-83444904D02*
X102997047Y-83587761D01*
X102997047Y-83587761D02*
X102901809Y-83683000D01*
X102901809Y-83683000D02*
X102758952Y-83730619D01*
X102758952Y-83730619D02*
X102663714Y-83730619D01*
X103949428Y-82730619D02*
X103758952Y-82730619D01*
X103758952Y-82730619D02*
X103663714Y-82778238D01*
X103663714Y-82778238D02*
X103616095Y-82825857D01*
X103616095Y-82825857D02*
X103520857Y-82968714D01*
X103520857Y-82968714D02*
X103473238Y-83159190D01*
X103473238Y-83159190D02*
X103473238Y-83540142D01*
X103473238Y-83540142D02*
X103520857Y-83635380D01*
X103520857Y-83635380D02*
X103568476Y-83683000D01*
X103568476Y-83683000D02*
X103663714Y-83730619D01*
X103663714Y-83730619D02*
X103854190Y-83730619D01*
X103854190Y-83730619D02*
X103949428Y-83683000D01*
X103949428Y-83683000D02*
X103997047Y-83635380D01*
X103997047Y-83635380D02*
X104044666Y-83540142D01*
X104044666Y-83540142D02*
X104044666Y-83302047D01*
X104044666Y-83302047D02*
X103997047Y-83206809D01*
X103997047Y-83206809D02*
X103949428Y-83159190D01*
X103949428Y-83159190D02*
X103854190Y-83111571D01*
X103854190Y-83111571D02*
X103663714Y-83111571D01*
X103663714Y-83111571D02*
X103568476Y-83159190D01*
X103568476Y-83159190D02*
X103520857Y-83206809D01*
X103520857Y-83206809D02*
X103473238Y-83302047D01*
G04 #@! TO.C,J5*
X103044666Y-74343619D02*
X103044666Y-75057904D01*
X103044666Y-75057904D02*
X102997047Y-75200761D01*
X102997047Y-75200761D02*
X102901809Y-75296000D01*
X102901809Y-75296000D02*
X102758952Y-75343619D01*
X102758952Y-75343619D02*
X102663714Y-75343619D01*
X103997047Y-74343619D02*
X103520857Y-74343619D01*
X103520857Y-74343619D02*
X103473238Y-74819809D01*
X103473238Y-74819809D02*
X103520857Y-74772190D01*
X103520857Y-74772190D02*
X103616095Y-74724571D01*
X103616095Y-74724571D02*
X103854190Y-74724571D01*
X103854190Y-74724571D02*
X103949428Y-74772190D01*
X103949428Y-74772190D02*
X103997047Y-74819809D01*
X103997047Y-74819809D02*
X104044666Y-74915047D01*
X104044666Y-74915047D02*
X104044666Y-75153142D01*
X104044666Y-75153142D02*
X103997047Y-75248380D01*
X103997047Y-75248380D02*
X103949428Y-75296000D01*
X103949428Y-75296000D02*
X103854190Y-75343619D01*
X103854190Y-75343619D02*
X103616095Y-75343619D01*
X103616095Y-75343619D02*
X103520857Y-75296000D01*
X103520857Y-75296000D02*
X103473238Y-75248380D01*
G04 #@! TO.C,J4*
X130018619Y-39703333D02*
X130732904Y-39703333D01*
X130732904Y-39703333D02*
X130875761Y-39750952D01*
X130875761Y-39750952D02*
X130971000Y-39846190D01*
X130971000Y-39846190D02*
X131018619Y-39989047D01*
X131018619Y-39989047D02*
X131018619Y-40084285D01*
X130351952Y-38798571D02*
X131018619Y-38798571D01*
X129971000Y-39036666D02*
X130685285Y-39274761D01*
X130685285Y-39274761D02*
X130685285Y-38655714D01*
G04 #@! TO.C,J3*
X120112619Y-39703333D02*
X120826904Y-39703333D01*
X120826904Y-39703333D02*
X120969761Y-39750952D01*
X120969761Y-39750952D02*
X121065000Y-39846190D01*
X121065000Y-39846190D02*
X121112619Y-39989047D01*
X121112619Y-39989047D02*
X121112619Y-40084285D01*
X120112619Y-39322380D02*
X120112619Y-38703333D01*
X120112619Y-38703333D02*
X120493571Y-39036666D01*
X120493571Y-39036666D02*
X120493571Y-38893809D01*
X120493571Y-38893809D02*
X120541190Y-38798571D01*
X120541190Y-38798571D02*
X120588809Y-38750952D01*
X120588809Y-38750952D02*
X120684047Y-38703333D01*
X120684047Y-38703333D02*
X120922142Y-38703333D01*
X120922142Y-38703333D02*
X121017380Y-38750952D01*
X121017380Y-38750952D02*
X121065000Y-38798571D01*
X121065000Y-38798571D02*
X121112619Y-38893809D01*
X121112619Y-38893809D02*
X121112619Y-39179523D01*
X121112619Y-39179523D02*
X121065000Y-39274761D01*
X121065000Y-39274761D02*
X121017380Y-39322380D01*
G04 #@! TO.C,J2*
X110460619Y-39703333D02*
X111174904Y-39703333D01*
X111174904Y-39703333D02*
X111317761Y-39750952D01*
X111317761Y-39750952D02*
X111413000Y-39846190D01*
X111413000Y-39846190D02*
X111460619Y-39989047D01*
X111460619Y-39989047D02*
X111460619Y-40084285D01*
X110555857Y-39274761D02*
X110508238Y-39227142D01*
X110508238Y-39227142D02*
X110460619Y-39131904D01*
X110460619Y-39131904D02*
X110460619Y-38893809D01*
X110460619Y-38893809D02*
X110508238Y-38798571D01*
X110508238Y-38798571D02*
X110555857Y-38750952D01*
X110555857Y-38750952D02*
X110651095Y-38703333D01*
X110651095Y-38703333D02*
X110746333Y-38703333D01*
X110746333Y-38703333D02*
X110889190Y-38750952D01*
X110889190Y-38750952D02*
X111460619Y-39322380D01*
X111460619Y-39322380D02*
X111460619Y-38703333D01*
G04 #@! TO.C,J1*
X102078619Y-45037333D02*
X102792904Y-45037333D01*
X102792904Y-45037333D02*
X102935761Y-45084952D01*
X102935761Y-45084952D02*
X103031000Y-45180190D01*
X103031000Y-45180190D02*
X103078619Y-45323047D01*
X103078619Y-45323047D02*
X103078619Y-45418285D01*
X103078619Y-44037333D02*
X103078619Y-44608761D01*
X103078619Y-44323047D02*
X102078619Y-44323047D01*
X102078619Y-44323047D02*
X102221476Y-44418285D01*
X102221476Y-44418285D02*
X102316714Y-44513523D01*
X102316714Y-44513523D02*
X102364333Y-44608761D01*
G04 #@! TO.C,C12*
X134550380Y-86494857D02*
X134598000Y-86542476D01*
X134598000Y-86542476D02*
X134645619Y-86685333D01*
X134645619Y-86685333D02*
X134645619Y-86780571D01*
X134645619Y-86780571D02*
X134598000Y-86923428D01*
X134598000Y-86923428D02*
X134502761Y-87018666D01*
X134502761Y-87018666D02*
X134407523Y-87066285D01*
X134407523Y-87066285D02*
X134217047Y-87113904D01*
X134217047Y-87113904D02*
X134074190Y-87113904D01*
X134074190Y-87113904D02*
X133883714Y-87066285D01*
X133883714Y-87066285D02*
X133788476Y-87018666D01*
X133788476Y-87018666D02*
X133693238Y-86923428D01*
X133693238Y-86923428D02*
X133645619Y-86780571D01*
X133645619Y-86780571D02*
X133645619Y-86685333D01*
X133645619Y-86685333D02*
X133693238Y-86542476D01*
X133693238Y-86542476D02*
X133740857Y-86494857D01*
X134645619Y-85542476D02*
X134645619Y-86113904D01*
X134645619Y-85828190D02*
X133645619Y-85828190D01*
X133645619Y-85828190D02*
X133788476Y-85923428D01*
X133788476Y-85923428D02*
X133883714Y-86018666D01*
X133883714Y-86018666D02*
X133931333Y-86113904D01*
X133740857Y-85161523D02*
X133693238Y-85113904D01*
X133693238Y-85113904D02*
X133645619Y-85018666D01*
X133645619Y-85018666D02*
X133645619Y-84780571D01*
X133645619Y-84780571D02*
X133693238Y-84685333D01*
X133693238Y-84685333D02*
X133740857Y-84637714D01*
X133740857Y-84637714D02*
X133836095Y-84590095D01*
X133836095Y-84590095D02*
X133931333Y-84590095D01*
X133931333Y-84590095D02*
X134074190Y-84637714D01*
X134074190Y-84637714D02*
X134645619Y-85209142D01*
X134645619Y-85209142D02*
X134645619Y-84590095D01*
G04 #@! TO.C,C11*
X134744380Y-81205745D02*
X134792000Y-81253364D01*
X134792000Y-81253364D02*
X134839619Y-81396221D01*
X134839619Y-81396221D02*
X134839619Y-81491459D01*
X134839619Y-81491459D02*
X134792000Y-81634316D01*
X134792000Y-81634316D02*
X134696761Y-81729554D01*
X134696761Y-81729554D02*
X134601523Y-81777173D01*
X134601523Y-81777173D02*
X134411047Y-81824792D01*
X134411047Y-81824792D02*
X134268190Y-81824792D01*
X134268190Y-81824792D02*
X134077714Y-81777173D01*
X134077714Y-81777173D02*
X133982476Y-81729554D01*
X133982476Y-81729554D02*
X133887238Y-81634316D01*
X133887238Y-81634316D02*
X133839619Y-81491459D01*
X133839619Y-81491459D02*
X133839619Y-81396221D01*
X133839619Y-81396221D02*
X133887238Y-81253364D01*
X133887238Y-81253364D02*
X133934857Y-81205745D01*
X134839619Y-80253364D02*
X134839619Y-80824792D01*
X134839619Y-80539078D02*
X133839619Y-80539078D01*
X133839619Y-80539078D02*
X133982476Y-80634316D01*
X133982476Y-80634316D02*
X134077714Y-80729554D01*
X134077714Y-80729554D02*
X134125333Y-80824792D01*
X134839619Y-79300983D02*
X134839619Y-79872411D01*
X134839619Y-79586697D02*
X133839619Y-79586697D01*
X133839619Y-79586697D02*
X133982476Y-79681935D01*
X133982476Y-79681935D02*
X134077714Y-79777173D01*
X134077714Y-79777173D02*
X134125333Y-79872411D01*
G04 #@! TO.C,C10*
X127692380Y-99448857D02*
X127740000Y-99496476D01*
X127740000Y-99496476D02*
X127787619Y-99639333D01*
X127787619Y-99639333D02*
X127787619Y-99734571D01*
X127787619Y-99734571D02*
X127740000Y-99877428D01*
X127740000Y-99877428D02*
X127644761Y-99972666D01*
X127644761Y-99972666D02*
X127549523Y-100020285D01*
X127549523Y-100020285D02*
X127359047Y-100067904D01*
X127359047Y-100067904D02*
X127216190Y-100067904D01*
X127216190Y-100067904D02*
X127025714Y-100020285D01*
X127025714Y-100020285D02*
X126930476Y-99972666D01*
X126930476Y-99972666D02*
X126835238Y-99877428D01*
X126835238Y-99877428D02*
X126787619Y-99734571D01*
X126787619Y-99734571D02*
X126787619Y-99639333D01*
X126787619Y-99639333D02*
X126835238Y-99496476D01*
X126835238Y-99496476D02*
X126882857Y-99448857D01*
X127787619Y-98496476D02*
X127787619Y-99067904D01*
X127787619Y-98782190D02*
X126787619Y-98782190D01*
X126787619Y-98782190D02*
X126930476Y-98877428D01*
X126930476Y-98877428D02*
X127025714Y-98972666D01*
X127025714Y-98972666D02*
X127073333Y-99067904D01*
X126787619Y-97877428D02*
X126787619Y-97782190D01*
X126787619Y-97782190D02*
X126835238Y-97686952D01*
X126835238Y-97686952D02*
X126882857Y-97639333D01*
X126882857Y-97639333D02*
X126978095Y-97591714D01*
X126978095Y-97591714D02*
X127168571Y-97544095D01*
X127168571Y-97544095D02*
X127406666Y-97544095D01*
X127406666Y-97544095D02*
X127597142Y-97591714D01*
X127597142Y-97591714D02*
X127692380Y-97639333D01*
X127692380Y-97639333D02*
X127740000Y-97686952D01*
X127740000Y-97686952D02*
X127787619Y-97782190D01*
X127787619Y-97782190D02*
X127787619Y-97877428D01*
X127787619Y-97877428D02*
X127740000Y-97972666D01*
X127740000Y-97972666D02*
X127692380Y-98020285D01*
X127692380Y-98020285D02*
X127597142Y-98067904D01*
X127597142Y-98067904D02*
X127406666Y-98115523D01*
X127406666Y-98115523D02*
X127168571Y-98115523D01*
X127168571Y-98115523D02*
X126978095Y-98067904D01*
X126978095Y-98067904D02*
X126882857Y-98020285D01*
X126882857Y-98020285D02*
X126835238Y-97972666D01*
X126835238Y-97972666D02*
X126787619Y-97877428D01*
G04 #@! TO.C,C9*
X127692380Y-105068666D02*
X127740000Y-105116285D01*
X127740000Y-105116285D02*
X127787619Y-105259142D01*
X127787619Y-105259142D02*
X127787619Y-105354380D01*
X127787619Y-105354380D02*
X127740000Y-105497237D01*
X127740000Y-105497237D02*
X127644761Y-105592475D01*
X127644761Y-105592475D02*
X127549523Y-105640094D01*
X127549523Y-105640094D02*
X127359047Y-105687713D01*
X127359047Y-105687713D02*
X127216190Y-105687713D01*
X127216190Y-105687713D02*
X127025714Y-105640094D01*
X127025714Y-105640094D02*
X126930476Y-105592475D01*
X126930476Y-105592475D02*
X126835238Y-105497237D01*
X126835238Y-105497237D02*
X126787619Y-105354380D01*
X126787619Y-105354380D02*
X126787619Y-105259142D01*
X126787619Y-105259142D02*
X126835238Y-105116285D01*
X126835238Y-105116285D02*
X126882857Y-105068666D01*
X127787619Y-104592475D02*
X127787619Y-104401999D01*
X127787619Y-104401999D02*
X127740000Y-104306761D01*
X127740000Y-104306761D02*
X127692380Y-104259142D01*
X127692380Y-104259142D02*
X127549523Y-104163904D01*
X127549523Y-104163904D02*
X127359047Y-104116285D01*
X127359047Y-104116285D02*
X126978095Y-104116285D01*
X126978095Y-104116285D02*
X126882857Y-104163904D01*
X126882857Y-104163904D02*
X126835238Y-104211523D01*
X126835238Y-104211523D02*
X126787619Y-104306761D01*
X126787619Y-104306761D02*
X126787619Y-104497237D01*
X126787619Y-104497237D02*
X126835238Y-104592475D01*
X126835238Y-104592475D02*
X126882857Y-104640094D01*
X126882857Y-104640094D02*
X126978095Y-104687713D01*
X126978095Y-104687713D02*
X127216190Y-104687713D01*
X127216190Y-104687713D02*
X127311428Y-104640094D01*
X127311428Y-104640094D02*
X127359047Y-104592475D01*
X127359047Y-104592475D02*
X127406666Y-104497237D01*
X127406666Y-104497237D02*
X127406666Y-104306761D01*
X127406666Y-104306761D02*
X127359047Y-104211523D01*
X127359047Y-104211523D02*
X127311428Y-104163904D01*
X127311428Y-104163904D02*
X127216190Y-104116285D01*
G04 #@! TO.C,C8*
X127438380Y-86780666D02*
X127486000Y-86828285D01*
X127486000Y-86828285D02*
X127533619Y-86971142D01*
X127533619Y-86971142D02*
X127533619Y-87066380D01*
X127533619Y-87066380D02*
X127486000Y-87209237D01*
X127486000Y-87209237D02*
X127390761Y-87304475D01*
X127390761Y-87304475D02*
X127295523Y-87352094D01*
X127295523Y-87352094D02*
X127105047Y-87399713D01*
X127105047Y-87399713D02*
X126962190Y-87399713D01*
X126962190Y-87399713D02*
X126771714Y-87352094D01*
X126771714Y-87352094D02*
X126676476Y-87304475D01*
X126676476Y-87304475D02*
X126581238Y-87209237D01*
X126581238Y-87209237D02*
X126533619Y-87066380D01*
X126533619Y-87066380D02*
X126533619Y-86971142D01*
X126533619Y-86971142D02*
X126581238Y-86828285D01*
X126581238Y-86828285D02*
X126628857Y-86780666D01*
X126962190Y-86209237D02*
X126914571Y-86304475D01*
X126914571Y-86304475D02*
X126866952Y-86352094D01*
X126866952Y-86352094D02*
X126771714Y-86399713D01*
X126771714Y-86399713D02*
X126724095Y-86399713D01*
X126724095Y-86399713D02*
X126628857Y-86352094D01*
X126628857Y-86352094D02*
X126581238Y-86304475D01*
X126581238Y-86304475D02*
X126533619Y-86209237D01*
X126533619Y-86209237D02*
X126533619Y-86018761D01*
X126533619Y-86018761D02*
X126581238Y-85923523D01*
X126581238Y-85923523D02*
X126628857Y-85875904D01*
X126628857Y-85875904D02*
X126724095Y-85828285D01*
X126724095Y-85828285D02*
X126771714Y-85828285D01*
X126771714Y-85828285D02*
X126866952Y-85875904D01*
X126866952Y-85875904D02*
X126914571Y-85923523D01*
X126914571Y-85923523D02*
X126962190Y-86018761D01*
X126962190Y-86018761D02*
X126962190Y-86209237D01*
X126962190Y-86209237D02*
X127009809Y-86304475D01*
X127009809Y-86304475D02*
X127057428Y-86352094D01*
X127057428Y-86352094D02*
X127152666Y-86399713D01*
X127152666Y-86399713D02*
X127343142Y-86399713D01*
X127343142Y-86399713D02*
X127438380Y-86352094D01*
X127438380Y-86352094D02*
X127486000Y-86304475D01*
X127486000Y-86304475D02*
X127533619Y-86209237D01*
X127533619Y-86209237D02*
X127533619Y-86018761D01*
X127533619Y-86018761D02*
X127486000Y-85923523D01*
X127486000Y-85923523D02*
X127438380Y-85875904D01*
X127438380Y-85875904D02*
X127343142Y-85828285D01*
X127343142Y-85828285D02*
X127152666Y-85828285D01*
X127152666Y-85828285D02*
X127057428Y-85875904D01*
X127057428Y-85875904D02*
X127009809Y-85923523D01*
X127009809Y-85923523D02*
X126962190Y-86018761D01*
G04 #@! TO.C,C7*
X127692380Y-93384666D02*
X127740000Y-93432285D01*
X127740000Y-93432285D02*
X127787619Y-93575142D01*
X127787619Y-93575142D02*
X127787619Y-93670380D01*
X127787619Y-93670380D02*
X127740000Y-93813237D01*
X127740000Y-93813237D02*
X127644761Y-93908475D01*
X127644761Y-93908475D02*
X127549523Y-93956094D01*
X127549523Y-93956094D02*
X127359047Y-94003713D01*
X127359047Y-94003713D02*
X127216190Y-94003713D01*
X127216190Y-94003713D02*
X127025714Y-93956094D01*
X127025714Y-93956094D02*
X126930476Y-93908475D01*
X126930476Y-93908475D02*
X126835238Y-93813237D01*
X126835238Y-93813237D02*
X126787619Y-93670380D01*
X126787619Y-93670380D02*
X126787619Y-93575142D01*
X126787619Y-93575142D02*
X126835238Y-93432285D01*
X126835238Y-93432285D02*
X126882857Y-93384666D01*
X126787619Y-93051332D02*
X126787619Y-92384666D01*
X126787619Y-92384666D02*
X127787619Y-92813237D01*
G04 #@! TO.C,C6*
X111873380Y-60110666D02*
X111921000Y-60158285D01*
X111921000Y-60158285D02*
X111968619Y-60301142D01*
X111968619Y-60301142D02*
X111968619Y-60396380D01*
X111968619Y-60396380D02*
X111921000Y-60539237D01*
X111921000Y-60539237D02*
X111825761Y-60634475D01*
X111825761Y-60634475D02*
X111730523Y-60682094D01*
X111730523Y-60682094D02*
X111540047Y-60729713D01*
X111540047Y-60729713D02*
X111397190Y-60729713D01*
X111397190Y-60729713D02*
X111206714Y-60682094D01*
X111206714Y-60682094D02*
X111111476Y-60634475D01*
X111111476Y-60634475D02*
X111016238Y-60539237D01*
X111016238Y-60539237D02*
X110968619Y-60396380D01*
X110968619Y-60396380D02*
X110968619Y-60301142D01*
X110968619Y-60301142D02*
X111016238Y-60158285D01*
X111016238Y-60158285D02*
X111063857Y-60110666D01*
X110968619Y-59253523D02*
X110968619Y-59443999D01*
X110968619Y-59443999D02*
X111016238Y-59539237D01*
X111016238Y-59539237D02*
X111063857Y-59586856D01*
X111063857Y-59586856D02*
X111206714Y-59682094D01*
X111206714Y-59682094D02*
X111397190Y-59729713D01*
X111397190Y-59729713D02*
X111778142Y-59729713D01*
X111778142Y-59729713D02*
X111873380Y-59682094D01*
X111873380Y-59682094D02*
X111921000Y-59634475D01*
X111921000Y-59634475D02*
X111968619Y-59539237D01*
X111968619Y-59539237D02*
X111968619Y-59348761D01*
X111968619Y-59348761D02*
X111921000Y-59253523D01*
X111921000Y-59253523D02*
X111873380Y-59205904D01*
X111873380Y-59205904D02*
X111778142Y-59158285D01*
X111778142Y-59158285D02*
X111540047Y-59158285D01*
X111540047Y-59158285D02*
X111444809Y-59205904D01*
X111444809Y-59205904D02*
X111397190Y-59253523D01*
X111397190Y-59253523D02*
X111349571Y-59348761D01*
X111349571Y-59348761D02*
X111349571Y-59539237D01*
X111349571Y-59539237D02*
X111397190Y-59634475D01*
X111397190Y-59634475D02*
X111444809Y-59682094D01*
X111444809Y-59682094D02*
X111540047Y-59729713D01*
G04 #@! TO.C,C5*
X108415380Y-60110666D02*
X108463000Y-60158285D01*
X108463000Y-60158285D02*
X108510619Y-60301142D01*
X108510619Y-60301142D02*
X108510619Y-60396380D01*
X108510619Y-60396380D02*
X108463000Y-60539237D01*
X108463000Y-60539237D02*
X108367761Y-60634475D01*
X108367761Y-60634475D02*
X108272523Y-60682094D01*
X108272523Y-60682094D02*
X108082047Y-60729713D01*
X108082047Y-60729713D02*
X107939190Y-60729713D01*
X107939190Y-60729713D02*
X107748714Y-60682094D01*
X107748714Y-60682094D02*
X107653476Y-60634475D01*
X107653476Y-60634475D02*
X107558238Y-60539237D01*
X107558238Y-60539237D02*
X107510619Y-60396380D01*
X107510619Y-60396380D02*
X107510619Y-60301142D01*
X107510619Y-60301142D02*
X107558238Y-60158285D01*
X107558238Y-60158285D02*
X107605857Y-60110666D01*
X107510619Y-59205904D02*
X107510619Y-59682094D01*
X107510619Y-59682094D02*
X107986809Y-59729713D01*
X107986809Y-59729713D02*
X107939190Y-59682094D01*
X107939190Y-59682094D02*
X107891571Y-59586856D01*
X107891571Y-59586856D02*
X107891571Y-59348761D01*
X107891571Y-59348761D02*
X107939190Y-59253523D01*
X107939190Y-59253523D02*
X107986809Y-59205904D01*
X107986809Y-59205904D02*
X108082047Y-59158285D01*
X108082047Y-59158285D02*
X108320142Y-59158285D01*
X108320142Y-59158285D02*
X108415380Y-59205904D01*
X108415380Y-59205904D02*
X108463000Y-59253523D01*
X108463000Y-59253523D02*
X108510619Y-59348761D01*
X108510619Y-59348761D02*
X108510619Y-59586856D01*
X108510619Y-59586856D02*
X108463000Y-59682094D01*
X108463000Y-59682094D02*
X108415380Y-59729713D01*
G04 #@! TO.C,C4*
X139051380Y-49696666D02*
X139099000Y-49744285D01*
X139099000Y-49744285D02*
X139146619Y-49887142D01*
X139146619Y-49887142D02*
X139146619Y-49982380D01*
X139146619Y-49982380D02*
X139099000Y-50125237D01*
X139099000Y-50125237D02*
X139003761Y-50220475D01*
X139003761Y-50220475D02*
X138908523Y-50268094D01*
X138908523Y-50268094D02*
X138718047Y-50315713D01*
X138718047Y-50315713D02*
X138575190Y-50315713D01*
X138575190Y-50315713D02*
X138384714Y-50268094D01*
X138384714Y-50268094D02*
X138289476Y-50220475D01*
X138289476Y-50220475D02*
X138194238Y-50125237D01*
X138194238Y-50125237D02*
X138146619Y-49982380D01*
X138146619Y-49982380D02*
X138146619Y-49887142D01*
X138146619Y-49887142D02*
X138194238Y-49744285D01*
X138194238Y-49744285D02*
X138241857Y-49696666D01*
X138479952Y-48839523D02*
X139146619Y-48839523D01*
X138099000Y-49077618D02*
X138813285Y-49315713D01*
X138813285Y-49315713D02*
X138813285Y-48696666D01*
G04 #@! TO.C,C3*
X135281333Y-49741380D02*
X135233714Y-49789000D01*
X135233714Y-49789000D02*
X135090857Y-49836619D01*
X135090857Y-49836619D02*
X134995619Y-49836619D01*
X134995619Y-49836619D02*
X134852762Y-49789000D01*
X134852762Y-49789000D02*
X134757524Y-49693761D01*
X134757524Y-49693761D02*
X134709905Y-49598523D01*
X134709905Y-49598523D02*
X134662286Y-49408047D01*
X134662286Y-49408047D02*
X134662286Y-49265190D01*
X134662286Y-49265190D02*
X134709905Y-49074714D01*
X134709905Y-49074714D02*
X134757524Y-48979476D01*
X134757524Y-48979476D02*
X134852762Y-48884238D01*
X134852762Y-48884238D02*
X134995619Y-48836619D01*
X134995619Y-48836619D02*
X135090857Y-48836619D01*
X135090857Y-48836619D02*
X135233714Y-48884238D01*
X135233714Y-48884238D02*
X135281333Y-48931857D01*
X135614667Y-48836619D02*
X136233714Y-48836619D01*
X136233714Y-48836619D02*
X135900381Y-49217571D01*
X135900381Y-49217571D02*
X136043238Y-49217571D01*
X136043238Y-49217571D02*
X136138476Y-49265190D01*
X136138476Y-49265190D02*
X136186095Y-49312809D01*
X136186095Y-49312809D02*
X136233714Y-49408047D01*
X136233714Y-49408047D02*
X136233714Y-49646142D01*
X136233714Y-49646142D02*
X136186095Y-49741380D01*
X136186095Y-49741380D02*
X136138476Y-49789000D01*
X136138476Y-49789000D02*
X136043238Y-49836619D01*
X136043238Y-49836619D02*
X135757524Y-49836619D01*
X135757524Y-49836619D02*
X135662286Y-49789000D01*
X135662286Y-49789000D02*
X135614667Y-49741380D01*
G04 #@! TO.C,C2*
X127465380Y-46648666D02*
X127513000Y-46696285D01*
X127513000Y-46696285D02*
X127560619Y-46839142D01*
X127560619Y-46839142D02*
X127560619Y-46934380D01*
X127560619Y-46934380D02*
X127513000Y-47077237D01*
X127513000Y-47077237D02*
X127417761Y-47172475D01*
X127417761Y-47172475D02*
X127322523Y-47220094D01*
X127322523Y-47220094D02*
X127132047Y-47267713D01*
X127132047Y-47267713D02*
X126989190Y-47267713D01*
X126989190Y-47267713D02*
X126798714Y-47220094D01*
X126798714Y-47220094D02*
X126703476Y-47172475D01*
X126703476Y-47172475D02*
X126608238Y-47077237D01*
X126608238Y-47077237D02*
X126560619Y-46934380D01*
X126560619Y-46934380D02*
X126560619Y-46839142D01*
X126560619Y-46839142D02*
X126608238Y-46696285D01*
X126608238Y-46696285D02*
X126655857Y-46648666D01*
X126655857Y-46267713D02*
X126608238Y-46220094D01*
X126608238Y-46220094D02*
X126560619Y-46124856D01*
X126560619Y-46124856D02*
X126560619Y-45886761D01*
X126560619Y-45886761D02*
X126608238Y-45791523D01*
X126608238Y-45791523D02*
X126655857Y-45743904D01*
X126655857Y-45743904D02*
X126751095Y-45696285D01*
X126751095Y-45696285D02*
X126846333Y-45696285D01*
X126846333Y-45696285D02*
X126989190Y-45743904D01*
X126989190Y-45743904D02*
X127560619Y-46315332D01*
X127560619Y-46315332D02*
X127560619Y-45696285D01*
G04 #@! TO.C,C1*
X108161380Y-46902666D02*
X108209000Y-46950285D01*
X108209000Y-46950285D02*
X108256619Y-47093142D01*
X108256619Y-47093142D02*
X108256619Y-47188380D01*
X108256619Y-47188380D02*
X108209000Y-47331237D01*
X108209000Y-47331237D02*
X108113761Y-47426475D01*
X108113761Y-47426475D02*
X108018523Y-47474094D01*
X108018523Y-47474094D02*
X107828047Y-47521713D01*
X107828047Y-47521713D02*
X107685190Y-47521713D01*
X107685190Y-47521713D02*
X107494714Y-47474094D01*
X107494714Y-47474094D02*
X107399476Y-47426475D01*
X107399476Y-47426475D02*
X107304238Y-47331237D01*
X107304238Y-47331237D02*
X107256619Y-47188380D01*
X107256619Y-47188380D02*
X107256619Y-47093142D01*
X107256619Y-47093142D02*
X107304238Y-46950285D01*
X107304238Y-46950285D02*
X107351857Y-46902666D01*
X108256619Y-45950285D02*
X108256619Y-46521713D01*
X108256619Y-46235999D02*
X107256619Y-46235999D01*
X107256619Y-46235999D02*
X107399476Y-46331237D01*
X107399476Y-46331237D02*
X107494714Y-46426475D01*
X107494714Y-46426475D02*
X107542333Y-46521713D01*
D12*
G04 #@! TO.C,F2*
X114060000Y-106556000D02*
X114060000Y-101216000D01*
X113394000Y-106556000D02*
X114060000Y-106556000D01*
X110618000Y-106556000D02*
X110618000Y-101216000D01*
X113394000Y-101216000D02*
X114060000Y-101216000D01*
X110618000Y-101216000D02*
X111284000Y-101216000D01*
X110618000Y-106556000D02*
X111284000Y-106556000D01*
G04 #@! TO.C,F1*
X116206000Y-101216000D02*
X116206000Y-106556000D01*
X116872000Y-101216000D02*
X116206000Y-101216000D01*
X119648000Y-101216000D02*
X119648000Y-106556000D01*
X116872000Y-106556000D02*
X116206000Y-106556000D01*
X119648000Y-106556000D02*
X118982000Y-106556000D01*
X119648000Y-101216000D02*
X118982000Y-101216000D01*
G04 #@! TO.C,D3*
X114625000Y-83128000D02*
X114625000Y-85418000D01*
X116095000Y-90858000D02*
X116095000Y-85418000D01*
X113155000Y-90858000D02*
X116095000Y-90858000D01*
X114625000Y-93148000D02*
X114625000Y-90858000D01*
X116095000Y-86318000D02*
X113155000Y-86318000D01*
X113155000Y-85418000D02*
X113155000Y-90858000D01*
X116095000Y-86438000D02*
X113155000Y-86438000D01*
X116095000Y-86198000D02*
X113155000Y-86198000D01*
X116095000Y-85418000D02*
X113155000Y-85418000D01*
G04 #@! TO.C,D2*
X118435000Y-93148000D02*
X118435000Y-90858000D01*
X116965000Y-85418000D02*
X116965000Y-90858000D01*
X119905000Y-85418000D02*
X116965000Y-85418000D01*
X118435000Y-83128000D02*
X118435000Y-85418000D01*
X116965000Y-89958000D02*
X119905000Y-89958000D01*
X119905000Y-90858000D02*
X119905000Y-85418000D01*
X116965000Y-89838000D02*
X119905000Y-89838000D01*
X116965000Y-90078000D02*
X119905000Y-90078000D01*
X116965000Y-90858000D02*
X119905000Y-90858000D01*
G04 #@! TO.C,R25*
X132535436Y-75411000D02*
X132989564Y-75411000D01*
X132535436Y-73941000D02*
X132989564Y-73941000D01*
G04 #@! TO.C,JP1*
X131513000Y-66757000D02*
X134173000Y-66757000D01*
X131513000Y-64157000D02*
X132843000Y-64157000D01*
X134173000Y-66757000D02*
X134173000Y-71897000D01*
X131513000Y-65487000D02*
X131513000Y-64157000D01*
X131513000Y-66757000D02*
X131513000Y-71897000D01*
X131513000Y-71897000D02*
X134173000Y-71897000D01*
G04 #@! TO.C,J8*
X138913500Y-66802000D02*
X138913500Y-69402000D01*
X136253500Y-64202000D02*
X137583500Y-64202000D01*
X136253500Y-66802000D02*
X138913500Y-66802000D01*
X136253500Y-66802000D02*
X136253500Y-69402000D01*
X136253500Y-69402000D02*
X138913500Y-69402000D01*
X136253500Y-65532000D02*
X136253500Y-64202000D01*
G04 #@! TO.C,D1*
X138548500Y-74660000D02*
X138548500Y-71975000D01*
X138548500Y-71975000D02*
X136628500Y-71975000D01*
X136628500Y-71975000D02*
X136628500Y-74660000D01*
G04 #@! TO.C,U5*
X138737000Y-77430000D02*
X138737000Y-87670000D01*
X140247000Y-87670000D02*
X135606000Y-87670000D01*
X135606000Y-77430000D02*
X135606000Y-87670000D01*
X140247000Y-77430000D02*
X135606000Y-77430000D01*
X140247000Y-84401000D02*
X138737000Y-84401000D01*
X140247000Y-80700000D02*
X138737000Y-80700000D01*
X140247000Y-77430000D02*
X140247000Y-87670000D01*
G04 #@! TO.C,U4*
X131899000Y-105289000D02*
X130799000Y-105289000D01*
X131899000Y-105559000D02*
X131899000Y-105289000D01*
X138319000Y-105559000D02*
X131899000Y-105559000D01*
X131899000Y-98929000D02*
X129069000Y-98929000D01*
X131899000Y-98659000D02*
X131899000Y-98929000D01*
X138319000Y-98659000D02*
X131899000Y-98659000D01*
G04 #@! TO.C,U3*
X131899000Y-96398000D02*
X130799000Y-96398000D01*
X131899000Y-96668000D02*
X131899000Y-96398000D01*
X138319000Y-96668000D02*
X131899000Y-96668000D01*
X131899000Y-90038000D02*
X129069000Y-90038000D01*
X131899000Y-89768000D02*
X131899000Y-90038000D01*
X138319000Y-89768000D02*
X131899000Y-89768000D01*
G04 #@! TO.C,U2*
X108474000Y-62424000D02*
X106239000Y-62424000D01*
X106239000Y-62424000D02*
X106239000Y-72704000D01*
X112709000Y-72704000D02*
X112709000Y-62424000D01*
X112709000Y-62424000D02*
X110474000Y-62424000D01*
X106239000Y-72704000D02*
X112709000Y-72704000D01*
X108474000Y-62424000D02*
G75*
G03*
X110474000Y-62424000I1000000J0D01*
G01*
G04 #@! TO.C,U1*
X119650000Y-49978000D02*
X117415000Y-49978000D01*
X117415000Y-49978000D02*
X117415000Y-60258000D01*
X123885000Y-60258000D02*
X123885000Y-49978000D01*
X123885000Y-49978000D02*
X121650000Y-49978000D01*
X117415000Y-60258000D02*
X123885000Y-60258000D01*
X119650000Y-49978000D02*
G75*
G03*
X121650000Y-49978000I1000000J0D01*
G01*
G04 #@! TO.C,R24*
X118899000Y-71196564D02*
X118899000Y-70742436D01*
X120369000Y-71196564D02*
X120369000Y-70742436D01*
G04 #@! TO.C,R23*
X123671000Y-70742436D02*
X123671000Y-71196564D01*
X122201000Y-70742436D02*
X122201000Y-71196564D01*
G04 #@! TO.C,R22*
X104875000Y-56160936D02*
X104875000Y-56615064D01*
X103405000Y-56160936D02*
X103405000Y-56615064D01*
G04 #@! TO.C,R21*
X105533564Y-60679000D02*
X105079436Y-60679000D01*
X105533564Y-59209000D02*
X105079436Y-59209000D01*
G04 #@! TO.C,R20*
X126973000Y-66424436D02*
X126973000Y-66878564D01*
X125503000Y-66424436D02*
X125503000Y-66878564D01*
G04 #@! TO.C,R19*
X126973000Y-62764936D02*
X126973000Y-63219064D01*
X125503000Y-62764936D02*
X125503000Y-63219064D01*
G04 #@! TO.C,R18*
X120369000Y-66424436D02*
X120369000Y-66878564D01*
X118899000Y-66424436D02*
X118899000Y-66878564D01*
G04 #@! TO.C,R17*
X120369000Y-62764936D02*
X120369000Y-63219064D01*
X118899000Y-62764936D02*
X118899000Y-63219064D01*
G04 #@! TO.C,R16*
X122201000Y-63219064D02*
X122201000Y-62764936D01*
X123671000Y-63219064D02*
X123671000Y-62764936D01*
G04 #@! TO.C,R15*
X123671000Y-66424436D02*
X123671000Y-66878564D01*
X122201000Y-66424436D02*
X122201000Y-66878564D01*
G04 #@! TO.C,R14*
X135355000Y-54890936D02*
X135355000Y-55345064D01*
X133885000Y-54890936D02*
X133885000Y-55345064D01*
G04 #@! TO.C,R13*
X108177000Y-54128936D02*
X108177000Y-54583064D01*
X106707000Y-54128936D02*
X106707000Y-54583064D01*
G04 #@! TO.C,R12*
X132815000Y-46254936D02*
X132815000Y-46709064D01*
X131345000Y-46254936D02*
X131345000Y-46709064D01*
G04 #@! TO.C,R11*
X126211000Y-46358436D02*
X126211000Y-46812564D01*
X124741000Y-46358436D02*
X124741000Y-46812564D01*
G04 #@! TO.C,R10*
X113765000Y-46508936D02*
X113765000Y-46963064D01*
X112295000Y-46508936D02*
X112295000Y-46963064D01*
G04 #@! TO.C,R9*
X106907000Y-46508936D02*
X106907000Y-46963064D01*
X105437000Y-46508936D02*
X105437000Y-46963064D01*
G04 #@! TO.C,R8*
X130075000Y-55345064D02*
X130075000Y-54890936D01*
X131545000Y-55345064D02*
X131545000Y-54890936D01*
G04 #@! TO.C,R7*
X131545000Y-58700936D02*
X131545000Y-59155064D01*
X130075000Y-58700936D02*
X130075000Y-59155064D01*
G04 #@! TO.C,R6*
X136117000Y-46254936D02*
X136117000Y-46709064D01*
X134647000Y-46254936D02*
X134647000Y-46709064D01*
G04 #@! TO.C,R5*
X131394564Y-51281000D02*
X130940436Y-51281000D01*
X131394564Y-49811000D02*
X130940436Y-49811000D01*
G04 #@! TO.C,R4*
X111890436Y-56161000D02*
X112344564Y-56161000D01*
X111890436Y-57631000D02*
X112344564Y-57631000D01*
G04 #@! TO.C,R3*
X117067000Y-46612436D02*
X117067000Y-47066564D01*
X115597000Y-46612436D02*
X115597000Y-47066564D01*
G04 #@! TO.C,R2*
X111279000Y-53059064D02*
X111279000Y-52604936D01*
X112749000Y-53059064D02*
X112749000Y-52604936D01*
G04 #@! TO.C,R1*
X106603436Y-50065000D02*
X107057564Y-50065000D01*
X106603436Y-51535000D02*
X107057564Y-51535000D01*
G04 #@! TO.C,J7*
X118435000Y-112836000D02*
X126115000Y-112836000D01*
X115835000Y-112836000D02*
X115835000Y-111506000D01*
X118435000Y-112836000D02*
X118435000Y-110176000D01*
X126115000Y-112836000D02*
X126115000Y-110176000D01*
X117165000Y-112836000D02*
X115835000Y-112836000D01*
X118435000Y-110176000D02*
X126115000Y-110176000D01*
G04 #@! TO.C,J6*
X102048000Y-85598000D02*
X102048000Y-84268000D01*
X102048000Y-89468000D02*
X104708000Y-89468000D01*
X102048000Y-86868000D02*
X102048000Y-89468000D01*
X102048000Y-86868000D02*
X104708000Y-86868000D01*
X102048000Y-84268000D02*
X103378000Y-84268000D01*
X104708000Y-86868000D02*
X104708000Y-89468000D01*
G04 #@! TO.C,J5*
X102048000Y-77211000D02*
X102048000Y-75881000D01*
X102048000Y-81081000D02*
X104708000Y-81081000D01*
X102048000Y-78481000D02*
X102048000Y-81081000D01*
X102048000Y-78481000D02*
X104708000Y-78481000D01*
X102048000Y-75881000D02*
X103378000Y-75881000D01*
X104708000Y-78481000D02*
X104708000Y-81081000D01*
G04 #@! TO.C,J4*
X131172000Y-35270000D02*
X131172000Y-43470000D01*
X131672000Y-39370000D02*
X131172000Y-38870000D01*
X131172000Y-39870000D02*
X131672000Y-39370000D01*
X131172000Y-35270000D02*
X139372000Y-35270000D01*
X131172000Y-43470000D02*
X139372000Y-43470000D01*
X139372000Y-35270000D02*
X139372000Y-43470000D01*
G04 #@! TO.C,J3*
X121472000Y-35270000D02*
X121472000Y-43470000D01*
X121972000Y-39370000D02*
X121472000Y-38870000D01*
X121472000Y-39870000D02*
X121972000Y-39370000D01*
X121472000Y-35270000D02*
X129672000Y-35270000D01*
X121472000Y-43470000D02*
X129672000Y-43470000D01*
X129672000Y-35270000D02*
X129672000Y-43470000D01*
G04 #@! TO.C,J2*
X111772000Y-35270000D02*
X111772000Y-43470000D01*
X112272000Y-39370000D02*
X111772000Y-38870000D01*
X111772000Y-39870000D02*
X112272000Y-39370000D01*
X111772000Y-35270000D02*
X119972000Y-35270000D01*
X111772000Y-43470000D02*
X119972000Y-43470000D01*
X119972000Y-35270000D02*
X119972000Y-43470000D01*
G04 #@! TO.C,J1*
X102072000Y-35270000D02*
X102072000Y-43470000D01*
X102572000Y-39370000D02*
X102072000Y-38870000D01*
X102072000Y-39870000D02*
X102572000Y-39370000D01*
X102072000Y-35270000D02*
X110272000Y-35270000D01*
X102072000Y-43470000D02*
X110272000Y-43470000D01*
X110272000Y-35270000D02*
X110272000Y-43470000D01*
G04 #@! TO.C,C12*
X133247000Y-86315112D02*
G75*
G03*
X133247000Y-86315112I-2620000J0D01*
G01*
X128763000Y-84514112D02*
X129587000Y-84514112D01*
X131667000Y-84354112D02*
X132326000Y-84354112D01*
X128159000Y-85554112D02*
X129587000Y-85554112D01*
X129022000Y-84274112D02*
X129587000Y-84274112D01*
X131667000Y-85875112D02*
X133170000Y-85875112D01*
X128726000Y-84554112D02*
X129587000Y-84554112D01*
X131667000Y-84194112D02*
X132127000Y-84194112D01*
X128062000Y-86035112D02*
X129587000Y-86035112D01*
X131667000Y-84634112D02*
X132598000Y-84634112D01*
X129712000Y-83874112D02*
X131542000Y-83874112D01*
X131667000Y-84234112D02*
X132181000Y-84234112D01*
X128317000Y-85154112D02*
X129587000Y-85154112D01*
X129073000Y-84234112D02*
X129587000Y-84234112D01*
X128359000Y-85074112D02*
X129587000Y-85074112D01*
X131667000Y-85114112D02*
X132917000Y-85114112D01*
X131667000Y-85995112D02*
X133188000Y-85995112D01*
X131667000Y-84794112D02*
X132722000Y-84794112D01*
X128136000Y-85635112D02*
X129587000Y-85635112D01*
X128656000Y-84634112D02*
X129587000Y-84634112D01*
X128279000Y-85234112D02*
X129587000Y-85234112D01*
X128902000Y-88869887D02*
X129402000Y-88869887D01*
X131667000Y-85394112D02*
X133041000Y-85394112D01*
X131667000Y-84954112D02*
X132827000Y-84954112D01*
X128505000Y-84834112D02*
X129587000Y-84834112D01*
X129449000Y-83994112D02*
X131805000Y-83994112D01*
X129127000Y-84194112D02*
X129587000Y-84194112D01*
X128623000Y-84674112D02*
X129587000Y-84674112D01*
X131667000Y-85314112D02*
X133009000Y-85314112D01*
X129616000Y-83914112D02*
X131638000Y-83914112D01*
X128199000Y-85434112D02*
X129587000Y-85434112D01*
X130343000Y-83714112D02*
X130911000Y-83714112D01*
X131667000Y-86035112D02*
X133192000Y-86035112D01*
X131667000Y-85434112D02*
X133055000Y-85434112D01*
X129376000Y-84034112D02*
X129587000Y-84034112D01*
X129822000Y-83834112D02*
X131432000Y-83834112D01*
X131667000Y-84274112D02*
X132232000Y-84274112D01*
X129152000Y-89119887D02*
X129152000Y-88619887D01*
X128229000Y-85354112D02*
X129587000Y-85354112D01*
X131667000Y-84994112D02*
X132851000Y-84994112D01*
X131667000Y-85514112D02*
X133082000Y-85514112D01*
X131667000Y-84554112D02*
X132528000Y-84554112D01*
X131667000Y-85034112D02*
X132874000Y-85034112D01*
X131667000Y-84754112D02*
X132692000Y-84754112D01*
X131667000Y-85474112D02*
X133069000Y-85474112D01*
X131667000Y-84594112D02*
X132564000Y-84594112D01*
X128071000Y-85955112D02*
X129587000Y-85955112D01*
X128974000Y-84314112D02*
X129587000Y-84314112D01*
X131667000Y-85274112D02*
X132992000Y-85274112D01*
X128562000Y-84754112D02*
X129587000Y-84754112D01*
X128337000Y-85114112D02*
X129587000Y-85114112D01*
X131667000Y-84434112D02*
X132412000Y-84434112D01*
X131667000Y-85715112D02*
X133138000Y-85715112D01*
X128058000Y-86075112D02*
X129587000Y-86075112D01*
X128054000Y-86115112D02*
X133200000Y-86115112D01*
X128049000Y-86195112D02*
X133205000Y-86195112D01*
X131667000Y-85354112D02*
X133025000Y-85354112D01*
X131667000Y-84914112D02*
X132802000Y-84914112D01*
X128077000Y-85915112D02*
X129587000Y-85915112D01*
X128107000Y-85755112D02*
X129587000Y-85755112D01*
X128185000Y-85474112D02*
X129587000Y-85474112D01*
X131667000Y-85915112D02*
X133177000Y-85915112D01*
X128801000Y-84474112D02*
X129587000Y-84474112D01*
X131667000Y-84714112D02*
X132662000Y-84714112D01*
X128427000Y-84954112D02*
X129587000Y-84954112D01*
X128066000Y-85995112D02*
X129587000Y-85995112D01*
X128126000Y-85675112D02*
X129587000Y-85675112D01*
X131667000Y-84314112D02*
X132280000Y-84314112D01*
X128262000Y-85274112D02*
X129587000Y-85274112D01*
X128047000Y-86275112D02*
X133207000Y-86275112D01*
X128099000Y-85795112D02*
X129587000Y-85795112D01*
X131667000Y-85675112D02*
X133128000Y-85675112D01*
X128245000Y-85314112D02*
X129587000Y-85314112D01*
X131667000Y-85074112D02*
X132895000Y-85074112D01*
X128532000Y-84794112D02*
X129587000Y-84794112D01*
X128051000Y-86155112D02*
X133203000Y-86155112D01*
X128084000Y-85875112D02*
X129587000Y-85875112D01*
X131667000Y-85795112D02*
X133155000Y-85795112D01*
X131667000Y-86075112D02*
X133196000Y-86075112D01*
X128884000Y-84394112D02*
X129587000Y-84394112D01*
X129529000Y-83954112D02*
X131725000Y-83954112D01*
X128116000Y-85715112D02*
X129587000Y-85715112D01*
X131667000Y-84114112D02*
X132010000Y-84114112D01*
X131667000Y-85955112D02*
X133183000Y-85955112D01*
X128298000Y-85194112D02*
X129587000Y-85194112D01*
X128478000Y-84874112D02*
X129587000Y-84874112D01*
X128690000Y-84594112D02*
X129587000Y-84594112D01*
X131667000Y-84154112D02*
X132070000Y-84154112D01*
X128842000Y-84434112D02*
X129587000Y-84434112D01*
X131667000Y-85554112D02*
X133095000Y-85554112D01*
X128452000Y-84914112D02*
X129587000Y-84914112D01*
X129950000Y-83794112D02*
X131304000Y-83794112D01*
X131667000Y-85635112D02*
X133118000Y-85635112D01*
X128213000Y-85394112D02*
X129587000Y-85394112D01*
X128147000Y-85594112D02*
X129587000Y-85594112D01*
X128091000Y-85835112D02*
X129587000Y-85835112D01*
X131667000Y-85755112D02*
X133147000Y-85755112D01*
X131667000Y-84514112D02*
X132491000Y-84514112D01*
X131667000Y-84034112D02*
X131878000Y-84034112D01*
X131667000Y-84074112D02*
X131946000Y-84074112D01*
X131667000Y-84674112D02*
X132631000Y-84674112D01*
X131667000Y-84394112D02*
X132370000Y-84394112D01*
X131667000Y-85194112D02*
X132956000Y-85194112D01*
X128403000Y-84994112D02*
X129587000Y-84994112D01*
X128172000Y-85514112D02*
X129587000Y-85514112D01*
X130109000Y-83754112D02*
X131145000Y-83754112D01*
X128592000Y-84714112D02*
X129587000Y-84714112D01*
X128048000Y-86235112D02*
X133206000Y-86235112D01*
X129184000Y-84154112D02*
X129587000Y-84154112D01*
X131667000Y-84834112D02*
X132749000Y-84834112D01*
X131667000Y-85594112D02*
X133107000Y-85594112D01*
X131667000Y-84874112D02*
X132776000Y-84874112D01*
X131667000Y-84474112D02*
X132453000Y-84474112D01*
X131667000Y-85154112D02*
X132937000Y-85154112D01*
X128047000Y-86315112D02*
X133207000Y-86315112D01*
X128380000Y-85034112D02*
X129587000Y-85034112D01*
X131667000Y-85835112D02*
X133163000Y-85835112D01*
X129244000Y-84114112D02*
X129587000Y-84114112D01*
X129308000Y-84074112D02*
X129587000Y-84074112D01*
X128928000Y-84354112D02*
X129587000Y-84354112D01*
X131667000Y-85234112D02*
X132975000Y-85234112D01*
G04 #@! TO.C,C11*
X133247000Y-80562888D02*
G75*
G03*
X133247000Y-80562888I-2620000J0D01*
G01*
X132491000Y-82363888D02*
X131667000Y-82363888D01*
X129587000Y-82523888D02*
X128928000Y-82523888D01*
X133095000Y-81323888D02*
X131667000Y-81323888D01*
X132232000Y-82603888D02*
X131667000Y-82603888D01*
X129587000Y-81002888D02*
X128084000Y-81002888D01*
X132528000Y-82323888D02*
X131667000Y-82323888D01*
X129587000Y-82683888D02*
X129127000Y-82683888D01*
X133192000Y-80842888D02*
X131667000Y-80842888D01*
X129587000Y-82243888D02*
X128656000Y-82243888D01*
X131542000Y-83003888D02*
X129712000Y-83003888D01*
X129587000Y-82643888D02*
X129073000Y-82643888D01*
X132937000Y-81723888D02*
X131667000Y-81723888D01*
X132181000Y-82643888D02*
X131667000Y-82643888D01*
X132895000Y-81803888D02*
X131667000Y-81803888D01*
X129587000Y-81763888D02*
X128337000Y-81763888D01*
X129587000Y-80882888D02*
X128066000Y-80882888D01*
X129587000Y-82083888D02*
X128532000Y-82083888D01*
X133118000Y-81242888D02*
X131667000Y-81242888D01*
X132598000Y-82243888D02*
X131667000Y-82243888D01*
X132975000Y-81643888D02*
X131667000Y-81643888D01*
X132352000Y-78008113D02*
X131852000Y-78008113D01*
X129587000Y-81483888D02*
X128213000Y-81483888D01*
X129587000Y-81923888D02*
X128427000Y-81923888D01*
X132749000Y-82043888D02*
X131667000Y-82043888D01*
X131805000Y-82883888D02*
X129449000Y-82883888D01*
X132127000Y-82683888D02*
X131667000Y-82683888D01*
X132631000Y-82203888D02*
X131667000Y-82203888D01*
X129587000Y-81563888D02*
X128245000Y-81563888D01*
X131638000Y-82963888D02*
X129616000Y-82963888D01*
X133055000Y-81443888D02*
X131667000Y-81443888D01*
X130911000Y-83163888D02*
X130343000Y-83163888D01*
X129587000Y-80842888D02*
X128062000Y-80842888D01*
X129587000Y-81443888D02*
X128199000Y-81443888D01*
X131878000Y-82843888D02*
X131667000Y-82843888D01*
X131432000Y-83043888D02*
X129822000Y-83043888D01*
X129587000Y-82603888D02*
X129022000Y-82603888D01*
X132102000Y-77758113D02*
X132102000Y-78258113D01*
X133025000Y-81523888D02*
X131667000Y-81523888D01*
X129587000Y-81883888D02*
X128403000Y-81883888D01*
X129587000Y-81363888D02*
X128172000Y-81363888D01*
X129587000Y-82323888D02*
X128726000Y-82323888D01*
X129587000Y-81843888D02*
X128380000Y-81843888D01*
X129587000Y-82123888D02*
X128562000Y-82123888D01*
X129587000Y-81403888D02*
X128185000Y-81403888D01*
X129587000Y-82283888D02*
X128690000Y-82283888D01*
X133183000Y-80922888D02*
X131667000Y-80922888D01*
X132280000Y-82563888D02*
X131667000Y-82563888D01*
X129587000Y-81603888D02*
X128262000Y-81603888D01*
X132692000Y-82123888D02*
X131667000Y-82123888D01*
X132917000Y-81763888D02*
X131667000Y-81763888D01*
X129587000Y-82443888D02*
X128842000Y-82443888D01*
X129587000Y-81162888D02*
X128116000Y-81162888D01*
X133196000Y-80802888D02*
X131667000Y-80802888D01*
X133200000Y-80762888D02*
X128054000Y-80762888D01*
X133205000Y-80682888D02*
X128049000Y-80682888D01*
X129587000Y-81523888D02*
X128229000Y-81523888D01*
X129587000Y-81963888D02*
X128452000Y-81963888D01*
X133177000Y-80962888D02*
X131667000Y-80962888D01*
X133147000Y-81122888D02*
X131667000Y-81122888D01*
X133069000Y-81403888D02*
X131667000Y-81403888D01*
X129587000Y-80962888D02*
X128077000Y-80962888D01*
X132453000Y-82403888D02*
X131667000Y-82403888D01*
X129587000Y-82163888D02*
X128592000Y-82163888D01*
X132827000Y-81923888D02*
X131667000Y-81923888D01*
X133188000Y-80882888D02*
X131667000Y-80882888D01*
X133128000Y-81202888D02*
X131667000Y-81202888D01*
X129587000Y-82563888D02*
X128974000Y-82563888D01*
X132992000Y-81603888D02*
X131667000Y-81603888D01*
X133207000Y-80602888D02*
X128047000Y-80602888D01*
X133155000Y-81082888D02*
X131667000Y-81082888D01*
X129587000Y-81202888D02*
X128126000Y-81202888D01*
X133009000Y-81563888D02*
X131667000Y-81563888D01*
X129587000Y-81803888D02*
X128359000Y-81803888D01*
X132722000Y-82083888D02*
X131667000Y-82083888D01*
X133203000Y-80722888D02*
X128051000Y-80722888D01*
X133170000Y-81002888D02*
X131667000Y-81002888D01*
X129587000Y-81082888D02*
X128099000Y-81082888D01*
X129587000Y-80802888D02*
X128058000Y-80802888D01*
X132370000Y-82483888D02*
X131667000Y-82483888D01*
X131725000Y-82923888D02*
X129529000Y-82923888D01*
X133138000Y-81162888D02*
X131667000Y-81162888D01*
X129587000Y-82763888D02*
X129244000Y-82763888D01*
X129587000Y-80922888D02*
X128071000Y-80922888D01*
X132956000Y-81683888D02*
X131667000Y-81683888D01*
X132776000Y-82003888D02*
X131667000Y-82003888D01*
X132564000Y-82283888D02*
X131667000Y-82283888D01*
X129587000Y-82723888D02*
X129184000Y-82723888D01*
X132412000Y-82443888D02*
X131667000Y-82443888D01*
X129587000Y-81323888D02*
X128159000Y-81323888D01*
X132802000Y-81963888D02*
X131667000Y-81963888D01*
X131304000Y-83083888D02*
X129950000Y-83083888D01*
X129587000Y-81242888D02*
X128136000Y-81242888D01*
X133041000Y-81483888D02*
X131667000Y-81483888D01*
X133107000Y-81283888D02*
X131667000Y-81283888D01*
X133163000Y-81042888D02*
X131667000Y-81042888D01*
X129587000Y-81122888D02*
X128107000Y-81122888D01*
X129587000Y-82363888D02*
X128763000Y-82363888D01*
X129587000Y-82843888D02*
X129376000Y-82843888D01*
X129587000Y-82803888D02*
X129308000Y-82803888D01*
X129587000Y-82203888D02*
X128623000Y-82203888D01*
X129587000Y-82483888D02*
X128884000Y-82483888D01*
X129587000Y-81683888D02*
X128298000Y-81683888D01*
X132851000Y-81883888D02*
X131667000Y-81883888D01*
X133082000Y-81363888D02*
X131667000Y-81363888D01*
X131145000Y-83123888D02*
X130109000Y-83123888D01*
X132662000Y-82163888D02*
X131667000Y-82163888D01*
X133206000Y-80642888D02*
X128048000Y-80642888D01*
X132070000Y-82723888D02*
X131667000Y-82723888D01*
X129587000Y-82043888D02*
X128505000Y-82043888D01*
X129587000Y-81283888D02*
X128147000Y-81283888D01*
X129587000Y-82003888D02*
X128478000Y-82003888D01*
X129587000Y-82403888D02*
X128801000Y-82403888D01*
X129587000Y-81723888D02*
X128317000Y-81723888D01*
X133207000Y-80562888D02*
X128047000Y-80562888D01*
X132874000Y-81843888D02*
X131667000Y-81843888D01*
X129587000Y-81042888D02*
X128091000Y-81042888D01*
X132010000Y-82763888D02*
X131667000Y-82763888D01*
X131946000Y-82803888D02*
X131667000Y-82803888D01*
X132326000Y-82523888D02*
X131667000Y-82523888D01*
X129587000Y-81643888D02*
X128279000Y-81643888D01*
G04 #@! TO.C,C10*
X126090112Y-98806000D02*
G75*
G03*
X126090112Y-98806000I-2620000J0D01*
G01*
X121669112Y-100670000D02*
X121669112Y-99846000D01*
X121509112Y-97766000D02*
X121509112Y-97107000D01*
X122709112Y-101274000D02*
X122709112Y-99846000D01*
X121429112Y-100411000D02*
X121429112Y-99846000D01*
X123030112Y-97766000D02*
X123030112Y-96263000D01*
X121709112Y-100707000D02*
X121709112Y-99846000D01*
X121349112Y-97766000D02*
X121349112Y-97306000D01*
X123190112Y-101371000D02*
X123190112Y-99846000D01*
X121789112Y-97766000D02*
X121789112Y-96835000D01*
X121029112Y-99721000D02*
X121029112Y-97891000D01*
X121389112Y-97766000D02*
X121389112Y-97252000D01*
X122309112Y-101116000D02*
X122309112Y-99846000D01*
X121389112Y-100360000D02*
X121389112Y-99846000D01*
X122229112Y-101074000D02*
X122229112Y-99846000D01*
X122269112Y-97766000D02*
X122269112Y-96516000D01*
X123150112Y-97766000D02*
X123150112Y-96245000D01*
X121949112Y-97766000D02*
X121949112Y-96711000D01*
X122790112Y-101297000D02*
X122790112Y-99846000D01*
X121789112Y-100777000D02*
X121789112Y-99846000D01*
X122389112Y-101154000D02*
X122389112Y-99846000D01*
X126024887Y-100531000D02*
X126024887Y-100031000D01*
X122549112Y-97766000D02*
X122549112Y-96392000D01*
X122109112Y-97766000D02*
X122109112Y-96606000D01*
X121989112Y-100928000D02*
X121989112Y-99846000D01*
X121149112Y-99984000D02*
X121149112Y-97628000D01*
X121349112Y-100306000D02*
X121349112Y-99846000D01*
X121829112Y-100810000D02*
X121829112Y-99846000D01*
X122469112Y-97766000D02*
X122469112Y-96424000D01*
X121069112Y-99817000D02*
X121069112Y-97795000D01*
X122589112Y-101234000D02*
X122589112Y-99846000D01*
X120869112Y-99090000D02*
X120869112Y-98522000D01*
X123190112Y-97766000D02*
X123190112Y-96241000D01*
X122589112Y-97766000D02*
X122589112Y-96378000D01*
X121189112Y-100057000D02*
X121189112Y-99846000D01*
X120989112Y-99611000D02*
X120989112Y-98001000D01*
X121429112Y-97766000D02*
X121429112Y-97201000D01*
X126274887Y-100281000D02*
X125774887Y-100281000D01*
X122509112Y-101204000D02*
X122509112Y-99846000D01*
X122149112Y-97766000D02*
X122149112Y-96582000D01*
X122669112Y-97766000D02*
X122669112Y-96351000D01*
X121709112Y-97766000D02*
X121709112Y-96905000D01*
X122189112Y-97766000D02*
X122189112Y-96559000D01*
X121909112Y-97766000D02*
X121909112Y-96741000D01*
X122629112Y-97766000D02*
X122629112Y-96364000D01*
X121749112Y-97766000D02*
X121749112Y-96869000D01*
X123110112Y-101362000D02*
X123110112Y-99846000D01*
X121469112Y-100459000D02*
X121469112Y-99846000D01*
X122429112Y-97766000D02*
X122429112Y-96441000D01*
X121909112Y-100871000D02*
X121909112Y-99846000D01*
X122269112Y-101096000D02*
X122269112Y-99846000D01*
X121589112Y-97766000D02*
X121589112Y-97021000D01*
X122870112Y-97766000D02*
X122870112Y-96295000D01*
X123230112Y-101375000D02*
X123230112Y-99846000D01*
X123270112Y-101379000D02*
X123270112Y-96233000D01*
X123350112Y-101384000D02*
X123350112Y-96228000D01*
X122509112Y-97766000D02*
X122509112Y-96408000D01*
X122069112Y-97766000D02*
X122069112Y-96631000D01*
X123070112Y-101356000D02*
X123070112Y-99846000D01*
X122910112Y-101326000D02*
X122910112Y-99846000D01*
X122629112Y-101248000D02*
X122629112Y-99846000D01*
X123070112Y-97766000D02*
X123070112Y-96256000D01*
X121629112Y-100632000D02*
X121629112Y-99846000D01*
X121869112Y-97766000D02*
X121869112Y-96771000D01*
X122109112Y-101006000D02*
X122109112Y-99846000D01*
X123150112Y-101367000D02*
X123150112Y-99846000D01*
X122830112Y-101307000D02*
X122830112Y-99846000D01*
X121469112Y-97766000D02*
X121469112Y-97153000D01*
X122429112Y-101171000D02*
X122429112Y-99846000D01*
X123430112Y-101386000D02*
X123430112Y-96226000D01*
X122950112Y-101334000D02*
X122950112Y-99846000D01*
X122830112Y-97766000D02*
X122830112Y-96305000D01*
X122469112Y-101188000D02*
X122469112Y-99846000D01*
X122229112Y-97766000D02*
X122229112Y-96538000D01*
X121949112Y-100901000D02*
X121949112Y-99846000D01*
X123310112Y-101382000D02*
X123310112Y-96230000D01*
X123030112Y-101349000D02*
X123030112Y-99846000D01*
X122950112Y-97766000D02*
X122950112Y-96278000D01*
X123230112Y-97766000D02*
X123230112Y-96237000D01*
X121549112Y-100549000D02*
X121549112Y-99846000D01*
X121109112Y-99904000D02*
X121109112Y-97708000D01*
X122870112Y-101317000D02*
X122870112Y-99846000D01*
X121269112Y-97766000D02*
X121269112Y-97423000D01*
X123110112Y-97766000D02*
X123110112Y-96250000D01*
X122349112Y-101135000D02*
X122349112Y-99846000D01*
X122029112Y-100955000D02*
X122029112Y-99846000D01*
X121749112Y-100743000D02*
X121749112Y-99846000D01*
X121309112Y-97766000D02*
X121309112Y-97363000D01*
X121589112Y-100591000D02*
X121589112Y-99846000D01*
X122709112Y-97766000D02*
X122709112Y-96338000D01*
X122069112Y-100981000D02*
X122069112Y-99846000D01*
X120949112Y-99483000D02*
X120949112Y-98129000D01*
X122790112Y-97766000D02*
X122790112Y-96315000D01*
X122549112Y-101220000D02*
X122549112Y-99846000D01*
X122749112Y-101286000D02*
X122749112Y-99846000D01*
X122990112Y-101342000D02*
X122990112Y-99846000D01*
X122910112Y-97766000D02*
X122910112Y-96286000D01*
X121669112Y-97766000D02*
X121669112Y-96942000D01*
X121189112Y-97766000D02*
X121189112Y-97555000D01*
X121229112Y-97766000D02*
X121229112Y-97487000D01*
X121829112Y-97766000D02*
X121829112Y-96802000D01*
X121549112Y-97766000D02*
X121549112Y-97063000D01*
X122349112Y-97766000D02*
X122349112Y-96477000D01*
X122149112Y-101030000D02*
X122149112Y-99846000D01*
X122669112Y-101261000D02*
X122669112Y-99846000D01*
X120909112Y-99324000D02*
X120909112Y-98288000D01*
X121869112Y-100841000D02*
X121869112Y-99846000D01*
X123390112Y-101385000D02*
X123390112Y-96227000D01*
X121309112Y-100249000D02*
X121309112Y-99846000D01*
X121989112Y-97766000D02*
X121989112Y-96684000D01*
X122749112Y-97766000D02*
X122749112Y-96326000D01*
X122029112Y-97766000D02*
X122029112Y-96657000D01*
X121629112Y-97766000D02*
X121629112Y-96980000D01*
X122309112Y-97766000D02*
X122309112Y-96496000D01*
X123470112Y-101386000D02*
X123470112Y-96226000D01*
X122189112Y-101053000D02*
X122189112Y-99846000D01*
X122990112Y-97766000D02*
X122990112Y-96270000D01*
X121269112Y-100189000D02*
X121269112Y-99846000D01*
X121229112Y-100125000D02*
X121229112Y-99846000D01*
X121509112Y-100505000D02*
X121509112Y-99846000D01*
X122389112Y-97766000D02*
X122389112Y-96458000D01*
G04 #@! TO.C,C9*
X122414000Y-103862000D02*
X122414000Y-102554000D01*
X121534000Y-106601000D02*
X121534000Y-105942000D01*
X121254000Y-106221000D02*
X121254000Y-105942000D01*
X121294000Y-106285000D02*
X121294000Y-105942000D01*
X123015000Y-103862000D02*
X123015000Y-102366000D01*
X122214000Y-107149000D02*
X122214000Y-105942000D01*
X123495000Y-107482000D02*
X123495000Y-102322000D01*
X122334000Y-103862000D02*
X122334000Y-102592000D01*
X121654000Y-103862000D02*
X121654000Y-103076000D01*
X122054000Y-103862000D02*
X122054000Y-102753000D01*
X122774000Y-103862000D02*
X122774000Y-102422000D01*
X122014000Y-103862000D02*
X122014000Y-102780000D01*
X121334000Y-106345000D02*
X121334000Y-105942000D01*
X123415000Y-107481000D02*
X123415000Y-102323000D01*
X121894000Y-106937000D02*
X121894000Y-105942000D01*
X120934000Y-105420000D02*
X120934000Y-104384000D01*
X122694000Y-107357000D02*
X122694000Y-105942000D01*
X122174000Y-107126000D02*
X122174000Y-105942000D01*
X122374000Y-103862000D02*
X122374000Y-102573000D01*
X121574000Y-103862000D02*
X121574000Y-103159000D01*
X121854000Y-103862000D02*
X121854000Y-102898000D01*
X121254000Y-103862000D02*
X121254000Y-103583000D01*
X121214000Y-103862000D02*
X121214000Y-103651000D01*
X121694000Y-103862000D02*
X121694000Y-103038000D01*
X122935000Y-103862000D02*
X122935000Y-102382000D01*
X123015000Y-107438000D02*
X123015000Y-105942000D01*
X122774000Y-107382000D02*
X122774000Y-105942000D01*
X122574000Y-107316000D02*
X122574000Y-105942000D01*
X122815000Y-103862000D02*
X122815000Y-102411000D01*
X120974000Y-105579000D02*
X120974000Y-104225000D01*
X122094000Y-107077000D02*
X122094000Y-105942000D01*
X122734000Y-103862000D02*
X122734000Y-102434000D01*
X121614000Y-106687000D02*
X121614000Y-105942000D01*
X121334000Y-103862000D02*
X121334000Y-103459000D01*
X121774000Y-106839000D02*
X121774000Y-105942000D01*
X122054000Y-107051000D02*
X122054000Y-105942000D01*
X122374000Y-107231000D02*
X122374000Y-105942000D01*
X123135000Y-103862000D02*
X123135000Y-102346000D01*
X121294000Y-103862000D02*
X121294000Y-103519000D01*
X122895000Y-107413000D02*
X122895000Y-105942000D01*
X121134000Y-106000000D02*
X121134000Y-103804000D01*
X121574000Y-106645000D02*
X121574000Y-105942000D01*
X123255000Y-103862000D02*
X123255000Y-102333000D01*
X122975000Y-103862000D02*
X122975000Y-102374000D01*
X123055000Y-107445000D02*
X123055000Y-105942000D01*
X123335000Y-107478000D02*
X123335000Y-102326000D01*
X121974000Y-106997000D02*
X121974000Y-105942000D01*
X122254000Y-103862000D02*
X122254000Y-102634000D01*
X122494000Y-107284000D02*
X122494000Y-105942000D01*
X122855000Y-103862000D02*
X122855000Y-102401000D01*
X122975000Y-107430000D02*
X122975000Y-105942000D01*
X123455000Y-107482000D02*
X123455000Y-102322000D01*
X122454000Y-107267000D02*
X122454000Y-105942000D01*
X121494000Y-103862000D02*
X121494000Y-103249000D01*
X122855000Y-107403000D02*
X122855000Y-105942000D01*
X123175000Y-107463000D02*
X123175000Y-105942000D01*
X122134000Y-107102000D02*
X122134000Y-105942000D01*
X121894000Y-103862000D02*
X121894000Y-102867000D01*
X121654000Y-106728000D02*
X121654000Y-105942000D01*
X123095000Y-103862000D02*
X123095000Y-102352000D01*
X122654000Y-107344000D02*
X122654000Y-105942000D01*
X122935000Y-107422000D02*
X122935000Y-105942000D01*
X123095000Y-107452000D02*
X123095000Y-105942000D01*
X122094000Y-103862000D02*
X122094000Y-102727000D01*
X122534000Y-103862000D02*
X122534000Y-102504000D01*
X123375000Y-107480000D02*
X123375000Y-102324000D01*
X123295000Y-107475000D02*
X123295000Y-102329000D01*
X123255000Y-107471000D02*
X123255000Y-105942000D01*
X122895000Y-103862000D02*
X122895000Y-102391000D01*
X121614000Y-103862000D02*
X121614000Y-103117000D01*
X122294000Y-107192000D02*
X122294000Y-105942000D01*
X121934000Y-106967000D02*
X121934000Y-105942000D01*
X122454000Y-103862000D02*
X122454000Y-102537000D01*
X121494000Y-106555000D02*
X121494000Y-105942000D01*
X123135000Y-107458000D02*
X123135000Y-105942000D01*
X121774000Y-103862000D02*
X121774000Y-102965000D01*
X122654000Y-103862000D02*
X122654000Y-102460000D01*
X121934000Y-103862000D02*
X121934000Y-102837000D01*
X122214000Y-103862000D02*
X122214000Y-102655000D01*
X121734000Y-103862000D02*
X121734000Y-103001000D01*
X122694000Y-103862000D02*
X122694000Y-102447000D01*
X122174000Y-103862000D02*
X122174000Y-102678000D01*
X122534000Y-107300000D02*
X122534000Y-105942000D01*
X126299775Y-106377000D02*
X125799775Y-106377000D01*
X121454000Y-103862000D02*
X121454000Y-103297000D01*
X121014000Y-105707000D02*
X121014000Y-104097000D01*
X121214000Y-106153000D02*
X121214000Y-105942000D01*
X122614000Y-103862000D02*
X122614000Y-102474000D01*
X123215000Y-103862000D02*
X123215000Y-102337000D01*
X120894000Y-105186000D02*
X120894000Y-104618000D01*
X122614000Y-107330000D02*
X122614000Y-105942000D01*
X121094000Y-105913000D02*
X121094000Y-103891000D01*
X122494000Y-103862000D02*
X122494000Y-102520000D01*
X121854000Y-106906000D02*
X121854000Y-105942000D01*
X121374000Y-106402000D02*
X121374000Y-105942000D01*
X121174000Y-106080000D02*
X121174000Y-103724000D01*
X122014000Y-107024000D02*
X122014000Y-105942000D01*
X122134000Y-103862000D02*
X122134000Y-102702000D01*
X122574000Y-103862000D02*
X122574000Y-102488000D01*
X126049775Y-106627000D02*
X126049775Y-106127000D01*
X122414000Y-107250000D02*
X122414000Y-105942000D01*
X121814000Y-106873000D02*
X121814000Y-105942000D01*
X122815000Y-107393000D02*
X122815000Y-105942000D01*
X121974000Y-103862000D02*
X121974000Y-102807000D01*
X123175000Y-103862000D02*
X123175000Y-102341000D01*
X122294000Y-103862000D02*
X122294000Y-102612000D01*
X122254000Y-107170000D02*
X122254000Y-105942000D01*
X121414000Y-106456000D02*
X121414000Y-105942000D01*
X122334000Y-107212000D02*
X122334000Y-105942000D01*
X121414000Y-103862000D02*
X121414000Y-103348000D01*
X121054000Y-105817000D02*
X121054000Y-103987000D01*
X121814000Y-103862000D02*
X121814000Y-102931000D01*
X123215000Y-107467000D02*
X123215000Y-105942000D01*
X121374000Y-103862000D02*
X121374000Y-103402000D01*
X121734000Y-106803000D02*
X121734000Y-105942000D01*
X123055000Y-103862000D02*
X123055000Y-102359000D01*
X121454000Y-106507000D02*
X121454000Y-105942000D01*
X122734000Y-107370000D02*
X122734000Y-105942000D01*
X121534000Y-103862000D02*
X121534000Y-103203000D01*
X121694000Y-106766000D02*
X121694000Y-105942000D01*
X126115000Y-104902000D02*
G75*
G03*
X126115000Y-104902000I-2620000J0D01*
G01*
G04 #@! TO.C,C8*
X122389112Y-85574000D02*
X122389112Y-84266000D01*
X121509112Y-88313000D02*
X121509112Y-87654000D01*
X121229112Y-87933000D02*
X121229112Y-87654000D01*
X121269112Y-87997000D02*
X121269112Y-87654000D01*
X122990112Y-85574000D02*
X122990112Y-84078000D01*
X122189112Y-88861000D02*
X122189112Y-87654000D01*
X123470112Y-89194000D02*
X123470112Y-84034000D01*
X122309112Y-85574000D02*
X122309112Y-84304000D01*
X121629112Y-85574000D02*
X121629112Y-84788000D01*
X122029112Y-85574000D02*
X122029112Y-84465000D01*
X122749112Y-85574000D02*
X122749112Y-84134000D01*
X121989112Y-85574000D02*
X121989112Y-84492000D01*
X121309112Y-88057000D02*
X121309112Y-87654000D01*
X123390112Y-89193000D02*
X123390112Y-84035000D01*
X121869112Y-88649000D02*
X121869112Y-87654000D01*
X120909112Y-87132000D02*
X120909112Y-86096000D01*
X122669112Y-89069000D02*
X122669112Y-87654000D01*
X122149112Y-88838000D02*
X122149112Y-87654000D01*
X122349112Y-85574000D02*
X122349112Y-84285000D01*
X121549112Y-85574000D02*
X121549112Y-84871000D01*
X121829112Y-85574000D02*
X121829112Y-84610000D01*
X121229112Y-85574000D02*
X121229112Y-85295000D01*
X121189112Y-85574000D02*
X121189112Y-85363000D01*
X121669112Y-85574000D02*
X121669112Y-84750000D01*
X122910112Y-85574000D02*
X122910112Y-84094000D01*
X122990112Y-89150000D02*
X122990112Y-87654000D01*
X122749112Y-89094000D02*
X122749112Y-87654000D01*
X122549112Y-89028000D02*
X122549112Y-87654000D01*
X122790112Y-85574000D02*
X122790112Y-84123000D01*
X120949112Y-87291000D02*
X120949112Y-85937000D01*
X122069112Y-88789000D02*
X122069112Y-87654000D01*
X122709112Y-85574000D02*
X122709112Y-84146000D01*
X121589112Y-88399000D02*
X121589112Y-87654000D01*
X121309112Y-85574000D02*
X121309112Y-85171000D01*
X121749112Y-88551000D02*
X121749112Y-87654000D01*
X122029112Y-88763000D02*
X122029112Y-87654000D01*
X122349112Y-88943000D02*
X122349112Y-87654000D01*
X123110112Y-85574000D02*
X123110112Y-84058000D01*
X121269112Y-85574000D02*
X121269112Y-85231000D01*
X122870112Y-89125000D02*
X122870112Y-87654000D01*
X121109112Y-87712000D02*
X121109112Y-85516000D01*
X121549112Y-88357000D02*
X121549112Y-87654000D01*
X123230112Y-85574000D02*
X123230112Y-84045000D01*
X122950112Y-85574000D02*
X122950112Y-84086000D01*
X123030112Y-89157000D02*
X123030112Y-87654000D01*
X123310112Y-89190000D02*
X123310112Y-84038000D01*
X121949112Y-88709000D02*
X121949112Y-87654000D01*
X122229112Y-85574000D02*
X122229112Y-84346000D01*
X122469112Y-88996000D02*
X122469112Y-87654000D01*
X122830112Y-85574000D02*
X122830112Y-84113000D01*
X122950112Y-89142000D02*
X122950112Y-87654000D01*
X123430112Y-89194000D02*
X123430112Y-84034000D01*
X122429112Y-88979000D02*
X122429112Y-87654000D01*
X121469112Y-85574000D02*
X121469112Y-84961000D01*
X122830112Y-89115000D02*
X122830112Y-87654000D01*
X123150112Y-89175000D02*
X123150112Y-87654000D01*
X122109112Y-88814000D02*
X122109112Y-87654000D01*
X121869112Y-85574000D02*
X121869112Y-84579000D01*
X121629112Y-88440000D02*
X121629112Y-87654000D01*
X123070112Y-85574000D02*
X123070112Y-84064000D01*
X122629112Y-89056000D02*
X122629112Y-87654000D01*
X122910112Y-89134000D02*
X122910112Y-87654000D01*
X123070112Y-89164000D02*
X123070112Y-87654000D01*
X122069112Y-85574000D02*
X122069112Y-84439000D01*
X122509112Y-85574000D02*
X122509112Y-84216000D01*
X123350112Y-89192000D02*
X123350112Y-84036000D01*
X123270112Y-89187000D02*
X123270112Y-84041000D01*
X123230112Y-89183000D02*
X123230112Y-87654000D01*
X122870112Y-85574000D02*
X122870112Y-84103000D01*
X121589112Y-85574000D02*
X121589112Y-84829000D01*
X122269112Y-88904000D02*
X122269112Y-87654000D01*
X121909112Y-88679000D02*
X121909112Y-87654000D01*
X122429112Y-85574000D02*
X122429112Y-84249000D01*
X121469112Y-88267000D02*
X121469112Y-87654000D01*
X123110112Y-89170000D02*
X123110112Y-87654000D01*
X121749112Y-85574000D02*
X121749112Y-84677000D01*
X122629112Y-85574000D02*
X122629112Y-84172000D01*
X121909112Y-85574000D02*
X121909112Y-84549000D01*
X122189112Y-85574000D02*
X122189112Y-84367000D01*
X121709112Y-85574000D02*
X121709112Y-84713000D01*
X122669112Y-85574000D02*
X122669112Y-84159000D01*
X122149112Y-85574000D02*
X122149112Y-84390000D01*
X122509112Y-89012000D02*
X122509112Y-87654000D01*
X126274887Y-88089000D02*
X125774887Y-88089000D01*
X121429112Y-85574000D02*
X121429112Y-85009000D01*
X120989112Y-87419000D02*
X120989112Y-85809000D01*
X121189112Y-87865000D02*
X121189112Y-87654000D01*
X122589112Y-85574000D02*
X122589112Y-84186000D01*
X123190112Y-85574000D02*
X123190112Y-84049000D01*
X120869112Y-86898000D02*
X120869112Y-86330000D01*
X122589112Y-89042000D02*
X122589112Y-87654000D01*
X121069112Y-87625000D02*
X121069112Y-85603000D01*
X122469112Y-85574000D02*
X122469112Y-84232000D01*
X121829112Y-88618000D02*
X121829112Y-87654000D01*
X121349112Y-88114000D02*
X121349112Y-87654000D01*
X121149112Y-87792000D02*
X121149112Y-85436000D01*
X121989112Y-88736000D02*
X121989112Y-87654000D01*
X122109112Y-85574000D02*
X122109112Y-84414000D01*
X122549112Y-85574000D02*
X122549112Y-84200000D01*
X126024887Y-88339000D02*
X126024887Y-87839000D01*
X122389112Y-88962000D02*
X122389112Y-87654000D01*
X121789112Y-88585000D02*
X121789112Y-87654000D01*
X122790112Y-89105000D02*
X122790112Y-87654000D01*
X121949112Y-85574000D02*
X121949112Y-84519000D01*
X123150112Y-85574000D02*
X123150112Y-84053000D01*
X122269112Y-85574000D02*
X122269112Y-84324000D01*
X122229112Y-88882000D02*
X122229112Y-87654000D01*
X121389112Y-88168000D02*
X121389112Y-87654000D01*
X122309112Y-88924000D02*
X122309112Y-87654000D01*
X121389112Y-85574000D02*
X121389112Y-85060000D01*
X121029112Y-87529000D02*
X121029112Y-85699000D01*
X121789112Y-85574000D02*
X121789112Y-84643000D01*
X123190112Y-89179000D02*
X123190112Y-87654000D01*
X121349112Y-85574000D02*
X121349112Y-85114000D01*
X121709112Y-88515000D02*
X121709112Y-87654000D01*
X123030112Y-85574000D02*
X123030112Y-84071000D01*
X121429112Y-88219000D02*
X121429112Y-87654000D01*
X122709112Y-89082000D02*
X122709112Y-87654000D01*
X121509112Y-85574000D02*
X121509112Y-84915000D01*
X121669112Y-88478000D02*
X121669112Y-87654000D01*
X126090112Y-86614000D02*
G75*
G03*
X126090112Y-86614000I-2620000J0D01*
G01*
G04 #@! TO.C,C7*
X122454000Y-91924000D02*
X122454000Y-90616000D01*
X121574000Y-94663000D02*
X121574000Y-94004000D01*
X121294000Y-94283000D02*
X121294000Y-94004000D01*
X121334000Y-94347000D02*
X121334000Y-94004000D01*
X123055000Y-91924000D02*
X123055000Y-90428000D01*
X122254000Y-95211000D02*
X122254000Y-94004000D01*
X123535000Y-95544000D02*
X123535000Y-90384000D01*
X122374000Y-91924000D02*
X122374000Y-90654000D01*
X121694000Y-91924000D02*
X121694000Y-91138000D01*
X122094000Y-91924000D02*
X122094000Y-90815000D01*
X122814000Y-91924000D02*
X122814000Y-90484000D01*
X122054000Y-91924000D02*
X122054000Y-90842000D01*
X121374000Y-94407000D02*
X121374000Y-94004000D01*
X123455000Y-95543000D02*
X123455000Y-90385000D01*
X121934000Y-94999000D02*
X121934000Y-94004000D01*
X120974000Y-93482000D02*
X120974000Y-92446000D01*
X122734000Y-95419000D02*
X122734000Y-94004000D01*
X122214000Y-95188000D02*
X122214000Y-94004000D01*
X122414000Y-91924000D02*
X122414000Y-90635000D01*
X121614000Y-91924000D02*
X121614000Y-91221000D01*
X121894000Y-91924000D02*
X121894000Y-90960000D01*
X121294000Y-91924000D02*
X121294000Y-91645000D01*
X121254000Y-91924000D02*
X121254000Y-91713000D01*
X121734000Y-91924000D02*
X121734000Y-91100000D01*
X122975000Y-91924000D02*
X122975000Y-90444000D01*
X123055000Y-95500000D02*
X123055000Y-94004000D01*
X122814000Y-95444000D02*
X122814000Y-94004000D01*
X122614000Y-95378000D02*
X122614000Y-94004000D01*
X122855000Y-91924000D02*
X122855000Y-90473000D01*
X121014000Y-93641000D02*
X121014000Y-92287000D01*
X122134000Y-95139000D02*
X122134000Y-94004000D01*
X122774000Y-91924000D02*
X122774000Y-90496000D01*
X121654000Y-94749000D02*
X121654000Y-94004000D01*
X121374000Y-91924000D02*
X121374000Y-91521000D01*
X121814000Y-94901000D02*
X121814000Y-94004000D01*
X122094000Y-95113000D02*
X122094000Y-94004000D01*
X122414000Y-95293000D02*
X122414000Y-94004000D01*
X123175000Y-91924000D02*
X123175000Y-90408000D01*
X121334000Y-91924000D02*
X121334000Y-91581000D01*
X122935000Y-95475000D02*
X122935000Y-94004000D01*
X121174000Y-94062000D02*
X121174000Y-91866000D01*
X121614000Y-94707000D02*
X121614000Y-94004000D01*
X123295000Y-91924000D02*
X123295000Y-90395000D01*
X123015000Y-91924000D02*
X123015000Y-90436000D01*
X123095000Y-95507000D02*
X123095000Y-94004000D01*
X123375000Y-95540000D02*
X123375000Y-90388000D01*
X122014000Y-95059000D02*
X122014000Y-94004000D01*
X122294000Y-91924000D02*
X122294000Y-90696000D01*
X122534000Y-95346000D02*
X122534000Y-94004000D01*
X122895000Y-91924000D02*
X122895000Y-90463000D01*
X123015000Y-95492000D02*
X123015000Y-94004000D01*
X123495000Y-95544000D02*
X123495000Y-90384000D01*
X122494000Y-95329000D02*
X122494000Y-94004000D01*
X121534000Y-91924000D02*
X121534000Y-91311000D01*
X122895000Y-95465000D02*
X122895000Y-94004000D01*
X123215000Y-95525000D02*
X123215000Y-94004000D01*
X122174000Y-95164000D02*
X122174000Y-94004000D01*
X121934000Y-91924000D02*
X121934000Y-90929000D01*
X121694000Y-94790000D02*
X121694000Y-94004000D01*
X123135000Y-91924000D02*
X123135000Y-90414000D01*
X122694000Y-95406000D02*
X122694000Y-94004000D01*
X122975000Y-95484000D02*
X122975000Y-94004000D01*
X123135000Y-95514000D02*
X123135000Y-94004000D01*
X122134000Y-91924000D02*
X122134000Y-90789000D01*
X122574000Y-91924000D02*
X122574000Y-90566000D01*
X123415000Y-95542000D02*
X123415000Y-90386000D01*
X123335000Y-95537000D02*
X123335000Y-90391000D01*
X123295000Y-95533000D02*
X123295000Y-94004000D01*
X122935000Y-91924000D02*
X122935000Y-90453000D01*
X121654000Y-91924000D02*
X121654000Y-91179000D01*
X122334000Y-95254000D02*
X122334000Y-94004000D01*
X121974000Y-95029000D02*
X121974000Y-94004000D01*
X122494000Y-91924000D02*
X122494000Y-90599000D01*
X121534000Y-94617000D02*
X121534000Y-94004000D01*
X123175000Y-95520000D02*
X123175000Y-94004000D01*
X121814000Y-91924000D02*
X121814000Y-91027000D01*
X122694000Y-91924000D02*
X122694000Y-90522000D01*
X121974000Y-91924000D02*
X121974000Y-90899000D01*
X122254000Y-91924000D02*
X122254000Y-90717000D01*
X121774000Y-91924000D02*
X121774000Y-91063000D01*
X122734000Y-91924000D02*
X122734000Y-90509000D01*
X122214000Y-91924000D02*
X122214000Y-90740000D01*
X122574000Y-95362000D02*
X122574000Y-94004000D01*
X126339775Y-94439000D02*
X125839775Y-94439000D01*
X121494000Y-91924000D02*
X121494000Y-91359000D01*
X121054000Y-93769000D02*
X121054000Y-92159000D01*
X121254000Y-94215000D02*
X121254000Y-94004000D01*
X122654000Y-91924000D02*
X122654000Y-90536000D01*
X123255000Y-91924000D02*
X123255000Y-90399000D01*
X120934000Y-93248000D02*
X120934000Y-92680000D01*
X122654000Y-95392000D02*
X122654000Y-94004000D01*
X121134000Y-93975000D02*
X121134000Y-91953000D01*
X122534000Y-91924000D02*
X122534000Y-90582000D01*
X121894000Y-94968000D02*
X121894000Y-94004000D01*
X121414000Y-94464000D02*
X121414000Y-94004000D01*
X121214000Y-94142000D02*
X121214000Y-91786000D01*
X122054000Y-95086000D02*
X122054000Y-94004000D01*
X122174000Y-91924000D02*
X122174000Y-90764000D01*
X122614000Y-91924000D02*
X122614000Y-90550000D01*
X126089775Y-94689000D02*
X126089775Y-94189000D01*
X122454000Y-95312000D02*
X122454000Y-94004000D01*
X121854000Y-94935000D02*
X121854000Y-94004000D01*
X122855000Y-95455000D02*
X122855000Y-94004000D01*
X122014000Y-91924000D02*
X122014000Y-90869000D01*
X123215000Y-91924000D02*
X123215000Y-90403000D01*
X122334000Y-91924000D02*
X122334000Y-90674000D01*
X122294000Y-95232000D02*
X122294000Y-94004000D01*
X121454000Y-94518000D02*
X121454000Y-94004000D01*
X122374000Y-95274000D02*
X122374000Y-94004000D01*
X121454000Y-91924000D02*
X121454000Y-91410000D01*
X121094000Y-93879000D02*
X121094000Y-92049000D01*
X121854000Y-91924000D02*
X121854000Y-90993000D01*
X123255000Y-95529000D02*
X123255000Y-94004000D01*
X121414000Y-91924000D02*
X121414000Y-91464000D01*
X121774000Y-94865000D02*
X121774000Y-94004000D01*
X123095000Y-91924000D02*
X123095000Y-90421000D01*
X121494000Y-94569000D02*
X121494000Y-94004000D01*
X122774000Y-95432000D02*
X122774000Y-94004000D01*
X121574000Y-91924000D02*
X121574000Y-91265000D01*
X121734000Y-94828000D02*
X121734000Y-94004000D01*
X126155000Y-92964000D02*
G75*
G03*
X126155000Y-92964000I-2620000J0D01*
G01*
G04 #@! TO.C,C6*
X113765000Y-60205252D02*
X113765000Y-59682748D01*
X112295000Y-60205252D02*
X112295000Y-59682748D01*
G04 #@! TO.C,C5*
X108993000Y-60205252D02*
X108993000Y-59682748D01*
X110463000Y-60205252D02*
X110463000Y-59682748D01*
G04 #@! TO.C,C4*
X137949000Y-46286748D02*
X137949000Y-46809252D01*
X139419000Y-46286748D02*
X139419000Y-46809252D01*
G04 #@! TO.C,C3*
X135186748Y-50319000D02*
X135709252Y-50319000D01*
X135186748Y-51789000D02*
X135709252Y-51789000D01*
G04 #@! TO.C,C2*
X129513000Y-46743252D02*
X129513000Y-46220748D01*
X128043000Y-46743252D02*
X128043000Y-46220748D01*
G04 #@! TO.C,C1*
X110209000Y-46997252D02*
X110209000Y-46474748D01*
X108739000Y-46997252D02*
X108739000Y-46474748D01*
G04 #@! TD*
M02*
