M48
INCH,TZ
T1C0.0157
T2C0.0315
T3C0.0394
T4C0.0433
T5C0.0591
T6C0.0669
T7C0.1260
%
G90
G05
T1
X42100Y-22300
X42100Y-27100
X42600Y-20600
X43600Y-20500
X45000Y-23500
X46000Y-24000
X46000Y-28100
X46028Y-39400
X46300Y-19300
X46300Y-22200
X46400Y-26100
X46400Y-27600
X46700Y-28300
X47228Y-32600
X47600Y-26700
X47800Y-24300
X48900Y-27500
X49000Y-24300
X49100Y-26600
X49600Y-29800
X49856Y-33400
X50100Y-34100
X50200Y-24500
X50300Y-23615
X50485Y-26600
X50500Y-19900
X50500Y-22200
X50800Y-20500
X50800Y-23200
X51400Y-38500
X52000Y-22700
X52100Y-23600
X52600Y-23900
X52900Y-22500
T2
X41100Y-25100
X41100Y-26100
X41100Y-27100
X41100Y-28100
X44228Y-39916
X44228Y-41884
X45100Y-25100
X45100Y-26100
X45100Y-27100
X45100Y-28100
X45500Y-20200
X45500Y-21200
X45500Y-22200
X45500Y-23200
X46428Y-39916
X46428Y-41884
X48118Y-34100
X48118Y-38900
X48128Y-41300
X48144Y-36600
X49102Y-34100
X49102Y-38900
X49112Y-41300
X49128Y-36600
X49500Y-20200
X49500Y-21200
X49500Y-22200
X49500Y-23200
X51428Y-31226
X51428Y-32210
X51428Y-33490
X51428Y-34474
T3
X40700Y-30398
X40700Y-31398
X40700Y-33700
X40700Y-34700
X46128Y-43900
X47128Y-43900
X48128Y-43900
X49128Y-43900
X52300Y-25782
X52300Y-26782
X52300Y-27782
X54167Y-25800
X54167Y-26800
T4
X45128Y-32200
X45128Y-37200
X46628Y-32200
X46628Y-37200
X53928Y-31500
X53928Y-32500
X53928Y-33500
T5
X41800Y-15500
X45619Y-15500
X49438Y-15500
X53257Y-15500
T6
X40800Y-14500
X40800Y-16500
X42800Y-14500
X42800Y-16500
X44619Y-14500
X44619Y-16500
X46619Y-14500
X46619Y-16500
X48438Y-14500
X48438Y-16500
X50438Y-14500
X50438Y-16500
X52257Y-14500
X52257Y-16500
X54257Y-14500
X54257Y-16500
T7
X42200Y-43000
T0
M30
