G04 #@! TF.GenerationSoftware,KiCad,Pcbnew,7.0.2*
G04 #@! TF.CreationDate,2024-03-05T19:29:17+01:00*
G04 #@! TF.ProjectId,BalunAndFilter,42616c75-6e41-46e6-9446-696c7465722e,rev?*
G04 #@! TF.SameCoordinates,Original*
G04 #@! TF.FileFunction,Copper,L2,Bot*
G04 #@! TF.FilePolarity,Positive*
%FSLAX46Y46*%
G04 Gerber Fmt 4.6, Leading zero omitted, Abs format (unit mm)*
G04 Created by KiCad (PCBNEW 7.0.2) date 2024-03-05 19:29:17*
%MOMM*%
%LPD*%
G01*
G04 APERTURE LIST*
G04 Aperture macros list*
%AMRoundRect*
0 Rectangle with rounded corners*
0 $1 Rounding radius*
0 $2 $3 $4 $5 $6 $7 $8 $9 X,Y pos of 4 corners*
0 Add a 4 corners polygon primitive as box body*
4,1,4,$2,$3,$4,$5,$6,$7,$8,$9,$2,$3,0*
0 Add four circle primitives for the rounded corners*
1,1,$1+$1,$2,$3*
1,1,$1+$1,$4,$5*
1,1,$1+$1,$6,$7*
1,1,$1+$1,$8,$9*
0 Add four rect primitives between the rounded corners*
20,1,$1+$1,$2,$3,$4,$5,0*
20,1,$1+$1,$4,$5,$6,$7,0*
20,1,$1+$1,$6,$7,$8,$9,0*
20,1,$1+$1,$8,$9,$2,$3,0*%
G04 Aperture macros list end*
G04 #@! TA.AperFunction,ComponentPad*
%ADD10C,6.400000*%
G04 #@! TD*
G04 #@! TA.AperFunction,ComponentPad*
%ADD11C,1.600000*%
G04 #@! TD*
G04 #@! TA.AperFunction,ComponentPad*
%ADD12O,2.200000X2.200000*%
G04 #@! TD*
G04 #@! TA.AperFunction,ComponentPad*
%ADD13R,2.200000X2.200000*%
G04 #@! TD*
G04 #@! TA.AperFunction,ComponentPad*
%ADD14O,1.700000X1.700000*%
G04 #@! TD*
G04 #@! TA.AperFunction,ComponentPad*
%ADD15R,1.700000X1.700000*%
G04 #@! TD*
G04 #@! TA.AperFunction,ComponentPad*
%ADD16O,2.000000X1.905000*%
G04 #@! TD*
G04 #@! TA.AperFunction,ComponentPad*
%ADD17R,2.000000X1.905000*%
G04 #@! TD*
G04 #@! TA.AperFunction,ComponentPad*
%ADD18R,1.600000X1.600000*%
G04 #@! TD*
G04 #@! TA.AperFunction,ComponentPad*
%ADD19O,1.600000X1.600000*%
G04 #@! TD*
G04 #@! TA.AperFunction,ComponentPad*
%ADD20C,2.500000*%
G04 #@! TD*
G04 #@! TA.AperFunction,ComponentPad*
%ADD21RoundRect,0.200100X-0.949900X-0.949900X0.949900X-0.949900X0.949900X0.949900X-0.949900X0.949900X0*%
G04 #@! TD*
G04 #@! TA.AperFunction,ViaPad*
%ADD22C,0.800000*%
G04 #@! TD*
G04 #@! TA.AperFunction,Conductor*
%ADD23C,0.250000*%
G04 #@! TD*
G04 APERTURE END LIST*
D10*
G04 #@! TO.P,REF\u002A\u002A,1*
G04 #@! TO.N,N/C*
X107188000Y-109220000D03*
G04 #@! TD*
D11*
G04 #@! TO.P,F2,2*
G04 #@! TO.N,-15V*
X112339000Y-101386000D03*
G04 #@! TO.P,F2,1*
G04 #@! TO.N,Net-(J7-Pin_2)*
X112339000Y-106386000D03*
G04 #@! TD*
G04 #@! TO.P,F1,2*
G04 #@! TO.N,Net-(J7-Pin_4)*
X117927000Y-106386000D03*
G04 #@! TO.P,F1,1*
G04 #@! TO.N,+15V*
X117927000Y-101386000D03*
G04 #@! TD*
D12*
G04 #@! TO.P,D3,2,A*
G04 #@! TO.N,-15V*
X114625000Y-94488000D03*
D13*
G04 #@! TO.P,D3,1,K*
G04 #@! TO.N,GND*
X114625000Y-81788000D03*
G04 #@! TD*
D12*
G04 #@! TO.P,D2,2,A*
G04 #@! TO.N,GND*
X118435000Y-81788000D03*
D13*
G04 #@! TO.P,D2,1,K*
G04 #@! TO.N,+15V*
X118435000Y-94488000D03*
G04 #@! TD*
D14*
G04 #@! TO.P,JP1,3,B*
G04 #@! TO.N,Net-(D1-A)*
X132843000Y-70567000D03*
G04 #@! TO.P,JP1,2,C*
G04 #@! TO.N,Net-(JP1-C)*
X132843000Y-68027000D03*
D15*
G04 #@! TO.P,JP1,1,A*
G04 #@! TO.N,Net-(J8-Pin_1)*
X132843000Y-65487000D03*
G04 #@! TD*
D14*
G04 #@! TO.P,J8,2,Pin_2*
G04 #@! TO.N,GND*
X137583500Y-68072000D03*
D15*
G04 #@! TO.P,J8,1,Pin_1*
G04 #@! TO.N,Net-(J8-Pin_1)*
X137583500Y-65532000D03*
G04 #@! TD*
D16*
G04 #@! TO.P,U5,3,VO*
G04 #@! TO.N,-5V*
X136977000Y-85090000D03*
G04 #@! TO.P,U5,2,VI*
G04 #@! TO.N,-15V*
X136977000Y-82550000D03*
D17*
G04 #@! TO.P,U5,1,GND*
G04 #@! TO.N,GND*
X136977000Y-80010000D03*
G04 #@! TD*
D18*
G04 #@! TO.P,U2,1*
G04 #@! TO.N,Net-(J5-Pin_1)*
X104394000Y-63754000D03*
D19*
G04 #@! TO.P,U2,2,-*
G04 #@! TO.N,Net-(U2A--)*
X104394000Y-66294000D03*
G04 #@! TO.P,U2,3,+*
G04 #@! TO.N,Net-(U2A-+)*
X104394000Y-68834000D03*
G04 #@! TO.P,U2,4,V-*
G04 #@! TO.N,GND*
X104394000Y-71374000D03*
G04 #@! TO.P,U2,5,+*
G04 #@! TO.N,Net-(U2B-+)*
X114554000Y-71374000D03*
G04 #@! TO.P,U2,6,-*
G04 #@! TO.N,Net-(U2B--)*
X114554000Y-68834000D03*
G04 #@! TO.P,U2,7*
G04 #@! TO.N,Net-(J6-Pin_2)*
X114554000Y-66294000D03*
G04 #@! TO.P,U2,8,V+*
G04 #@! TO.N,+3V3*
X114554000Y-63754000D03*
G04 #@! TD*
D18*
G04 #@! TO.P,U1,1*
G04 #@! TO.N,Net-(R13-Pad1)*
X115570000Y-51308000D03*
D19*
G04 #@! TO.P,U1,2,-*
G04 #@! TO.N,Net-(U1A--)*
X115570000Y-53848000D03*
G04 #@! TO.P,U1,3,+*
G04 #@! TO.N,Net-(U1A-+)*
X115570000Y-56388000D03*
G04 #@! TO.P,U1,4,V-*
G04 #@! TO.N,-5V*
X115570000Y-58928000D03*
G04 #@! TO.P,U1,5,+*
G04 #@! TO.N,Net-(U1B-+)*
X125730000Y-58928000D03*
G04 #@! TO.P,U1,6,-*
G04 #@! TO.N,Net-(U1B--)*
X125730000Y-56388000D03*
G04 #@! TO.P,U1,7*
G04 #@! TO.N,Net-(R14-Pad1)*
X125730000Y-53848000D03*
G04 #@! TO.P,U1,8,V+*
G04 #@! TO.N,+5V*
X125730000Y-51308000D03*
G04 #@! TD*
D14*
G04 #@! TO.P,J7,4,Pin_4*
G04 #@! TO.N,Net-(J7-Pin_4)*
X124785000Y-111506000D03*
G04 #@! TO.P,J7,3,Pin_3*
G04 #@! TO.N,GND*
X122245000Y-111506000D03*
G04 #@! TO.P,J7,2,Pin_2*
G04 #@! TO.N,Net-(J7-Pin_2)*
X119705000Y-111506000D03*
D15*
G04 #@! TO.P,J7,1,Pin_1*
G04 #@! TO.N,GND*
X117165000Y-111506000D03*
G04 #@! TD*
G04 #@! TO.P,J6,1,Pin_1*
G04 #@! TO.N,GND*
X103378000Y-85598000D03*
D14*
G04 #@! TO.P,J6,2,Pin_2*
G04 #@! TO.N,Net-(J6-Pin_2)*
X103378000Y-88138000D03*
G04 #@! TD*
D15*
G04 #@! TO.P,J5,1,Pin_1*
G04 #@! TO.N,Net-(J5-Pin_1)*
X103378000Y-77211000D03*
D14*
G04 #@! TO.P,J5,2,Pin_2*
G04 #@! TO.N,GND*
X103378000Y-79751000D03*
G04 #@! TD*
D20*
G04 #@! TO.P,J4,2,Ext*
G04 #@! TO.N,GND*
X137812000Y-41910000D03*
X137812000Y-36830000D03*
X132732000Y-36830000D03*
X132732000Y-41910000D03*
D21*
G04 #@! TO.P,J4,1,In*
G04 #@! TO.N,Net-(J4-In)*
X135272000Y-39370000D03*
G04 #@! TD*
D20*
G04 #@! TO.P,J3,2,Ext*
G04 #@! TO.N,GND*
X128112000Y-41910000D03*
X128112000Y-36830000D03*
X123032000Y-36830000D03*
X123032000Y-41910000D03*
D21*
G04 #@! TO.P,J3,1,In*
G04 #@! TO.N,Net-(J3-In)*
X125572000Y-39370000D03*
G04 #@! TD*
D20*
G04 #@! TO.P,J2,2,Ext*
G04 #@! TO.N,GND*
X118412000Y-41910000D03*
X118412000Y-36830000D03*
X113332000Y-36830000D03*
X113332000Y-41910000D03*
D21*
G04 #@! TO.P,J2,1,In*
G04 #@! TO.N,Net-(J2-In)*
X115872000Y-39370000D03*
G04 #@! TD*
D20*
G04 #@! TO.P,J1,2,Ext*
G04 #@! TO.N,GND*
X108712000Y-41910000D03*
X108712000Y-36830000D03*
X103632000Y-36830000D03*
X103632000Y-41910000D03*
D21*
G04 #@! TO.P,J1,1,In*
G04 #@! TO.N,Net-(J1-In)*
X106172000Y-39370000D03*
G04 #@! TD*
D11*
G04 #@! TO.P,C12,2*
G04 #@! TO.N,-5V*
X130627000Y-85065112D03*
D18*
G04 #@! TO.P,C12,1*
G04 #@! TO.N,GND*
X130627000Y-87565112D03*
G04 #@! TD*
D11*
G04 #@! TO.P,C11,2*
G04 #@! TO.N,-15V*
X130627000Y-81812888D03*
D18*
G04 #@! TO.P,C11,1*
G04 #@! TO.N,GND*
X130627000Y-79312888D03*
G04 #@! TD*
D11*
G04 #@! TO.P,C10,2*
G04 #@! TO.N,GND*
X122220112Y-98806000D03*
D18*
G04 #@! TO.P,C10,1*
G04 #@! TO.N,+5V*
X124720112Y-98806000D03*
G04 #@! TD*
G04 #@! TO.P,C9,1*
G04 #@! TO.N,+15V*
X124745000Y-104902000D03*
D11*
G04 #@! TO.P,C9,2*
G04 #@! TO.N,GND*
X122245000Y-104902000D03*
G04 #@! TD*
D18*
G04 #@! TO.P,C8,1*
G04 #@! TO.N,+3V3*
X124720112Y-86614000D03*
D11*
G04 #@! TO.P,C8,2*
G04 #@! TO.N,GND*
X122220112Y-86614000D03*
G04 #@! TD*
D18*
G04 #@! TO.P,C7,1*
G04 #@! TO.N,+15V*
X124785000Y-92964000D03*
D11*
G04 #@! TO.P,C7,2*
G04 #@! TO.N,GND*
X122285000Y-92964000D03*
G04 #@! TD*
D22*
G04 #@! TO.N,GND*
X128232500Y-67564000D03*
X114300000Y-59690000D03*
X120904000Y-67818000D03*
X124714000Y-67564000D03*
X124206000Y-69850000D03*
X132080000Y-57658000D03*
G04 #@! TO.N,+3V3*
X127254000Y-86614000D03*
X127508000Y-62230000D03*
G04 #@! TO.N,-5V*
X126634500Y-84836000D03*
G04 #@! TO.N,Net-(U2B--)*
X118618000Y-71882000D03*
G04 #@! TO.N,-5V*
X132334000Y-59944000D03*
X127762000Y-59981500D03*
G04 #@! TO.N,+5V*
X125984000Y-75692000D03*
G04 #@! TO.N,GND*
X130556000Y-97790000D03*
G04 #@! TO.N,Net-(J6-Pin_2)*
X117856000Y-70104000D03*
X117856000Y-66294000D03*
G04 #@! TO.N,+3V3*
X124460000Y-61722000D03*
X121412000Y-61722000D03*
G04 #@! TO.N,Net-(U2B-+)*
X133604000Y-60706000D03*
X116840000Y-71374000D03*
X116840000Y-60960000D03*
X134366000Y-57150000D03*
G04 #@! TO.N,Net-(U2A-+)*
X106934000Y-56642000D03*
X106934000Y-68834000D03*
G04 #@! TO.N,Net-(R13-Pad1)*
X110744000Y-52070000D03*
X108204000Y-52324000D03*
G04 #@! TO.N,Net-(U1A-+)*
X117602000Y-49022000D03*
X117602000Y-56388000D03*
G04 #@! TO.N,Net-(U1B-+)*
X129032000Y-52070000D03*
X129032000Y-58928000D03*
G04 #@! TO.N,Net-(U1B--)*
X128270000Y-50546000D03*
X128270000Y-56388000D03*
G04 #@! TO.N,-15V*
X116911000Y-100076000D03*
X119959000Y-82804000D03*
G04 #@! TD*
D23*
G04 #@! TO.N,GND*
X128232500Y-67564000D02*
X128944500Y-66852000D01*
X136363500Y-66852000D02*
X137583500Y-68072000D01*
X128944500Y-66852000D02*
X136363500Y-66852000D01*
X114300000Y-59690000D02*
X114845000Y-60235000D01*
X114845000Y-60235000D02*
X117140305Y-60235000D01*
X117140305Y-60235000D02*
X120904000Y-63998695D01*
X120904000Y-63998695D02*
X120904000Y-67818000D01*
X120904000Y-67818000D02*
X124460000Y-67818000D01*
X124460000Y-67818000D02*
X124714000Y-67564000D01*
X124206000Y-68072000D02*
X124714000Y-67564000D01*
X124206000Y-69850000D02*
X124206000Y-68072000D01*
X133313000Y-56425000D02*
X134666305Y-56425000D01*
X132080000Y-57658000D02*
X133313000Y-56425000D01*
X134666305Y-56425000D02*
X136408500Y-58167195D01*
X136408500Y-58167195D02*
X136408500Y-66897000D01*
X136408500Y-66897000D02*
X137583500Y-68072000D01*
G04 #@! TO.N,+3V3*
X127508000Y-86360000D02*
X127254000Y-86614000D01*
X127508000Y-62230000D02*
X127508000Y-86360000D01*
G04 #@! TO.N,-5V*
X126634500Y-84836000D02*
X126709000Y-84761500D01*
X126709000Y-84761500D02*
X126709000Y-61034500D01*
X126709000Y-61034500D02*
X127762000Y-59981500D01*
G04 #@! TO.N,+5V*
X125984000Y-75692000D02*
X125984000Y-62220695D01*
X125984000Y-62220695D02*
X124605000Y-60841695D01*
X124605000Y-60841695D02*
X124605000Y-52433000D01*
X124605000Y-52433000D02*
X125730000Y-51308000D01*
G04 #@! TO.N,Net-(U2B--)*
X116285576Y-72205636D02*
X116115000Y-72035060D01*
X116115000Y-72035060D02*
X116115000Y-70395000D01*
X116115000Y-70395000D02*
X114554000Y-68834000D01*
X118294364Y-72205636D02*
X116285576Y-72205636D01*
X118618000Y-71882000D02*
X118294364Y-72205636D01*
G04 #@! TO.N,GND*
X114625000Y-81788000D02*
X105415000Y-81788000D01*
X105415000Y-81788000D02*
X103378000Y-79751000D01*
X114625000Y-81788000D02*
X118435000Y-81788000D01*
X103378000Y-85598000D02*
X103378000Y-79751000D01*
X104648000Y-78481000D02*
X104648000Y-75438000D01*
X103378000Y-79751000D02*
X104648000Y-78481000D01*
X104648000Y-75438000D02*
X104394000Y-75184000D01*
X104394000Y-75184000D02*
X104394000Y-71374000D01*
X137812000Y-41910000D02*
X137812000Y-36830000D01*
X103632000Y-41910000D02*
X137812000Y-41910000D01*
X137812000Y-36830000D02*
X103632000Y-36830000D01*
G04 #@! TO.N,-5V*
X127762000Y-59981500D02*
X132296500Y-59981500D01*
X132296500Y-59981500D02*
X132334000Y-59944000D01*
G04 #@! TO.N,+5V*
X125910000Y-75766000D02*
X125984000Y-75692000D01*
X125910000Y-97616112D02*
X125910000Y-75766000D01*
G04 #@! TO.N,GND*
X130627000Y-97719000D02*
X130627000Y-87565112D01*
X130556000Y-97790000D02*
X130627000Y-97719000D01*
X130627000Y-87565112D02*
X136356046Y-87565112D01*
X136356046Y-87565112D02*
X138302000Y-85619158D01*
X138302000Y-85619158D02*
X138302000Y-81335000D01*
X138302000Y-81335000D02*
X136977000Y-80010000D01*
X136977000Y-80010000D02*
X131324112Y-80010000D01*
X131324112Y-80010000D02*
X130627000Y-79312888D01*
G04 #@! TO.N,-15V*
X116911000Y-95250000D02*
X116911000Y-85852000D01*
X116911000Y-100076000D02*
X116911000Y-95250000D01*
X116911000Y-95250000D02*
X115387000Y-95250000D01*
X115387000Y-95250000D02*
X114625000Y-94488000D01*
G04 #@! TO.N,GND*
X117165000Y-111506000D02*
X118340000Y-110331000D01*
X121070000Y-110331000D02*
X122245000Y-111506000D01*
X118340000Y-110331000D02*
X121070000Y-110331000D01*
X122220112Y-86614000D02*
X122220112Y-111481112D01*
X122220112Y-111481112D02*
X122245000Y-111506000D01*
G04 #@! TO.N,+5V*
X124720112Y-98806000D02*
X125910000Y-97616112D01*
G04 #@! TO.N,Net-(J6-Pin_2)*
X117856000Y-66294000D02*
X117856000Y-70104000D01*
G04 #@! TO.N,+3V3*
X121412000Y-61722000D02*
X124460000Y-61722000D01*
G04 #@! TO.N,Net-(U2B-+)*
X133604000Y-57912000D02*
X133604000Y-60706000D01*
X134366000Y-57150000D02*
X133604000Y-57912000D01*
X116840000Y-60960000D02*
X116840000Y-71374000D01*
G04 #@! TO.N,Net-(U2A-+)*
X106934000Y-68834000D02*
X106934000Y-56642000D01*
G04 #@! TO.N,Net-(R13-Pad1)*
X108204000Y-52324000D02*
X110490000Y-52324000D01*
X110490000Y-52324000D02*
X110744000Y-52070000D01*
G04 #@! TO.N,Net-(U1A-+)*
X117602000Y-56388000D02*
X117602000Y-49022000D01*
G04 #@! TO.N,Net-(U1B-+)*
X129032000Y-58928000D02*
X129032000Y-52070000D01*
G04 #@! TO.N,Net-(U1B--)*
X128270000Y-56388000D02*
X128270000Y-50546000D01*
G04 #@! TO.N,+15V*
X117927000Y-101386000D02*
X117927000Y-94996000D01*
X117927000Y-94996000D02*
X118435000Y-94488000D01*
G04 #@! TO.N,-15V*
X116911000Y-85852000D02*
X119959000Y-82804000D01*
G04 #@! TO.N,+15V*
X124745000Y-104902000D02*
X123595112Y-103752112D01*
X123595112Y-103752112D02*
X123595112Y-94153888D01*
X123595112Y-94153888D02*
X124785000Y-92964000D01*
G04 #@! TD*
G04 #@! TA.AperFunction,Conductor*
G04 #@! TO.N,GND*
G36*
X103303171Y-34890185D02*
G01*
X103348926Y-34942989D01*
X103358870Y-35012147D01*
X103329845Y-35075703D01*
X103271067Y-35113477D01*
X103254613Y-35117115D01*
X103241496Y-35119091D01*
X102990860Y-35196403D01*
X102754545Y-35310206D01*
X102582832Y-35427278D01*
X103233391Y-36077837D01*
X103114569Y-36149331D01*
X102980342Y-36276477D01*
X102877138Y-36428691D01*
X102229874Y-35781428D01*
X102182026Y-35841428D01*
X102103887Y-35976769D01*
X102053320Y-36024985D01*
X101984713Y-36038207D01*
X101919848Y-36012239D01*
X101879320Y-35955325D01*
X101872500Y-35914769D01*
X101872500Y-34994500D01*
X101892185Y-34927461D01*
X101944989Y-34881706D01*
X101996500Y-34870500D01*
X103236132Y-34870500D01*
X103303171Y-34890185D01*
G37*
G04 #@! TD.AperFunction*
G04 #@! TA.AperFunction,Conductor*
G36*
X108383171Y-34890185D02*
G01*
X108428926Y-34942989D01*
X108438870Y-35012147D01*
X108409845Y-35075703D01*
X108351067Y-35113477D01*
X108334613Y-35117115D01*
X108321496Y-35119091D01*
X108070860Y-35196403D01*
X107834545Y-35310206D01*
X107662832Y-35427278D01*
X108313391Y-36077837D01*
X108194569Y-36149331D01*
X108060342Y-36276477D01*
X107957138Y-36428691D01*
X107309874Y-35781428D01*
X107262026Y-35841428D01*
X107130882Y-36068576D01*
X107035059Y-36312729D01*
X106976693Y-36568447D01*
X106957092Y-36829999D01*
X106976693Y-37091552D01*
X107035058Y-37347264D01*
X107114703Y-37550198D01*
X107120871Y-37619795D01*
X107088433Y-37681678D01*
X107027687Y-37716201D01*
X106999274Y-37719500D01*
X105344726Y-37719500D01*
X105277687Y-37699815D01*
X105231932Y-37647011D01*
X105221988Y-37577853D01*
X105229297Y-37550198D01*
X105308941Y-37347264D01*
X105367306Y-37091552D01*
X105386907Y-36829999D01*
X105367306Y-36568447D01*
X105308940Y-36312729D01*
X105213117Y-36068575D01*
X105081972Y-35841426D01*
X105034125Y-35781427D01*
X104383232Y-36432319D01*
X104339684Y-36350178D01*
X104219991Y-36209265D01*
X104072805Y-36097377D01*
X104030596Y-36077849D01*
X104681167Y-35427278D01*
X104509451Y-35310205D01*
X104273139Y-35196403D01*
X104022503Y-35119091D01*
X104009387Y-35117115D01*
X103946030Y-35087659D01*
X103908656Y-35028625D01*
X103909131Y-34958757D01*
X103947304Y-34900237D01*
X104011056Y-34871645D01*
X104027868Y-34870500D01*
X108316132Y-34870500D01*
X108383171Y-34890185D01*
G37*
G04 #@! TD.AperFunction*
G04 #@! TA.AperFunction,Conductor*
G36*
X113003171Y-34890185D02*
G01*
X113048926Y-34942989D01*
X113058870Y-35012147D01*
X113029845Y-35075703D01*
X112971067Y-35113477D01*
X112954613Y-35117115D01*
X112941496Y-35119091D01*
X112690860Y-35196403D01*
X112454545Y-35310206D01*
X112282832Y-35427278D01*
X112933391Y-36077837D01*
X112814569Y-36149331D01*
X112680342Y-36276477D01*
X112577138Y-36428691D01*
X111929873Y-35781427D01*
X111882028Y-35841424D01*
X111750882Y-36068576D01*
X111655059Y-36312729D01*
X111596693Y-36568447D01*
X111577092Y-36829999D01*
X111596693Y-37091552D01*
X111655059Y-37347270D01*
X111750882Y-37591424D01*
X111882027Y-37818573D01*
X111929873Y-37878571D01*
X111929874Y-37878571D01*
X112580766Y-37227679D01*
X112624316Y-37309822D01*
X112744009Y-37450735D01*
X112891195Y-37562623D01*
X112933402Y-37582150D01*
X112282831Y-38232720D01*
X112454546Y-38349793D01*
X112690860Y-38463596D01*
X112941496Y-38540908D01*
X113200856Y-38580000D01*
X113463144Y-38580000D01*
X113722503Y-38540908D01*
X113973136Y-38463597D01*
X114043697Y-38429617D01*
X114112639Y-38418265D01*
X114176773Y-38445986D01*
X114215739Y-38503981D01*
X114221500Y-38541337D01*
X114221500Y-40198662D01*
X114201815Y-40265701D01*
X114149011Y-40311456D01*
X114079853Y-40321400D01*
X114043699Y-40310382D01*
X113973142Y-40276404D01*
X113722503Y-40199091D01*
X113463144Y-40160000D01*
X113200856Y-40160000D01*
X112941496Y-40199091D01*
X112690860Y-40276403D01*
X112454545Y-40390206D01*
X112282831Y-40507278D01*
X112933390Y-41157837D01*
X112814569Y-41229331D01*
X112680342Y-41356477D01*
X112577138Y-41508691D01*
X111929873Y-40861427D01*
X111882028Y-40921424D01*
X111750882Y-41148576D01*
X111655059Y-41392729D01*
X111596693Y-41648447D01*
X111577092Y-41909999D01*
X111596693Y-42171552D01*
X111655059Y-42427270D01*
X111750882Y-42671424D01*
X111882027Y-42898573D01*
X111929873Y-42958571D01*
X111929874Y-42958571D01*
X112580766Y-42307679D01*
X112624316Y-42389822D01*
X112744009Y-42530735D01*
X112891195Y-42642623D01*
X112933401Y-42662149D01*
X112282831Y-43312720D01*
X112454546Y-43429793D01*
X112690860Y-43543596D01*
X112941496Y-43620908D01*
X113200856Y-43660000D01*
X113463144Y-43660000D01*
X113722503Y-43620908D01*
X113973139Y-43543596D01*
X114209456Y-43429792D01*
X114381167Y-43312720D01*
X113730608Y-42662162D01*
X113849431Y-42590669D01*
X113983658Y-42463523D01*
X114086861Y-42311308D01*
X114734124Y-42958571D01*
X114781972Y-42898572D01*
X114913117Y-42671423D01*
X115008940Y-42427270D01*
X115067306Y-42171552D01*
X115086907Y-41909999D01*
X115067306Y-41648447D01*
X115008941Y-41392735D01*
X114929297Y-41189802D01*
X114923129Y-41120205D01*
X114955567Y-41058322D01*
X115016313Y-41023799D01*
X115044726Y-41020500D01*
X116699274Y-41020500D01*
X116766313Y-41040185D01*
X116812068Y-41092989D01*
X116822012Y-41162147D01*
X116814703Y-41189802D01*
X116735058Y-41392735D01*
X116676693Y-41648447D01*
X116657092Y-41910000D01*
X116676693Y-42171552D01*
X116735059Y-42427270D01*
X116830882Y-42671424D01*
X116962027Y-42898573D01*
X117009873Y-42958571D01*
X117660766Y-42307678D01*
X117704316Y-42389822D01*
X117824009Y-42530735D01*
X117971195Y-42642623D01*
X118013402Y-42662150D01*
X117362831Y-43312720D01*
X117534546Y-43429793D01*
X117770860Y-43543596D01*
X118021496Y-43620908D01*
X118280856Y-43660000D01*
X118543144Y-43660000D01*
X118802503Y-43620908D01*
X119053139Y-43543596D01*
X119289456Y-43429792D01*
X119461167Y-43312720D01*
X118810609Y-42662161D01*
X118929431Y-42590669D01*
X119063658Y-42463523D01*
X119166861Y-42311308D01*
X119814124Y-42958571D01*
X119861972Y-42898572D01*
X119993117Y-42671423D01*
X120088940Y-42427270D01*
X120147306Y-42171552D01*
X120166907Y-41909999D01*
X120147306Y-41648447D01*
X120088940Y-41392729D01*
X119993117Y-41148575D01*
X119861972Y-40921426D01*
X119814125Y-40861427D01*
X119163232Y-41512319D01*
X119119684Y-41430178D01*
X118999991Y-41289265D01*
X118852805Y-41177377D01*
X118810596Y-41157849D01*
X119461167Y-40507278D01*
X119289451Y-40390205D01*
X119053139Y-40276403D01*
X118802503Y-40199091D01*
X118543144Y-40160000D01*
X118280856Y-40160000D01*
X118021496Y-40199091D01*
X117770857Y-40276404D01*
X117700301Y-40310382D01*
X117631360Y-40321734D01*
X117567226Y-40294012D01*
X117528260Y-40236016D01*
X117522500Y-40198662D01*
X117522500Y-38541337D01*
X117542185Y-38474298D01*
X117594989Y-38428543D01*
X117664147Y-38418599D01*
X117700303Y-38429617D01*
X117770863Y-38463597D01*
X118021496Y-38540908D01*
X118280856Y-38580000D01*
X118543144Y-38580000D01*
X118802503Y-38540908D01*
X119053139Y-38463596D01*
X119289456Y-38349792D01*
X119461167Y-38232720D01*
X118810609Y-37582162D01*
X118929431Y-37510669D01*
X119063658Y-37383523D01*
X119166861Y-37231308D01*
X119814124Y-37878571D01*
X119861972Y-37818572D01*
X119993117Y-37591423D01*
X120088940Y-37347270D01*
X120147306Y-37091552D01*
X120166907Y-36830000D01*
X120147306Y-36568447D01*
X120088940Y-36312729D01*
X119993117Y-36068575D01*
X119861972Y-35841426D01*
X119814125Y-35781427D01*
X119163232Y-36432319D01*
X119119684Y-36350178D01*
X118999991Y-36209265D01*
X118852805Y-36097377D01*
X118810596Y-36077849D01*
X119461167Y-35427278D01*
X119289451Y-35310205D01*
X119053139Y-35196403D01*
X118802503Y-35119091D01*
X118789387Y-35117115D01*
X118726030Y-35087659D01*
X118688656Y-35028625D01*
X118689131Y-34958757D01*
X118727304Y-34900237D01*
X118791056Y-34871645D01*
X118807868Y-34870500D01*
X120172099Y-34870500D01*
X121271901Y-34870500D01*
X122636132Y-34870500D01*
X122703171Y-34890185D01*
X122748926Y-34942989D01*
X122758870Y-35012147D01*
X122729845Y-35075703D01*
X122671067Y-35113477D01*
X122654613Y-35117115D01*
X122641496Y-35119091D01*
X122390860Y-35196403D01*
X122154545Y-35310206D01*
X121982832Y-35427278D01*
X122633391Y-36077837D01*
X122514569Y-36149331D01*
X122380342Y-36276477D01*
X122277138Y-36428692D01*
X121629873Y-35781427D01*
X121582028Y-35841424D01*
X121450882Y-36068576D01*
X121355059Y-36312729D01*
X121296693Y-36568447D01*
X121277092Y-36830000D01*
X121296693Y-37091552D01*
X121355059Y-37347270D01*
X121450882Y-37591424D01*
X121582027Y-37818573D01*
X121629873Y-37878571D01*
X121629874Y-37878571D01*
X122280766Y-37227679D01*
X122324316Y-37309822D01*
X122444009Y-37450735D01*
X122591195Y-37562623D01*
X122633402Y-37582150D01*
X121982831Y-38232720D01*
X122154546Y-38349793D01*
X122390860Y-38463596D01*
X122641496Y-38540908D01*
X122900856Y-38580000D01*
X123163144Y-38580000D01*
X123422503Y-38540908D01*
X123673136Y-38463597D01*
X123743697Y-38429617D01*
X123812639Y-38418265D01*
X123876773Y-38445986D01*
X123915739Y-38503981D01*
X123921500Y-38541337D01*
X123921500Y-40198662D01*
X123901815Y-40265701D01*
X123849011Y-40311456D01*
X123779853Y-40321400D01*
X123743699Y-40310382D01*
X123673142Y-40276404D01*
X123422503Y-40199091D01*
X123163144Y-40160000D01*
X122900856Y-40160000D01*
X122641496Y-40199091D01*
X122390860Y-40276403D01*
X122154545Y-40390206D01*
X121982831Y-40507278D01*
X122633390Y-41157837D01*
X122514569Y-41229331D01*
X122380342Y-41356477D01*
X122277138Y-41508692D01*
X121629873Y-40861427D01*
X121582028Y-40921424D01*
X121450882Y-41148576D01*
X121355059Y-41392729D01*
X121296693Y-41648447D01*
X121277092Y-41910000D01*
X121296693Y-42171552D01*
X121355059Y-42427270D01*
X121450882Y-42671424D01*
X121582027Y-42898573D01*
X121629873Y-42958571D01*
X121629874Y-42958571D01*
X122280766Y-42307679D01*
X122324316Y-42389822D01*
X122444009Y-42530735D01*
X122591195Y-42642623D01*
X122633402Y-42662150D01*
X121982831Y-43312720D01*
X122154546Y-43429793D01*
X122390860Y-43543596D01*
X122641496Y-43620908D01*
X122900856Y-43660000D01*
X123163144Y-43660000D01*
X123422503Y-43620908D01*
X123673139Y-43543596D01*
X123909456Y-43429792D01*
X124081167Y-43312720D01*
X123430609Y-42662161D01*
X123549431Y-42590669D01*
X123683658Y-42463523D01*
X123786861Y-42311308D01*
X124434124Y-42958571D01*
X124481972Y-42898572D01*
X124613117Y-42671423D01*
X124708940Y-42427270D01*
X124767306Y-42171552D01*
X124786907Y-41910000D01*
X124767306Y-41648447D01*
X124708941Y-41392735D01*
X124629297Y-41189802D01*
X124623129Y-41120205D01*
X124655567Y-41058322D01*
X124716313Y-41023799D01*
X124744726Y-41020500D01*
X126399274Y-41020500D01*
X126466313Y-41040185D01*
X126512068Y-41092989D01*
X126522012Y-41162147D01*
X126514703Y-41189802D01*
X126435058Y-41392735D01*
X126376693Y-41648447D01*
X126357092Y-41910000D01*
X126376693Y-42171552D01*
X126435059Y-42427270D01*
X126530882Y-42671424D01*
X126662027Y-42898573D01*
X126709873Y-42958571D01*
X127360766Y-42307678D01*
X127404316Y-42389822D01*
X127524009Y-42530735D01*
X127671195Y-42642623D01*
X127713402Y-42662150D01*
X127062831Y-43312720D01*
X127234546Y-43429793D01*
X127470860Y-43543596D01*
X127721496Y-43620908D01*
X127980856Y-43660000D01*
X128243144Y-43660000D01*
X128502503Y-43620908D01*
X128753139Y-43543596D01*
X128989456Y-43429792D01*
X129161167Y-43312720D01*
X128510609Y-42662161D01*
X128629431Y-42590669D01*
X128763658Y-42463523D01*
X128866861Y-42311308D01*
X129514124Y-42958571D01*
X129561972Y-42898572D01*
X129693117Y-42671423D01*
X129788940Y-42427270D01*
X129847306Y-42171552D01*
X129866907Y-41910000D01*
X129847306Y-41648447D01*
X129788940Y-41392729D01*
X129693117Y-41148575D01*
X129561972Y-40921426D01*
X129514125Y-40861427D01*
X129514124Y-40861427D01*
X128863232Y-41512318D01*
X128819684Y-41430178D01*
X128699991Y-41289265D01*
X128552805Y-41177377D01*
X128510596Y-41157849D01*
X129161167Y-40507278D01*
X128989451Y-40390205D01*
X128753139Y-40276403D01*
X128502503Y-40199091D01*
X128243144Y-40160000D01*
X127980856Y-40160000D01*
X127721496Y-40199091D01*
X127470857Y-40276404D01*
X127400301Y-40310382D01*
X127331360Y-40321734D01*
X127267226Y-40294012D01*
X127228260Y-40236016D01*
X127222500Y-40198662D01*
X127222500Y-38541337D01*
X127242185Y-38474298D01*
X127294989Y-38428543D01*
X127364147Y-38418599D01*
X127400303Y-38429617D01*
X127470863Y-38463597D01*
X127721496Y-38540908D01*
X127980856Y-38580000D01*
X128243144Y-38580000D01*
X128502503Y-38540908D01*
X128753139Y-38463596D01*
X128989456Y-38349792D01*
X129161167Y-38232720D01*
X128510609Y-37582162D01*
X128629431Y-37510669D01*
X128763658Y-37383523D01*
X128866861Y-37231308D01*
X129514124Y-37878571D01*
X129561972Y-37818572D01*
X129693117Y-37591423D01*
X129788940Y-37347270D01*
X129847306Y-37091552D01*
X129866907Y-36830000D01*
X129847306Y-36568447D01*
X129788940Y-36312729D01*
X129693117Y-36068575D01*
X129561972Y-35841426D01*
X129514125Y-35781427D01*
X129514124Y-35781427D01*
X128863232Y-36432318D01*
X128819684Y-36350178D01*
X128699991Y-36209265D01*
X128552805Y-36097377D01*
X128510596Y-36077849D01*
X129161167Y-35427278D01*
X128989451Y-35310205D01*
X128753139Y-35196403D01*
X128502503Y-35119091D01*
X128489387Y-35117115D01*
X128426030Y-35087659D01*
X128388656Y-35028625D01*
X128389131Y-34958757D01*
X128427304Y-34900237D01*
X128491056Y-34871645D01*
X128507868Y-34870500D01*
X129872099Y-34870500D01*
X130971901Y-34870500D01*
X132336132Y-34870500D01*
X132403171Y-34890185D01*
X132448926Y-34942989D01*
X132458870Y-35012147D01*
X132429845Y-35075703D01*
X132371067Y-35113477D01*
X132354613Y-35117115D01*
X132341496Y-35119091D01*
X132090860Y-35196403D01*
X131854545Y-35310206D01*
X131682832Y-35427278D01*
X132333391Y-36077837D01*
X132214569Y-36149331D01*
X132080342Y-36276477D01*
X131977138Y-36428692D01*
X131329873Y-35781427D01*
X131282028Y-35841424D01*
X131150882Y-36068576D01*
X131055059Y-36312729D01*
X130996693Y-36568447D01*
X130977092Y-36830000D01*
X130996693Y-37091552D01*
X131055059Y-37347270D01*
X131150882Y-37591424D01*
X131282027Y-37818573D01*
X131329873Y-37878571D01*
X131329874Y-37878571D01*
X131980766Y-37227679D01*
X132024316Y-37309822D01*
X132144009Y-37450735D01*
X132291195Y-37562623D01*
X132333402Y-37582150D01*
X131682831Y-38232720D01*
X131854546Y-38349793D01*
X132090860Y-38463596D01*
X132341496Y-38540908D01*
X132600856Y-38580000D01*
X132863144Y-38580000D01*
X133122503Y-38540908D01*
X133373136Y-38463597D01*
X133443697Y-38429617D01*
X133512639Y-38418265D01*
X133576773Y-38445986D01*
X133615739Y-38503981D01*
X133621500Y-38541337D01*
X133621500Y-40198662D01*
X133601815Y-40265701D01*
X133549011Y-40311456D01*
X133479853Y-40321400D01*
X133443699Y-40310382D01*
X133373142Y-40276404D01*
X133122503Y-40199091D01*
X132863144Y-40160000D01*
X132600856Y-40160000D01*
X132341496Y-40199091D01*
X132090860Y-40276403D01*
X131854545Y-40390206D01*
X131682831Y-40507278D01*
X132333390Y-41157837D01*
X132214569Y-41229331D01*
X132080342Y-41356477D01*
X131977138Y-41508691D01*
X131329874Y-40861428D01*
X131282026Y-40921428D01*
X131150882Y-41148576D01*
X131055059Y-41392729D01*
X130996693Y-41648447D01*
X130977092Y-41910000D01*
X130996693Y-42171552D01*
X131055059Y-42427270D01*
X131150882Y-42671424D01*
X131282027Y-42898573D01*
X131329873Y-42958571D01*
X131980766Y-42307678D01*
X132024316Y-42389822D01*
X132144009Y-42530735D01*
X132291195Y-42642623D01*
X132333402Y-42662150D01*
X131682831Y-43312720D01*
X131854546Y-43429793D01*
X132090860Y-43543596D01*
X132341496Y-43620908D01*
X132600856Y-43660000D01*
X132863144Y-43660000D01*
X133122503Y-43620908D01*
X133373139Y-43543596D01*
X133609456Y-43429792D01*
X133781167Y-43312720D01*
X133130609Y-42662161D01*
X133249431Y-42590669D01*
X133383658Y-42463523D01*
X133486861Y-42311308D01*
X134134124Y-42958571D01*
X134181972Y-42898572D01*
X134313117Y-42671423D01*
X134408940Y-42427270D01*
X134467306Y-42171552D01*
X134486907Y-41910000D01*
X134467306Y-41648447D01*
X134408941Y-41392735D01*
X134329297Y-41189802D01*
X134323129Y-41120205D01*
X134355567Y-41058322D01*
X134416313Y-41023799D01*
X134444726Y-41020500D01*
X136099274Y-41020500D01*
X136166313Y-41040185D01*
X136212068Y-41092989D01*
X136222012Y-41162147D01*
X136214703Y-41189802D01*
X136135058Y-41392735D01*
X136076693Y-41648447D01*
X136057092Y-41910000D01*
X136076693Y-42171552D01*
X136135059Y-42427270D01*
X136230882Y-42671424D01*
X136362027Y-42898573D01*
X136409873Y-42958571D01*
X137060766Y-42307678D01*
X137104316Y-42389822D01*
X137224009Y-42530735D01*
X137371195Y-42642623D01*
X137413402Y-42662150D01*
X136762831Y-43312720D01*
X136934546Y-43429793D01*
X137170860Y-43543596D01*
X137421496Y-43620908D01*
X137680856Y-43660000D01*
X137943144Y-43660000D01*
X138202503Y-43620908D01*
X138453139Y-43543596D01*
X138689456Y-43429792D01*
X138861167Y-43312720D01*
X138210609Y-42662161D01*
X138329431Y-42590669D01*
X138463658Y-42463523D01*
X138566861Y-42311308D01*
X139214124Y-42958571D01*
X139261972Y-42898572D01*
X139393117Y-42671423D01*
X139488940Y-42427270D01*
X139547306Y-42171552D01*
X139566907Y-41910000D01*
X139547306Y-41648447D01*
X139488940Y-41392729D01*
X139393117Y-41148575D01*
X139261972Y-40921426D01*
X139214125Y-40861427D01*
X138563232Y-41512319D01*
X138519684Y-41430178D01*
X138399991Y-41289265D01*
X138252805Y-41177377D01*
X138210596Y-41157849D01*
X138861167Y-40507278D01*
X138689451Y-40390205D01*
X138453139Y-40276403D01*
X138202503Y-40199091D01*
X137943144Y-40160000D01*
X137680856Y-40160000D01*
X137421496Y-40199091D01*
X137170857Y-40276404D01*
X137100301Y-40310382D01*
X137031360Y-40321734D01*
X136967226Y-40294012D01*
X136928260Y-40236016D01*
X136922500Y-40198662D01*
X136922500Y-38541337D01*
X136942185Y-38474298D01*
X136994989Y-38428543D01*
X137064147Y-38418599D01*
X137100303Y-38429617D01*
X137170863Y-38463597D01*
X137421496Y-38540908D01*
X137680856Y-38580000D01*
X137943144Y-38580000D01*
X138202503Y-38540908D01*
X138453139Y-38463596D01*
X138689456Y-38349792D01*
X138861167Y-38232720D01*
X138210609Y-37582162D01*
X138329431Y-37510669D01*
X138463658Y-37383523D01*
X138566861Y-37231308D01*
X139214124Y-37878571D01*
X139261972Y-37818572D01*
X139393117Y-37591423D01*
X139488940Y-37347270D01*
X139547306Y-37091552D01*
X139566907Y-36830000D01*
X139547306Y-36568447D01*
X139488940Y-36312729D01*
X139393117Y-36068575D01*
X139261972Y-35841426D01*
X139214125Y-35781427D01*
X138563232Y-36432319D01*
X138519684Y-36350178D01*
X138399991Y-36209265D01*
X138252805Y-36097377D01*
X138210596Y-36077849D01*
X138861167Y-35427278D01*
X138689451Y-35310205D01*
X138453139Y-35196403D01*
X138202503Y-35119091D01*
X138189387Y-35117115D01*
X138126030Y-35087659D01*
X138088656Y-35028625D01*
X138089131Y-34958757D01*
X138127304Y-34900237D01*
X138191056Y-34871645D01*
X138207868Y-34870500D01*
X139572099Y-34870500D01*
X140337500Y-34870500D01*
X140404539Y-34890185D01*
X140450294Y-34942989D01*
X140461500Y-34994500D01*
X140461500Y-113159500D01*
X140441815Y-113226539D01*
X140389011Y-113272294D01*
X140337500Y-113283500D01*
X101996500Y-113283500D01*
X101929461Y-113263815D01*
X101883706Y-113211011D01*
X101872500Y-113159500D01*
X101872500Y-109220000D01*
X103482422Y-109220000D01*
X103502722Y-109607338D01*
X103503227Y-109610531D01*
X103503229Y-109610543D01*
X103562889Y-109987224D01*
X103562891Y-109987237D01*
X103563398Y-109990433D01*
X103564235Y-109993557D01*
X103564237Y-109993566D01*
X103662947Y-110361957D01*
X103663786Y-110365087D01*
X103664943Y-110368102D01*
X103664946Y-110368110D01*
X103801622Y-110724162D01*
X103802786Y-110727194D01*
X103804255Y-110730077D01*
X103804259Y-110730086D01*
X103872604Y-110864220D01*
X103978875Y-111072789D01*
X104190124Y-111398084D01*
X104434219Y-111699516D01*
X104708484Y-111973781D01*
X105009916Y-112217876D01*
X105335211Y-112429125D01*
X105680806Y-112605214D01*
X106042913Y-112744214D01*
X106417567Y-112844602D01*
X106800662Y-112905278D01*
X107188000Y-112925578D01*
X107575338Y-112905278D01*
X107958433Y-112844602D01*
X108333087Y-112744214D01*
X108695194Y-112605214D01*
X109040789Y-112429125D01*
X109084840Y-112400518D01*
X115815000Y-112400518D01*
X115815354Y-112407132D01*
X115821400Y-112463371D01*
X115871647Y-112598089D01*
X115957811Y-112713188D01*
X116072910Y-112799352D01*
X116207628Y-112849599D01*
X116263867Y-112855645D01*
X116270482Y-112856000D01*
X116915000Y-112856000D01*
X116915000Y-111941501D01*
X117022685Y-111990680D01*
X117129237Y-112006000D01*
X117200763Y-112006000D01*
X117307315Y-111990680D01*
X117415000Y-111941501D01*
X117415000Y-112856000D01*
X118059518Y-112856000D01*
X118066132Y-112855645D01*
X118122371Y-112849599D01*
X118257089Y-112799352D01*
X118372188Y-112713188D01*
X118458352Y-112598089D01*
X118507422Y-112466528D01*
X118549294Y-112410595D01*
X118614758Y-112386178D01*
X118683031Y-112401030D01*
X118711285Y-112422181D01*
X118833599Y-112544495D01*
X119027170Y-112680035D01*
X119241337Y-112779903D01*
X119469592Y-112841063D01*
X119705000Y-112861659D01*
X119940408Y-112841063D01*
X120168663Y-112779903D01*
X120382830Y-112680035D01*
X120576401Y-112544495D01*
X120743495Y-112377401D01*
X120873732Y-112191403D01*
X120928307Y-112147780D01*
X120997805Y-112140586D01*
X121060160Y-112172109D01*
X121076880Y-112191404D01*
X121206893Y-112377081D01*
X121373918Y-112544106D01*
X121567423Y-112679600D01*
X121781507Y-112779430D01*
X121994998Y-112836634D01*
X121994999Y-112836634D01*
X121994999Y-111941501D01*
X122102685Y-111990680D01*
X122209237Y-112006000D01*
X122280763Y-112006000D01*
X122387315Y-111990680D01*
X122495000Y-111941501D01*
X122495000Y-112836633D01*
X122708490Y-112779430D01*
X122922576Y-112679600D01*
X123116081Y-112544106D01*
X123283109Y-112377078D01*
X123413119Y-112191405D01*
X123467696Y-112147780D01*
X123537194Y-112140586D01*
X123599549Y-112172109D01*
X123616265Y-112191400D01*
X123746505Y-112377401D01*
X123913599Y-112544495D01*
X124107170Y-112680035D01*
X124321337Y-112779903D01*
X124549592Y-112841063D01*
X124785000Y-112861659D01*
X125020408Y-112841063D01*
X125248663Y-112779903D01*
X125462830Y-112680035D01*
X125656401Y-112544495D01*
X125823495Y-112377401D01*
X125959035Y-112183830D01*
X126058903Y-111969663D01*
X126120063Y-111741408D01*
X126140659Y-111506000D01*
X126120063Y-111270592D01*
X126058903Y-111042337D01*
X125959035Y-110828171D01*
X125823495Y-110634599D01*
X125656401Y-110467505D01*
X125462830Y-110331965D01*
X125248663Y-110232097D01*
X125176074Y-110212647D01*
X125020407Y-110170936D01*
X124785000Y-110150340D01*
X124549592Y-110170936D01*
X124321336Y-110232097D01*
X124107170Y-110331965D01*
X123913598Y-110467505D01*
X123746508Y-110634595D01*
X123616269Y-110820596D01*
X123561692Y-110864220D01*
X123492193Y-110871413D01*
X123429839Y-110839891D01*
X123413119Y-110820595D01*
X123283109Y-110634921D01*
X123116081Y-110467893D01*
X122922576Y-110332399D01*
X122708492Y-110232569D01*
X122495000Y-110175364D01*
X122495000Y-111070498D01*
X122387315Y-111021320D01*
X122280763Y-111006000D01*
X122209237Y-111006000D01*
X122102685Y-111021320D01*
X121994999Y-111070498D01*
X121994999Y-110175364D01*
X121994998Y-110175364D01*
X121781507Y-110232569D01*
X121567421Y-110332400D01*
X121373921Y-110467890D01*
X121206893Y-110634918D01*
X121076880Y-110820596D01*
X121022303Y-110864220D01*
X120952804Y-110871413D01*
X120890450Y-110839891D01*
X120873730Y-110820595D01*
X120743494Y-110634598D01*
X120576404Y-110467508D01*
X120576401Y-110467505D01*
X120382830Y-110331965D01*
X120168663Y-110232097D01*
X120096074Y-110212647D01*
X119940407Y-110170936D01*
X119704999Y-110150340D01*
X119469592Y-110170936D01*
X119241336Y-110232097D01*
X119027170Y-110331965D01*
X118833601Y-110467503D01*
X118711285Y-110589819D01*
X118649962Y-110623303D01*
X118580270Y-110618319D01*
X118524337Y-110576447D01*
X118507422Y-110545471D01*
X118458352Y-110413911D01*
X118372188Y-110298811D01*
X118257089Y-110212647D01*
X118122371Y-110162400D01*
X118066132Y-110156354D01*
X118059518Y-110156000D01*
X117415000Y-110156000D01*
X117415000Y-111070498D01*
X117307315Y-111021320D01*
X117200763Y-111006000D01*
X117129237Y-111006000D01*
X117022685Y-111021320D01*
X116915000Y-111070498D01*
X116915000Y-110156000D01*
X116270482Y-110156000D01*
X116263867Y-110156354D01*
X116207628Y-110162400D01*
X116072910Y-110212647D01*
X115957811Y-110298811D01*
X115871647Y-110413910D01*
X115821400Y-110548628D01*
X115815354Y-110604867D01*
X115815000Y-110611481D01*
X115815000Y-111256000D01*
X116731314Y-111256000D01*
X116705507Y-111296156D01*
X116665000Y-111434111D01*
X116665000Y-111577889D01*
X116705507Y-111715844D01*
X116731314Y-111756000D01*
X115815000Y-111756000D01*
X115815000Y-112400518D01*
X109084840Y-112400518D01*
X109366084Y-112217876D01*
X109667516Y-111973781D01*
X109941781Y-111699516D01*
X110185876Y-111398084D01*
X110397125Y-111072789D01*
X110573214Y-110727194D01*
X110712214Y-110365087D01*
X110812602Y-109990433D01*
X110873278Y-109607338D01*
X110893578Y-109220000D01*
X110873278Y-108832662D01*
X110812602Y-108449567D01*
X110712214Y-108074913D01*
X110573214Y-107712806D01*
X110397125Y-107367211D01*
X110185876Y-107041916D01*
X109941781Y-106740484D01*
X109667516Y-106466219D01*
X109568453Y-106385999D01*
X111033531Y-106385999D01*
X111053364Y-106612689D01*
X111112261Y-106832497D01*
X111208432Y-107038735D01*
X111338953Y-107225140D01*
X111499859Y-107386046D01*
X111686264Y-107516567D01*
X111686265Y-107516567D01*
X111686266Y-107516568D01*
X111892504Y-107612739D01*
X112112308Y-107671635D01*
X112263435Y-107684856D01*
X112338999Y-107691468D01*
X112338999Y-107691467D01*
X112339000Y-107691468D01*
X112565692Y-107671635D01*
X112785496Y-107612739D01*
X112991734Y-107516568D01*
X113178139Y-107386047D01*
X113339047Y-107225139D01*
X113469568Y-107038734D01*
X113565739Y-106832496D01*
X113624635Y-106612692D01*
X113644468Y-106386000D01*
X113644468Y-106385999D01*
X116621531Y-106385999D01*
X116641364Y-106612689D01*
X116700261Y-106832497D01*
X116796432Y-107038735D01*
X116926953Y-107225140D01*
X117087859Y-107386046D01*
X117274264Y-107516567D01*
X117274265Y-107516567D01*
X117274266Y-107516568D01*
X117480504Y-107612739D01*
X117700308Y-107671635D01*
X117927000Y-107691468D01*
X118153692Y-107671635D01*
X118373496Y-107612739D01*
X118579734Y-107516568D01*
X118766139Y-107386047D01*
X118927047Y-107225139D01*
X119057568Y-107038734D01*
X119153739Y-106832496D01*
X119212635Y-106612692D01*
X119232468Y-106386000D01*
X119212635Y-106159308D01*
X119153739Y-105939504D01*
X119057568Y-105733266D01*
X119031325Y-105695786D01*
X118927046Y-105546859D01*
X118766140Y-105385953D01*
X118579735Y-105255432D01*
X118373497Y-105159261D01*
X118153689Y-105100364D01*
X117926999Y-105080531D01*
X117700310Y-105100364D01*
X117480502Y-105159261D01*
X117274264Y-105255432D01*
X117087859Y-105385953D01*
X116926953Y-105546859D01*
X116796432Y-105733264D01*
X116700261Y-105939502D01*
X116641364Y-106159310D01*
X116621531Y-106385999D01*
X113644468Y-106385999D01*
X113624635Y-106159308D01*
X113565739Y-105939504D01*
X113469568Y-105733266D01*
X113443325Y-105695786D01*
X113339046Y-105546859D01*
X113178140Y-105385953D01*
X112991735Y-105255432D01*
X112785497Y-105159261D01*
X112565689Y-105100364D01*
X112338999Y-105080531D01*
X112112310Y-105100364D01*
X111892502Y-105159261D01*
X111686264Y-105255432D01*
X111499859Y-105385953D01*
X111338953Y-105546859D01*
X111208432Y-105733264D01*
X111112261Y-105939502D01*
X111053364Y-106159310D01*
X111033531Y-106385999D01*
X109568453Y-106385999D01*
X109366084Y-106222124D01*
X109040789Y-106010875D01*
X109037901Y-106009403D01*
X109037895Y-106009400D01*
X108698086Y-105836259D01*
X108698077Y-105836255D01*
X108695194Y-105834786D01*
X108692162Y-105833622D01*
X108336110Y-105696946D01*
X108336102Y-105696943D01*
X108333087Y-105695786D01*
X108329962Y-105694948D01*
X108329957Y-105694947D01*
X107961566Y-105596237D01*
X107961557Y-105596235D01*
X107958433Y-105595398D01*
X107955237Y-105594891D01*
X107955224Y-105594889D01*
X107578543Y-105535229D01*
X107578531Y-105535227D01*
X107575338Y-105534722D01*
X107572103Y-105534552D01*
X107572099Y-105534552D01*
X107191244Y-105514592D01*
X107188000Y-105514422D01*
X107184756Y-105514592D01*
X106803900Y-105534552D01*
X106803894Y-105534552D01*
X106800662Y-105534722D01*
X106797470Y-105535227D01*
X106797456Y-105535229D01*
X106420775Y-105594889D01*
X106420758Y-105594892D01*
X106417567Y-105595398D01*
X106414446Y-105596234D01*
X106414433Y-105596237D01*
X106046042Y-105694947D01*
X106046031Y-105694950D01*
X106042913Y-105695786D01*
X106039902Y-105696941D01*
X106039889Y-105696946D01*
X105683837Y-105833622D01*
X105683828Y-105833625D01*
X105680806Y-105834786D01*
X105677929Y-105836251D01*
X105677913Y-105836259D01*
X105338104Y-106009400D01*
X105338090Y-106009408D01*
X105335211Y-106010875D01*
X105332491Y-106012641D01*
X105332483Y-106012646D01*
X105012644Y-106220352D01*
X105012638Y-106220355D01*
X105009916Y-106222124D01*
X105007396Y-106224164D01*
X105007390Y-106224169D01*
X104711002Y-106464179D01*
X104710991Y-106464188D01*
X104708484Y-106466219D01*
X104706199Y-106468503D01*
X104706189Y-106468513D01*
X104436513Y-106738189D01*
X104436503Y-106738199D01*
X104434219Y-106740484D01*
X104432188Y-106742991D01*
X104432179Y-106743002D01*
X104192169Y-107039390D01*
X104192164Y-107039396D01*
X104190124Y-107041916D01*
X104188355Y-107044638D01*
X104188352Y-107044644D01*
X103980646Y-107364483D01*
X103980641Y-107364491D01*
X103978875Y-107367211D01*
X103977408Y-107370090D01*
X103977400Y-107370104D01*
X103804259Y-107709913D01*
X103804251Y-107709929D01*
X103802786Y-107712806D01*
X103801625Y-107715828D01*
X103801622Y-107715837D01*
X103664946Y-108071889D01*
X103664941Y-108071902D01*
X103663786Y-108074913D01*
X103662950Y-108078031D01*
X103662947Y-108078042D01*
X103564237Y-108446433D01*
X103564234Y-108446446D01*
X103563398Y-108449567D01*
X103562892Y-108452758D01*
X103562889Y-108452775D01*
X103503229Y-108829456D01*
X103503227Y-108829470D01*
X103502722Y-108832662D01*
X103482422Y-109220000D01*
X101872500Y-109220000D01*
X101872500Y-101386000D01*
X111033531Y-101386000D01*
X111053364Y-101612689D01*
X111112261Y-101832497D01*
X111208432Y-102038735D01*
X111338953Y-102225140D01*
X111499859Y-102386046D01*
X111686264Y-102516567D01*
X111686265Y-102516567D01*
X111686266Y-102516568D01*
X111892504Y-102612739D01*
X112112308Y-102671635D01*
X112263435Y-102684856D01*
X112338999Y-102691468D01*
X112338999Y-102691467D01*
X112339000Y-102691468D01*
X112565692Y-102671635D01*
X112785496Y-102612739D01*
X112991734Y-102516568D01*
X113178139Y-102386047D01*
X113339047Y-102225139D01*
X113469568Y-102038734D01*
X113565739Y-101832496D01*
X113624635Y-101612692D01*
X113644468Y-101386000D01*
X113624635Y-101159308D01*
X113565739Y-100939504D01*
X113469568Y-100733266D01*
X113339047Y-100546861D01*
X113339046Y-100546859D01*
X113178140Y-100385953D01*
X112991735Y-100255432D01*
X112785497Y-100159261D01*
X112565689Y-100100364D01*
X112338999Y-100080531D01*
X112112310Y-100100364D01*
X111892502Y-100159261D01*
X111686264Y-100255432D01*
X111499859Y-100385953D01*
X111338953Y-100546859D01*
X111208432Y-100733264D01*
X111112261Y-100939502D01*
X111053364Y-101159310D01*
X111033531Y-101386000D01*
X101872500Y-101386000D01*
X101872500Y-94488000D01*
X113019551Y-94488000D01*
X113039317Y-94739149D01*
X113098126Y-94984110D01*
X113146330Y-95100484D01*
X113194534Y-95216859D01*
X113326164Y-95431659D01*
X113489776Y-95623224D01*
X113681341Y-95786836D01*
X113896141Y-95918466D01*
X114128889Y-96014873D01*
X114373852Y-96073683D01*
X114625000Y-96093449D01*
X114876148Y-96073683D01*
X115121111Y-96014873D01*
X115353859Y-95918466D01*
X115394154Y-95893772D01*
X115458944Y-95875500D01*
X116161500Y-95875500D01*
X116228539Y-95895185D01*
X116274294Y-95947989D01*
X116285500Y-95999500D01*
X116285500Y-99377312D01*
X116265815Y-99444351D01*
X116253650Y-99460284D01*
X116178466Y-99543783D01*
X116083820Y-99707715D01*
X116025326Y-99887742D01*
X116008309Y-100049657D01*
X116005540Y-100076000D01*
X116009215Y-100110966D01*
X116025326Y-100264257D01*
X116083820Y-100444284D01*
X116178466Y-100608216D01*
X116305129Y-100748889D01*
X116458265Y-100860149D01*
X116505467Y-100881165D01*
X116596716Y-100921791D01*
X116649952Y-100967042D01*
X116670273Y-101033891D01*
X116666054Y-101067164D01*
X116641364Y-101159309D01*
X116621531Y-101386000D01*
X116641364Y-101612689D01*
X116700261Y-101832497D01*
X116796432Y-102038735D01*
X116926953Y-102225140D01*
X117087859Y-102386046D01*
X117274264Y-102516567D01*
X117274265Y-102516567D01*
X117274266Y-102516568D01*
X117480504Y-102612739D01*
X117700308Y-102671635D01*
X117927000Y-102691468D01*
X118153692Y-102671635D01*
X118373496Y-102612739D01*
X118579734Y-102516568D01*
X118766139Y-102386047D01*
X118927047Y-102225139D01*
X119057568Y-102038734D01*
X119153739Y-101832496D01*
X119212635Y-101612692D01*
X119232468Y-101386000D01*
X119212635Y-101159308D01*
X119153739Y-100939504D01*
X119057568Y-100733266D01*
X118927047Y-100546861D01*
X118927046Y-100546859D01*
X118766140Y-100385953D01*
X118605377Y-100273387D01*
X118561752Y-100218811D01*
X118552500Y-100171812D01*
X118552500Y-96212499D01*
X118572185Y-96145460D01*
X118624989Y-96099705D01*
X118676500Y-96088499D01*
X119579561Y-96088499D01*
X119582872Y-96088499D01*
X119642483Y-96082091D01*
X119777331Y-96031796D01*
X119892546Y-95945546D01*
X119978796Y-95830331D01*
X120029091Y-95695483D01*
X120035500Y-95635873D01*
X120035499Y-93340128D01*
X120029091Y-93280517D01*
X119978796Y-93145669D01*
X119892546Y-93030454D01*
X119777331Y-92944204D01*
X119642483Y-92893909D01*
X119582873Y-92887500D01*
X119579551Y-92887500D01*
X117660500Y-92887500D01*
X117593461Y-92867815D01*
X117547706Y-92815011D01*
X117536500Y-92763500D01*
X117536500Y-86162452D01*
X117556185Y-86095413D01*
X117572819Y-86074771D01*
X119906772Y-83740819D01*
X119968095Y-83707334D01*
X119994453Y-83704500D01*
X120053648Y-83704500D01*
X120177083Y-83678262D01*
X120238803Y-83665144D01*
X120411730Y-83588151D01*
X120481496Y-83537463D01*
X120564870Y-83476889D01*
X120691533Y-83336216D01*
X120786179Y-83172284D01*
X120786178Y-83172284D01*
X120844674Y-82992256D01*
X120864460Y-82804000D01*
X120844674Y-82615744D01*
X120812470Y-82516632D01*
X120786179Y-82435715D01*
X120691533Y-82271783D01*
X120564870Y-82131110D01*
X120411730Y-82019848D01*
X120238802Y-81942855D01*
X120053648Y-81903500D01*
X120053646Y-81903500D01*
X119864354Y-81903500D01*
X119864352Y-81903500D01*
X119679197Y-81942855D01*
X119494365Y-82025149D01*
X119492879Y-82021812D01*
X119448070Y-82037798D01*
X119440997Y-82038000D01*
X118929852Y-82038000D01*
X118978559Y-81900953D01*
X118988877Y-81750114D01*
X118958116Y-81602085D01*
X118924910Y-81538000D01*
X120020271Y-81538000D01*
X120020271Y-81537999D01*
X120020188Y-81536931D01*
X119961396Y-81292043D01*
X119865017Y-81059367D01*
X119733430Y-80844635D01*
X119569869Y-80653130D01*
X119378364Y-80489569D01*
X119163632Y-80357982D01*
X118930956Y-80261603D01*
X118686070Y-80202812D01*
X118685000Y-80202727D01*
X118684999Y-81296315D01*
X118656181Y-81278791D01*
X118510596Y-81238000D01*
X118397378Y-81238000D01*
X118285217Y-81253416D01*
X118184999Y-81296946D01*
X118184999Y-80202727D01*
X118183932Y-80202812D01*
X117939043Y-80261603D01*
X117706367Y-80357982D01*
X117491635Y-80489569D01*
X117300130Y-80653130D01*
X117136569Y-80844635D01*
X117004982Y-81059367D01*
X116908603Y-81292043D01*
X116849811Y-81536931D01*
X116849728Y-81537999D01*
X116849729Y-81538000D01*
X117940148Y-81538000D01*
X117891441Y-81675047D01*
X117881123Y-81825886D01*
X117911884Y-81973915D01*
X117945090Y-82038000D01*
X116849728Y-82038000D01*
X116849811Y-82039068D01*
X116908603Y-82283956D01*
X117004982Y-82516632D01*
X117136569Y-82731364D01*
X117300130Y-82922869D01*
X117491635Y-83086430D01*
X117706367Y-83218017D01*
X117939043Y-83314396D01*
X118183929Y-83373187D01*
X118213630Y-83375525D01*
X118278918Y-83400409D01*
X118320389Y-83456640D01*
X118324876Y-83526365D01*
X118291582Y-83586824D01*
X116527208Y-85351199D01*
X116511110Y-85364096D01*
X116463096Y-85415225D01*
X116460392Y-85418016D01*
X116443628Y-85434780D01*
X116443621Y-85434787D01*
X116440880Y-85437529D01*
X116438499Y-85440597D01*
X116438490Y-85440608D01*
X116438411Y-85440711D01*
X116430842Y-85449572D01*
X116400935Y-85481420D01*
X116391285Y-85498974D01*
X116380609Y-85515228D01*
X116368326Y-85531063D01*
X116350975Y-85571158D01*
X116345838Y-85581644D01*
X116324802Y-85619907D01*
X116319821Y-85639309D01*
X116313520Y-85657711D01*
X116305561Y-85676102D01*
X116298728Y-85719242D01*
X116296360Y-85730674D01*
X116285500Y-85772977D01*
X116285500Y-85793016D01*
X116283973Y-85812414D01*
X116280840Y-85832194D01*
X116284950Y-85875673D01*
X116285500Y-85887343D01*
X116285500Y-93694852D01*
X116265815Y-93761891D01*
X116213011Y-93807646D01*
X116143853Y-93817590D01*
X116080297Y-93788565D01*
X116055773Y-93759642D01*
X116030575Y-93718523D01*
X115923836Y-93544341D01*
X115760224Y-93352776D01*
X115568659Y-93189164D01*
X115353859Y-93057534D01*
X115237485Y-93009330D01*
X115121110Y-92961126D01*
X114876149Y-92902317D01*
X114625000Y-92882551D01*
X114373850Y-92902317D01*
X114128889Y-92961126D01*
X113896139Y-93057535D01*
X113681342Y-93189163D01*
X113489776Y-93352776D01*
X113326163Y-93544342D01*
X113253593Y-93662766D01*
X113194534Y-93759141D01*
X113193395Y-93761891D01*
X113098126Y-93991889D01*
X113039317Y-94236850D01*
X113019551Y-94488000D01*
X101872500Y-94488000D01*
X101872500Y-88664328D01*
X101892185Y-88597289D01*
X101944989Y-88551534D01*
X102014147Y-88541590D01*
X102077703Y-88570615D01*
X102108880Y-88611920D01*
X102203965Y-88815830D01*
X102339505Y-89009401D01*
X102506599Y-89176495D01*
X102700170Y-89312035D01*
X102914337Y-89411903D01*
X103142592Y-89473063D01*
X103378000Y-89493659D01*
X103613408Y-89473063D01*
X103841663Y-89411903D01*
X104055830Y-89312035D01*
X104249401Y-89176495D01*
X104416495Y-89009401D01*
X104552035Y-88815830D01*
X104651903Y-88601663D01*
X104713063Y-88373408D01*
X104733659Y-88138000D01*
X104713063Y-87902592D01*
X104651903Y-87674337D01*
X104552035Y-87460171D01*
X104416495Y-87266599D01*
X104294181Y-87144285D01*
X104260696Y-87082962D01*
X104265680Y-87013270D01*
X104307552Y-86957337D01*
X104338528Y-86940422D01*
X104470089Y-86891352D01*
X104585188Y-86805188D01*
X104671352Y-86690089D01*
X104721599Y-86555371D01*
X104727645Y-86499132D01*
X104728000Y-86492518D01*
X104728000Y-85848000D01*
X103811686Y-85848000D01*
X103837493Y-85807844D01*
X103878000Y-85669889D01*
X103878000Y-85526111D01*
X103837493Y-85388156D01*
X103811686Y-85348000D01*
X104728000Y-85348000D01*
X104728000Y-84703481D01*
X104727645Y-84696867D01*
X104721599Y-84640628D01*
X104671352Y-84505910D01*
X104585188Y-84390811D01*
X104470089Y-84304647D01*
X104335371Y-84254400D01*
X104279132Y-84248354D01*
X104272518Y-84248000D01*
X103628000Y-84248000D01*
X103628000Y-85162498D01*
X103520315Y-85113320D01*
X103413763Y-85098000D01*
X103342237Y-85098000D01*
X103235685Y-85113320D01*
X103128000Y-85162498D01*
X103128000Y-84248000D01*
X102483482Y-84248000D01*
X102476867Y-84248354D01*
X102420628Y-84254400D01*
X102285910Y-84304647D01*
X102170810Y-84390811D01*
X102095767Y-84491057D01*
X102039833Y-84532928D01*
X101970141Y-84537912D01*
X101908818Y-84504427D01*
X101875334Y-84443103D01*
X101872500Y-84416746D01*
X101872500Y-82932518D01*
X113025000Y-82932518D01*
X113025354Y-82939132D01*
X113031400Y-82995371D01*
X113081647Y-83130089D01*
X113167811Y-83245188D01*
X113282910Y-83331352D01*
X113417628Y-83381599D01*
X113473867Y-83387645D01*
X113480482Y-83388000D01*
X114375000Y-83388000D01*
X114375000Y-82279683D01*
X114403819Y-82297209D01*
X114549404Y-82338000D01*
X114662622Y-82338000D01*
X114774783Y-82322584D01*
X114875000Y-82279053D01*
X114875000Y-83388000D01*
X115769518Y-83388000D01*
X115776132Y-83387645D01*
X115832371Y-83381599D01*
X115967089Y-83331352D01*
X116082188Y-83245188D01*
X116168352Y-83130089D01*
X116218599Y-82995371D01*
X116224645Y-82939132D01*
X116225000Y-82932518D01*
X116225000Y-82038000D01*
X115119852Y-82038000D01*
X115168559Y-81900953D01*
X115178877Y-81750114D01*
X115148116Y-81602085D01*
X115114910Y-81538000D01*
X116225000Y-81538000D01*
X116225000Y-80643481D01*
X116224645Y-80636867D01*
X116218599Y-80580628D01*
X116168352Y-80445910D01*
X116082188Y-80330811D01*
X115967089Y-80244647D01*
X115832371Y-80194400D01*
X115776132Y-80188354D01*
X115769518Y-80188000D01*
X114875000Y-80188000D01*
X114875000Y-81296316D01*
X114846181Y-81278791D01*
X114700596Y-81238000D01*
X114587378Y-81238000D01*
X114475217Y-81253416D01*
X114375000Y-81296946D01*
X114375000Y-80188000D01*
X113480482Y-80188000D01*
X113473867Y-80188354D01*
X113417628Y-80194400D01*
X113282910Y-80244647D01*
X113167811Y-80330811D01*
X113081647Y-80445910D01*
X113031400Y-80580628D01*
X113025354Y-80636867D01*
X113025000Y-80643481D01*
X113025000Y-81538000D01*
X114130148Y-81538000D01*
X114081441Y-81675047D01*
X114071123Y-81825886D01*
X114101884Y-81973915D01*
X114135090Y-82038000D01*
X113025000Y-82038000D01*
X113025000Y-82932518D01*
X101872500Y-82932518D01*
X101872500Y-80276145D01*
X101892185Y-80209106D01*
X101944989Y-80163351D01*
X102014147Y-80153407D01*
X102077703Y-80182432D01*
X102108882Y-80223740D01*
X102204399Y-80428576D01*
X102339893Y-80622081D01*
X102506918Y-80789106D01*
X102700423Y-80924600D01*
X102914509Y-81024430D01*
X103128000Y-81081634D01*
X103128000Y-80186501D01*
X103235685Y-80235680D01*
X103342237Y-80251000D01*
X103413763Y-80251000D01*
X103520315Y-80235680D01*
X103628000Y-80186501D01*
X103628000Y-81081633D01*
X103841490Y-81024430D01*
X104055576Y-80924600D01*
X104249081Y-80789106D01*
X104416106Y-80622081D01*
X104551600Y-80428576D01*
X104651430Y-80214492D01*
X104708636Y-80001000D01*
X103811686Y-80001000D01*
X103837493Y-79960844D01*
X103878000Y-79822889D01*
X103878000Y-79679111D01*
X103837493Y-79541156D01*
X103811686Y-79501000D01*
X104708636Y-79501000D01*
X104708635Y-79500999D01*
X104651430Y-79287507D01*
X104551599Y-79073421D01*
X104416109Y-78879921D01*
X104294053Y-78757865D01*
X104260568Y-78696542D01*
X104265552Y-78626850D01*
X104307424Y-78570917D01*
X104338397Y-78554004D01*
X104470331Y-78504796D01*
X104585546Y-78418546D01*
X104671796Y-78303331D01*
X104722091Y-78168483D01*
X104728500Y-78108873D01*
X104728499Y-76313128D01*
X104722091Y-76253517D01*
X104671796Y-76118669D01*
X104585546Y-76003454D01*
X104470331Y-75917204D01*
X104335483Y-75866909D01*
X104275873Y-75860500D01*
X104272550Y-75860500D01*
X102483439Y-75860500D01*
X102483420Y-75860500D01*
X102480128Y-75860501D01*
X102476848Y-75860853D01*
X102476840Y-75860854D01*
X102420515Y-75866909D01*
X102285669Y-75917204D01*
X102170453Y-76003454D01*
X102095767Y-76103223D01*
X102039833Y-76145094D01*
X101970141Y-76150078D01*
X101908818Y-76116593D01*
X101875334Y-76055269D01*
X101872500Y-76028912D01*
X101872500Y-75287764D01*
X105333787Y-75287764D01*
X105363413Y-75557016D01*
X105363414Y-75557018D01*
X105431928Y-75819088D01*
X105449527Y-75860501D01*
X105537871Y-76068392D01*
X105678982Y-76299611D01*
X105768253Y-76406881D01*
X105852255Y-76507820D01*
X106053998Y-76688582D01*
X106279910Y-76838044D01*
X106386211Y-76887876D01*
X106525177Y-76953021D01*
X106784562Y-77031058D01*
X106784569Y-77031060D01*
X107052561Y-77070500D01*
X107052564Y-77070500D01*
X107253369Y-77070500D01*
X107255631Y-77070500D01*
X107458156Y-77055677D01*
X107722553Y-76996780D01*
X107975558Y-76900014D01*
X108211777Y-76767441D01*
X108426177Y-76601888D01*
X108614186Y-76406881D01*
X108771799Y-76186579D01*
X108895656Y-75945675D01*
X108983118Y-75689305D01*
X109032319Y-75422933D01*
X109042212Y-75152235D01*
X109012586Y-74882982D01*
X108944072Y-74620912D01*
X108838130Y-74371610D01*
X108697018Y-74140390D01*
X108697017Y-74140388D01*
X108523746Y-73932181D01*
X108418759Y-73838112D01*
X108322002Y-73751418D01*
X108096090Y-73601956D01*
X108096086Y-73601954D01*
X107850822Y-73486978D01*
X107591437Y-73408941D01*
X107591431Y-73408940D01*
X107323439Y-73369500D01*
X107120369Y-73369500D01*
X107118120Y-73369664D01*
X107118109Y-73369665D01*
X106917843Y-73384322D01*
X106653449Y-73443219D01*
X106400441Y-73539986D01*
X106164223Y-73672559D01*
X105949825Y-73838109D01*
X105761813Y-74033120D01*
X105604201Y-74253420D01*
X105480342Y-74494329D01*
X105392881Y-74750695D01*
X105343680Y-75017066D01*
X105333787Y-75287764D01*
X101872500Y-75287764D01*
X101872500Y-68833999D01*
X103088531Y-68833999D01*
X103108364Y-69060689D01*
X103167261Y-69280497D01*
X103263432Y-69486735D01*
X103393953Y-69673140D01*
X103554859Y-69834046D01*
X103741264Y-69964567D01*
X103741265Y-69964567D01*
X103741266Y-69964568D01*
X103799865Y-69991893D01*
X103852304Y-70038065D01*
X103871456Y-70105259D01*
X103851240Y-70172140D01*
X103799866Y-70216656D01*
X103741522Y-70243863D01*
X103555180Y-70374341D01*
X103394341Y-70535180D01*
X103263865Y-70721519D01*
X103167733Y-70927673D01*
X103115128Y-71123999D01*
X103115128Y-71124000D01*
X104078314Y-71124000D01*
X104066359Y-71135955D01*
X104008835Y-71248852D01*
X103989014Y-71374000D01*
X104008835Y-71499148D01*
X104066359Y-71612045D01*
X104078314Y-71624000D01*
X103115128Y-71624000D01*
X103167733Y-71820326D01*
X103263865Y-72026480D01*
X103394341Y-72212819D01*
X103555180Y-72373658D01*
X103741519Y-72504134D01*
X103947673Y-72600266D01*
X104143999Y-72652871D01*
X104144000Y-72652871D01*
X104144000Y-71689686D01*
X104155955Y-71701641D01*
X104268852Y-71759165D01*
X104362519Y-71774000D01*
X104425481Y-71774000D01*
X104519148Y-71759165D01*
X104632045Y-71701641D01*
X104644000Y-71689686D01*
X104644000Y-72652871D01*
X104840326Y-72600266D01*
X105046480Y-72504134D01*
X105232819Y-72373658D01*
X105393658Y-72212819D01*
X105524134Y-72026480D01*
X105620266Y-71820326D01*
X105672872Y-71624000D01*
X104709686Y-71624000D01*
X104721641Y-71612045D01*
X104779165Y-71499148D01*
X104798986Y-71374000D01*
X113248531Y-71374000D01*
X113268364Y-71600689D01*
X113327261Y-71820497D01*
X113423432Y-72026735D01*
X113553953Y-72213140D01*
X113714859Y-72374046D01*
X113901264Y-72504567D01*
X113901265Y-72504567D01*
X113901266Y-72504568D01*
X114107504Y-72600739D01*
X114327308Y-72659635D01*
X114554000Y-72679468D01*
X114780692Y-72659635D01*
X115000496Y-72600739D01*
X115206734Y-72504568D01*
X115393139Y-72374047D01*
X115403037Y-72364148D01*
X115464355Y-72330665D01*
X115534047Y-72335647D01*
X115589982Y-72377517D01*
X115597449Y-72388709D01*
X115616828Y-72421478D01*
X115616829Y-72421479D01*
X115616830Y-72421480D01*
X115630995Y-72435645D01*
X115643627Y-72450435D01*
X115655405Y-72466646D01*
X115689051Y-72494480D01*
X115697693Y-72502343D01*
X115784776Y-72589427D01*
X115797672Y-72605524D01*
X115848801Y-72653538D01*
X115851597Y-72656248D01*
X115871105Y-72675756D01*
X115874285Y-72678223D01*
X115883147Y-72685791D01*
X115914994Y-72715698D01*
X115932548Y-72725348D01*
X115948812Y-72736032D01*
X115957981Y-72743144D01*
X115964640Y-72748309D01*
X115989485Y-72759060D01*
X116004728Y-72765657D01*
X116015207Y-72770790D01*
X116053484Y-72791833D01*
X116072882Y-72796813D01*
X116091284Y-72803113D01*
X116109680Y-72811074D01*
X116152837Y-72817909D01*
X116164240Y-72820270D01*
X116206557Y-72831136D01*
X116226592Y-72831136D01*
X116245989Y-72832662D01*
X116265772Y-72835796D01*
X116309250Y-72831686D01*
X116320920Y-72831136D01*
X118211620Y-72831136D01*
X118232126Y-72833400D01*
X118235029Y-72833308D01*
X118235031Y-72833309D01*
X118302236Y-72831197D01*
X118306132Y-72831136D01*
X118329812Y-72831136D01*
X118333714Y-72831136D01*
X118337677Y-72830635D01*
X118349326Y-72829716D01*
X118392991Y-72828345D01*
X118412223Y-72822756D01*
X118431282Y-72818810D01*
X118438455Y-72817904D01*
X118451156Y-72816300D01*
X118491771Y-72800218D01*
X118502819Y-72796437D01*
X118533848Y-72787423D01*
X118568440Y-72782500D01*
X118712648Y-72782500D01*
X118873503Y-72748309D01*
X118897803Y-72743144D01*
X119070730Y-72666151D01*
X119160764Y-72600738D01*
X119223870Y-72554889D01*
X119350533Y-72414216D01*
X119445179Y-72250284D01*
X119457352Y-72212819D01*
X119503674Y-72070256D01*
X119523460Y-71882000D01*
X119503674Y-71693744D01*
X119445179Y-71513716D01*
X119445179Y-71513715D01*
X119350533Y-71349783D01*
X119223870Y-71209110D01*
X119070730Y-71097848D01*
X118897802Y-71020855D01*
X118712648Y-70981500D01*
X118712646Y-70981500D01*
X118556146Y-70981500D01*
X118489107Y-70961815D01*
X118443352Y-70909011D01*
X118433408Y-70839853D01*
X118462433Y-70776297D01*
X118463952Y-70774576D01*
X118588533Y-70636216D01*
X118683179Y-70472284D01*
X118741674Y-70292256D01*
X118761460Y-70104000D01*
X118741674Y-69915744D01*
X118683179Y-69735716D01*
X118683179Y-69735715D01*
X118588533Y-69571783D01*
X118513350Y-69488284D01*
X118483120Y-69425293D01*
X118481500Y-69405312D01*
X118481500Y-66992687D01*
X118501185Y-66925648D01*
X118513350Y-66909714D01*
X118588533Y-66826216D01*
X118588776Y-66825796D01*
X118683179Y-66662284D01*
X118710132Y-66579331D01*
X118741674Y-66482256D01*
X118761460Y-66294000D01*
X118741674Y-66105744D01*
X118683179Y-65925716D01*
X118683179Y-65925715D01*
X118588533Y-65761783D01*
X118461870Y-65621110D01*
X118308730Y-65509848D01*
X118135802Y-65432855D01*
X117950648Y-65393500D01*
X117950646Y-65393500D01*
X117761354Y-65393500D01*
X117707253Y-65404999D01*
X117615280Y-65424548D01*
X117545613Y-65419231D01*
X117489880Y-65377093D01*
X117465775Y-65311513D01*
X117465500Y-65303257D01*
X117465500Y-61721999D01*
X120506540Y-61721999D01*
X120526326Y-61910257D01*
X120584820Y-62090284D01*
X120679466Y-62254216D01*
X120806129Y-62394889D01*
X120959269Y-62506151D01*
X121132197Y-62583144D01*
X121317352Y-62622500D01*
X121317354Y-62622500D01*
X121506648Y-62622500D01*
X121630084Y-62596262D01*
X121691803Y-62583144D01*
X121864730Y-62506151D01*
X122017871Y-62394888D01*
X122023598Y-62388527D01*
X122083084Y-62351879D01*
X122115747Y-62347500D01*
X123756253Y-62347500D01*
X123823292Y-62367185D01*
X123848400Y-62388526D01*
X123854129Y-62394888D01*
X124007270Y-62506151D01*
X124007271Y-62506151D01*
X124007272Y-62506152D01*
X124180197Y-62583144D01*
X124365352Y-62622500D01*
X124365354Y-62622500D01*
X124554648Y-62622500D01*
X124678084Y-62596262D01*
X124739803Y-62583144D01*
X124912730Y-62506151D01*
X125065871Y-62394888D01*
X125076860Y-62382683D01*
X125136339Y-62346036D01*
X125206196Y-62347363D01*
X125256689Y-62377974D01*
X125322180Y-62443465D01*
X125355665Y-62504788D01*
X125358499Y-62531146D01*
X125358500Y-74993312D01*
X125338815Y-75060351D01*
X125326650Y-75076284D01*
X125251466Y-75159783D01*
X125156820Y-75323715D01*
X125098326Y-75503742D01*
X125078540Y-75691999D01*
X125098326Y-75880257D01*
X125156820Y-76060284D01*
X125251466Y-76224215D01*
X125252647Y-76225527D01*
X125254733Y-76229875D01*
X125257983Y-76235503D01*
X125257553Y-76235750D01*
X125282878Y-76288518D01*
X125284499Y-76308501D01*
X125284499Y-85189500D01*
X125264814Y-85256539D01*
X125212010Y-85302294D01*
X125160499Y-85313500D01*
X123875551Y-85313500D01*
X123875532Y-85313500D01*
X123872240Y-85313501D01*
X123868960Y-85313853D01*
X123868952Y-85313854D01*
X123812627Y-85319909D01*
X123677781Y-85370204D01*
X123562566Y-85456454D01*
X123476316Y-85571668D01*
X123472596Y-85581644D01*
X123426021Y-85706517D01*
X123419612Y-85766127D01*
X123419612Y-85769448D01*
X123419561Y-85770399D01*
X123396313Y-85836287D01*
X123341133Y-85879147D01*
X123302995Y-85884668D01*
X122618065Y-86569598D01*
X122605277Y-86488852D01*
X122547753Y-86375955D01*
X122458157Y-86286359D01*
X122345260Y-86228835D01*
X122264512Y-86216046D01*
X122945584Y-85534974D01*
X122945583Y-85534972D01*
X122872596Y-85483866D01*
X122666438Y-85387733D01*
X122446714Y-85328858D01*
X122220112Y-85309033D01*
X121993509Y-85328858D01*
X121773784Y-85387733D01*
X121567628Y-85483865D01*
X121494639Y-85534973D01*
X121494638Y-85534973D01*
X122175712Y-86216046D01*
X122094964Y-86228835D01*
X121982067Y-86286359D01*
X121892471Y-86375955D01*
X121834947Y-86488852D01*
X121822158Y-86569599D01*
X121141085Y-85888526D01*
X121141085Y-85888527D01*
X121089977Y-85961516D01*
X120993845Y-86167672D01*
X120934970Y-86387397D01*
X120915145Y-86614000D01*
X120934970Y-86840602D01*
X120993845Y-87060326D01*
X121089978Y-87266484D01*
X121141084Y-87339471D01*
X121141086Y-87339472D01*
X121822158Y-86658399D01*
X121834947Y-86739148D01*
X121892471Y-86852045D01*
X121982067Y-86941641D01*
X122094964Y-86999165D01*
X122175711Y-87011953D01*
X121494638Y-87693025D01*
X121494638Y-87693026D01*
X121567627Y-87744133D01*
X121773785Y-87840266D01*
X121993509Y-87899141D01*
X122220111Y-87918966D01*
X122446714Y-87899141D01*
X122666438Y-87840266D01*
X122872592Y-87744134D01*
X122945584Y-87693025D01*
X122264513Y-87011953D01*
X122345260Y-86999165D01*
X122458157Y-86941641D01*
X122547753Y-86852045D01*
X122605277Y-86739148D01*
X122618065Y-86658400D01*
X123304265Y-87344600D01*
X123353432Y-87354481D01*
X123403615Y-87403096D01*
X123419562Y-87457609D01*
X123419612Y-87458562D01*
X123419613Y-87461872D01*
X123419965Y-87465152D01*
X123419966Y-87465159D01*
X123426021Y-87521484D01*
X123451168Y-87588906D01*
X123476316Y-87656331D01*
X123562566Y-87771546D01*
X123677781Y-87857796D01*
X123812629Y-87908091D01*
X123872239Y-87914500D01*
X125160500Y-87914499D01*
X125227539Y-87934184D01*
X125273294Y-87986987D01*
X125284500Y-88038499D01*
X125284500Y-91539500D01*
X125264815Y-91606539D01*
X125212011Y-91652294D01*
X125160500Y-91663500D01*
X123940439Y-91663500D01*
X123940420Y-91663500D01*
X123937128Y-91663501D01*
X123933848Y-91663853D01*
X123933840Y-91663854D01*
X123877515Y-91669909D01*
X123742669Y-91720204D01*
X123627454Y-91806454D01*
X123541204Y-91921668D01*
X123541203Y-91921669D01*
X123541204Y-91921669D01*
X123490909Y-92056517D01*
X123484500Y-92116127D01*
X123484500Y-92119448D01*
X123484449Y-92120399D01*
X123461201Y-92186287D01*
X123406021Y-92229147D01*
X123367883Y-92234668D01*
X122682953Y-92919598D01*
X122670165Y-92838852D01*
X122612641Y-92725955D01*
X122523045Y-92636359D01*
X122410148Y-92578835D01*
X122329400Y-92566046D01*
X123010472Y-91884974D01*
X123010471Y-91884972D01*
X122937484Y-91833866D01*
X122731326Y-91737733D01*
X122511602Y-91678858D01*
X122284999Y-91659033D01*
X122058397Y-91678858D01*
X121838672Y-91737733D01*
X121632516Y-91833865D01*
X121559527Y-91884973D01*
X121559526Y-91884973D01*
X122240600Y-92566046D01*
X122159852Y-92578835D01*
X122046955Y-92636359D01*
X121957359Y-92725955D01*
X121899835Y-92838852D01*
X121887046Y-92919599D01*
X121205973Y-92238526D01*
X121205973Y-92238527D01*
X121154865Y-92311516D01*
X121058733Y-92517672D01*
X120999858Y-92737397D01*
X120980033Y-92964000D01*
X120999858Y-93190602D01*
X121058733Y-93410326D01*
X121154866Y-93616484D01*
X121205972Y-93689471D01*
X121205974Y-93689472D01*
X121887046Y-93008399D01*
X121899835Y-93089148D01*
X121957359Y-93202045D01*
X122046955Y-93291641D01*
X122159852Y-93349165D01*
X122240599Y-93361953D01*
X121559526Y-94043025D01*
X121559526Y-94043026D01*
X121632515Y-94094133D01*
X121838673Y-94190266D01*
X122058397Y-94249141D01*
X122284999Y-94268966D01*
X122511602Y-94249141D01*
X122731326Y-94190266D01*
X122793207Y-94161411D01*
X122862284Y-94150919D01*
X122926068Y-94179439D01*
X122964308Y-94237915D01*
X122969612Y-94273793D01*
X122969612Y-97526464D01*
X122949927Y-97593503D01*
X122897123Y-97639258D01*
X122827965Y-97649202D01*
X122793208Y-97638846D01*
X122666441Y-97579734D01*
X122446714Y-97520858D01*
X122220112Y-97501033D01*
X121993509Y-97520858D01*
X121773784Y-97579733D01*
X121567628Y-97675865D01*
X121494638Y-97726973D01*
X122175711Y-98408046D01*
X122094964Y-98420835D01*
X121982067Y-98478359D01*
X121892471Y-98567955D01*
X121834947Y-98680852D01*
X121822158Y-98761599D01*
X121141085Y-98080526D01*
X121141085Y-98080527D01*
X121089977Y-98153516D01*
X120993845Y-98359672D01*
X120934970Y-98579397D01*
X120915145Y-98806000D01*
X120934970Y-99032602D01*
X120993845Y-99252326D01*
X121089978Y-99458484D01*
X121141084Y-99531471D01*
X121141086Y-99531472D01*
X121822158Y-98850399D01*
X121834947Y-98931148D01*
X121892471Y-99044045D01*
X121982067Y-99133641D01*
X122094964Y-99191165D01*
X122175709Y-99203953D01*
X121494638Y-99885025D01*
X121494638Y-99885026D01*
X121567627Y-99936133D01*
X121773785Y-100032266D01*
X121993509Y-100091141D01*
X122220111Y-100110966D01*
X122446714Y-100091141D01*
X122666438Y-100032266D01*
X122793207Y-99973153D01*
X122862284Y-99962661D01*
X122926068Y-99991181D01*
X122964308Y-100049657D01*
X122969612Y-100085535D01*
X122969612Y-103610859D01*
X122949927Y-103677898D01*
X122897123Y-103723653D01*
X122827965Y-103733597D01*
X122793207Y-103723241D01*
X122691327Y-103675733D01*
X122471602Y-103616858D01*
X122245000Y-103597033D01*
X122018397Y-103616858D01*
X121798672Y-103675733D01*
X121592516Y-103771865D01*
X121519526Y-103822973D01*
X122200599Y-104504046D01*
X122119852Y-104516835D01*
X122006955Y-104574359D01*
X121917359Y-104663955D01*
X121859835Y-104776852D01*
X121847046Y-104857599D01*
X121165973Y-104176527D01*
X121114865Y-104249516D01*
X121018733Y-104455672D01*
X120959858Y-104675397D01*
X120940033Y-104902000D01*
X120959858Y-105128602D01*
X121018733Y-105348326D01*
X121114866Y-105554484D01*
X121165972Y-105627471D01*
X121165973Y-105627472D01*
X121847045Y-104946398D01*
X121859835Y-105027148D01*
X121917359Y-105140045D01*
X122006955Y-105229641D01*
X122119852Y-105287165D01*
X122200599Y-105299953D01*
X121519526Y-105981025D01*
X121519526Y-105981026D01*
X121592515Y-106032133D01*
X121798673Y-106128266D01*
X122018397Y-106187141D01*
X122245000Y-106206966D01*
X122471602Y-106187141D01*
X122691326Y-106128266D01*
X122897480Y-106032134D01*
X122970472Y-105981025D01*
X122289401Y-105299953D01*
X122370148Y-105287165D01*
X122483045Y-105229641D01*
X122572641Y-105140045D01*
X122630165Y-105027148D01*
X122642953Y-104946400D01*
X123329153Y-105632600D01*
X123378320Y-105642481D01*
X123428503Y-105691096D01*
X123444450Y-105745609D01*
X123444500Y-105746562D01*
X123444501Y-105749872D01*
X123450909Y-105809483D01*
X123501204Y-105944331D01*
X123587454Y-106059546D01*
X123702669Y-106145796D01*
X123837517Y-106196091D01*
X123897127Y-106202500D01*
X125592872Y-106202499D01*
X125652483Y-106196091D01*
X125787331Y-106145796D01*
X125902546Y-106059546D01*
X125988796Y-105944331D01*
X126039091Y-105809483D01*
X126045500Y-105749873D01*
X126045499Y-104054128D01*
X126039091Y-103994517D01*
X125988796Y-103859669D01*
X125902546Y-103744454D01*
X125787331Y-103658204D01*
X125652483Y-103607909D01*
X125592873Y-103601500D01*
X125589551Y-103601500D01*
X124380453Y-103601500D01*
X124313414Y-103581815D01*
X124292771Y-103565180D01*
X124256930Y-103529338D01*
X124223445Y-103468014D01*
X124220612Y-103441658D01*
X124220612Y-100230499D01*
X124240297Y-100163460D01*
X124293101Y-100117705D01*
X124344612Y-100106499D01*
X125564673Y-100106499D01*
X125567984Y-100106499D01*
X125627595Y-100100091D01*
X125762443Y-100049796D01*
X125877658Y-99963546D01*
X125963908Y-99848331D01*
X126014203Y-99713483D01*
X126020612Y-99653873D01*
X126020611Y-98441450D01*
X126040296Y-98374412D01*
X126056925Y-98353775D01*
X126293786Y-98116914D01*
X126309886Y-98104017D01*
X126311874Y-98101899D01*
X126311877Y-98101898D01*
X126357964Y-98052819D01*
X126360549Y-98050151D01*
X126380120Y-98030582D01*
X126382565Y-98027428D01*
X126390154Y-98018541D01*
X126420062Y-97986694D01*
X126429713Y-97969138D01*
X126440393Y-97952879D01*
X126452674Y-97937048D01*
X126470018Y-97896963D01*
X126475160Y-97886468D01*
X126496197Y-97848204D01*
X126501178Y-97828800D01*
X126507480Y-97810395D01*
X126515438Y-97792007D01*
X126522270Y-97748860D01*
X126524639Y-97737428D01*
X126535500Y-97695132D01*
X126535500Y-97675095D01*
X126537027Y-97655696D01*
X126540160Y-97635916D01*
X126536050Y-97592436D01*
X126535500Y-97580767D01*
X126535500Y-87448422D01*
X126555185Y-87381383D01*
X126607989Y-87335628D01*
X126677147Y-87325684D01*
X126732385Y-87348103D01*
X126801270Y-87398151D01*
X126801271Y-87398151D01*
X126801272Y-87398152D01*
X126974197Y-87475144D01*
X127159352Y-87514500D01*
X127159354Y-87514500D01*
X127348648Y-87514500D01*
X127472084Y-87488262D01*
X127533803Y-87475144D01*
X127706730Y-87398151D01*
X127787495Y-87339472D01*
X127859870Y-87286889D01*
X127878138Y-87266601D01*
X127986533Y-87146216D01*
X128081179Y-86982284D01*
X128139674Y-86802256D01*
X128159460Y-86614000D01*
X128139674Y-86425744D01*
X128139673Y-86425741D01*
X128138311Y-86412781D01*
X128141128Y-86412484D01*
X128139781Y-86395386D01*
X128139634Y-86395400D01*
X128134050Y-86336324D01*
X128133500Y-86324655D01*
X128133500Y-85065112D01*
X129321531Y-85065112D01*
X129341364Y-85291801D01*
X129400261Y-85511609D01*
X129496432Y-85717847D01*
X129626953Y-85904252D01*
X129784293Y-86061592D01*
X129817778Y-86122915D01*
X129812794Y-86192607D01*
X129770922Y-86248540D01*
X129733213Y-86263377D01*
X129734218Y-86266071D01*
X129584910Y-86321759D01*
X129469811Y-86407923D01*
X129383647Y-86523022D01*
X129333400Y-86657740D01*
X129327354Y-86713979D01*
X129327000Y-86720593D01*
X129327000Y-87315112D01*
X130311314Y-87315112D01*
X130299359Y-87327067D01*
X130241835Y-87439964D01*
X130222014Y-87565112D01*
X130241835Y-87690260D01*
X130299359Y-87803157D01*
X130311314Y-87815112D01*
X129327000Y-87815112D01*
X129327000Y-88409630D01*
X129327354Y-88416244D01*
X129333400Y-88472483D01*
X129383647Y-88607201D01*
X129469811Y-88722300D01*
X129584910Y-88808464D01*
X129719628Y-88858711D01*
X129775867Y-88864757D01*
X129782482Y-88865112D01*
X130377000Y-88865112D01*
X130377000Y-87880798D01*
X130388955Y-87892753D01*
X130501852Y-87950277D01*
X130595519Y-87965112D01*
X130658481Y-87965112D01*
X130752148Y-87950277D01*
X130865045Y-87892753D01*
X130877000Y-87880797D01*
X130877000Y-88865112D01*
X131471518Y-88865112D01*
X131478132Y-88864757D01*
X131534371Y-88858711D01*
X131669089Y-88808464D01*
X131784188Y-88722300D01*
X131870352Y-88607201D01*
X131920599Y-88472483D01*
X131926645Y-88416244D01*
X131927000Y-88409630D01*
X131927000Y-87815112D01*
X130942686Y-87815112D01*
X130954641Y-87803157D01*
X131012165Y-87690260D01*
X131031986Y-87565112D01*
X131012165Y-87439964D01*
X130954641Y-87327067D01*
X130942686Y-87315112D01*
X131927000Y-87315112D01*
X131927000Y-86720593D01*
X131926645Y-86713979D01*
X131920599Y-86657740D01*
X131870352Y-86523022D01*
X131784188Y-86407923D01*
X131669089Y-86321759D01*
X131519782Y-86266071D01*
X131520943Y-86262957D01*
X131479580Y-86245824D01*
X131439732Y-86188431D01*
X131437239Y-86118606D01*
X131469704Y-86061593D01*
X131627047Y-85904251D01*
X131757568Y-85717846D01*
X131853739Y-85511608D01*
X131912635Y-85291804D01*
X131919757Y-85210398D01*
X135476500Y-85210398D01*
X135516134Y-85447915D01*
X135592338Y-85669889D01*
X135594321Y-85675664D01*
X135708928Y-85887439D01*
X135856829Y-86077463D01*
X136033990Y-86240551D01*
X136235578Y-86372255D01*
X136456095Y-86468983D01*
X136689524Y-86528095D01*
X136869400Y-86543000D01*
X136871970Y-86543000D01*
X137082030Y-86543000D01*
X137084600Y-86543000D01*
X137264476Y-86528095D01*
X137497905Y-86468983D01*
X137718422Y-86372255D01*
X137920010Y-86240551D01*
X138097171Y-86077463D01*
X138245072Y-85887439D01*
X138359679Y-85675664D01*
X138437866Y-85447913D01*
X138477500Y-85210399D01*
X138477500Y-84969601D01*
X138437866Y-84732087D01*
X138359679Y-84504336D01*
X138245072Y-84292561D01*
X138097171Y-84102537D01*
X137920010Y-83939449D01*
X137896070Y-83923808D01*
X137850714Y-83870663D01*
X137841290Y-83801431D01*
X137870792Y-83738095D01*
X137896071Y-83716191D01*
X137920010Y-83700551D01*
X138097171Y-83537463D01*
X138245072Y-83347439D01*
X138359679Y-83135664D01*
X138437866Y-82907913D01*
X138477500Y-82670399D01*
X138477500Y-82429601D01*
X138437866Y-82192087D01*
X138359679Y-81964336D01*
X138245072Y-81752561D01*
X138184741Y-81675047D01*
X138133845Y-81609655D01*
X138108203Y-81544660D01*
X138121770Y-81476121D01*
X138170239Y-81425796D01*
X138188367Y-81417311D01*
X138219087Y-81405853D01*
X138334188Y-81319688D01*
X138420352Y-81204589D01*
X138470599Y-81069871D01*
X138476645Y-81013632D01*
X138477000Y-81007018D01*
X138477000Y-80260000D01*
X137471852Y-80260000D01*
X137520559Y-80122953D01*
X137530877Y-79972114D01*
X137500116Y-79824085D01*
X137466910Y-79760000D01*
X138477000Y-79760000D01*
X138477000Y-79012981D01*
X138476645Y-79006367D01*
X138470599Y-78950128D01*
X138420352Y-78815410D01*
X138334188Y-78700311D01*
X138219089Y-78614147D01*
X138084371Y-78563900D01*
X138028132Y-78557854D01*
X138021518Y-78557500D01*
X137227000Y-78557500D01*
X137227000Y-79518316D01*
X137198181Y-79500791D01*
X137052596Y-79460000D01*
X136939378Y-79460000D01*
X136827217Y-79475416D01*
X136727000Y-79518946D01*
X136727000Y-78557500D01*
X135932482Y-78557500D01*
X135925867Y-78557854D01*
X135869628Y-78563900D01*
X135734910Y-78614147D01*
X135619811Y-78700311D01*
X135533647Y-78815410D01*
X135483400Y-78950128D01*
X135477354Y-79006367D01*
X135477000Y-79012981D01*
X135477000Y-79760000D01*
X136482148Y-79760000D01*
X136433441Y-79897047D01*
X136423123Y-80047886D01*
X136453884Y-80195915D01*
X136487090Y-80260000D01*
X135477000Y-80260000D01*
X135477000Y-81007018D01*
X135477354Y-81013632D01*
X135483400Y-81069871D01*
X135533647Y-81204589D01*
X135619811Y-81319688D01*
X135734911Y-81405852D01*
X135765633Y-81417311D01*
X135821567Y-81459182D01*
X135845984Y-81524646D01*
X135831133Y-81592919D01*
X135820154Y-81609654D01*
X135708931Y-81752556D01*
X135708928Y-81752559D01*
X135708928Y-81752561D01*
X135594321Y-81964336D01*
X135594319Y-81964340D01*
X135516134Y-82192084D01*
X135476500Y-82429601D01*
X135476500Y-82670398D01*
X135516134Y-82907915D01*
X135545089Y-82992257D01*
X135594321Y-83135664D01*
X135708928Y-83347439D01*
X135856829Y-83537463D01*
X136033990Y-83700551D01*
X136052508Y-83712649D01*
X136057930Y-83716192D01*
X136103286Y-83769339D01*
X136112709Y-83838570D01*
X136083206Y-83901906D01*
X136057930Y-83923808D01*
X136033991Y-83939448D01*
X135856829Y-84102536D01*
X135708929Y-84292559D01*
X135594319Y-84504340D01*
X135516134Y-84732084D01*
X135476500Y-84969601D01*
X135476500Y-85210398D01*
X131919757Y-85210398D01*
X131932468Y-85065112D01*
X131912635Y-84838420D01*
X131853739Y-84618616D01*
X131757568Y-84412378D01*
X131642719Y-84248354D01*
X131627046Y-84225971D01*
X131466140Y-84065065D01*
X131279735Y-83934544D01*
X131073497Y-83838373D01*
X130853689Y-83779476D01*
X130626999Y-83759643D01*
X130400310Y-83779476D01*
X130180502Y-83838373D01*
X129974264Y-83934544D01*
X129787859Y-84065065D01*
X129626953Y-84225971D01*
X129496432Y-84412376D01*
X129400261Y-84618614D01*
X129341364Y-84838422D01*
X129321531Y-85065112D01*
X128133500Y-85065112D01*
X128133500Y-81812888D01*
X129321531Y-81812888D01*
X129341364Y-82039577D01*
X129400261Y-82259385D01*
X129496432Y-82465623D01*
X129626953Y-82652028D01*
X129787859Y-82812934D01*
X129974264Y-82943455D01*
X129974265Y-82943455D01*
X129974266Y-82943456D01*
X130180504Y-83039627D01*
X130400308Y-83098523D01*
X130551435Y-83111744D01*
X130626999Y-83118356D01*
X130626999Y-83118355D01*
X130627000Y-83118356D01*
X130853692Y-83098523D01*
X131073496Y-83039627D01*
X131279734Y-82943456D01*
X131466139Y-82812935D01*
X131627047Y-82652027D01*
X131757568Y-82465622D01*
X131853739Y-82259384D01*
X131912635Y-82039580D01*
X131932468Y-81812888D01*
X131912635Y-81586196D01*
X131853739Y-81366392D01*
X131757568Y-81160154D01*
X131713348Y-81097000D01*
X131627046Y-80973747D01*
X131469706Y-80816407D01*
X131436221Y-80755084D01*
X131441205Y-80685392D01*
X131483077Y-80629459D01*
X131520787Y-80614624D01*
X131519782Y-80611929D01*
X131669089Y-80556240D01*
X131784188Y-80470076D01*
X131870352Y-80354977D01*
X131920599Y-80220259D01*
X131926645Y-80164020D01*
X131927000Y-80157406D01*
X131927000Y-79562888D01*
X130942686Y-79562888D01*
X130954641Y-79550933D01*
X131012165Y-79438036D01*
X131031986Y-79312888D01*
X131012165Y-79187740D01*
X130954641Y-79074843D01*
X130942686Y-79062888D01*
X131927000Y-79062888D01*
X131927000Y-78468369D01*
X131926645Y-78461755D01*
X131920599Y-78405516D01*
X131870352Y-78270798D01*
X131784188Y-78155699D01*
X131669089Y-78069535D01*
X131534371Y-78019288D01*
X131478132Y-78013242D01*
X131471518Y-78012888D01*
X130877000Y-78012888D01*
X130877000Y-78997202D01*
X130865045Y-78985247D01*
X130752148Y-78927723D01*
X130658481Y-78912888D01*
X130595519Y-78912888D01*
X130501852Y-78927723D01*
X130388955Y-78985247D01*
X130377000Y-78997201D01*
X130377000Y-78012888D01*
X129782482Y-78012888D01*
X129775867Y-78013242D01*
X129719628Y-78019288D01*
X129584910Y-78069535D01*
X129469811Y-78155699D01*
X129383647Y-78270798D01*
X129333400Y-78405516D01*
X129327354Y-78461755D01*
X129327000Y-78468369D01*
X129327000Y-79062888D01*
X130311314Y-79062888D01*
X130299359Y-79074843D01*
X130241835Y-79187740D01*
X130222014Y-79312888D01*
X130241835Y-79438036D01*
X130299359Y-79550933D01*
X130311314Y-79562888D01*
X129327000Y-79562888D01*
X129327000Y-80157406D01*
X129327354Y-80164020D01*
X129333400Y-80220259D01*
X129383647Y-80354977D01*
X129469811Y-80470076D01*
X129584910Y-80556240D01*
X129734218Y-80611929D01*
X129733056Y-80615043D01*
X129774404Y-80632163D01*
X129814261Y-80689550D01*
X129816765Y-80759375D01*
X129784294Y-80816407D01*
X129626950Y-80973751D01*
X129496432Y-81160152D01*
X129400261Y-81366390D01*
X129341364Y-81586198D01*
X129321531Y-81812888D01*
X128133500Y-81812888D01*
X128133500Y-74750695D01*
X128133500Y-70567000D01*
X131487340Y-70567000D01*
X131507936Y-70802407D01*
X131517970Y-70839853D01*
X131569097Y-71030663D01*
X131668965Y-71244830D01*
X131804505Y-71438401D01*
X131971599Y-71605495D01*
X132165170Y-71741035D01*
X132379337Y-71840903D01*
X132607592Y-71902062D01*
X132607592Y-71902063D01*
X132842999Y-71922659D01*
X132842999Y-71922658D01*
X132843000Y-71922659D01*
X133078408Y-71902063D01*
X133306663Y-71840903D01*
X133520830Y-71741035D01*
X133714401Y-71605495D01*
X133881495Y-71438401D01*
X134017035Y-71244830D01*
X134116903Y-71030663D01*
X134178063Y-70802408D01*
X134198659Y-70567000D01*
X134178063Y-70331592D01*
X134116903Y-70103337D01*
X134017035Y-69889171D01*
X133881495Y-69695599D01*
X133714401Y-69528505D01*
X133528839Y-69398573D01*
X133485216Y-69343998D01*
X133478022Y-69274500D01*
X133509545Y-69212145D01*
X133528837Y-69195428D01*
X133714401Y-69065495D01*
X133881495Y-68898401D01*
X134017035Y-68704830D01*
X134116903Y-68490663D01*
X134178063Y-68262408D01*
X134198659Y-68027000D01*
X134196306Y-68000111D01*
X134178063Y-67791592D01*
X134154441Y-67703432D01*
X134116903Y-67563337D01*
X134017035Y-67349171D01*
X133881495Y-67155599D01*
X133759569Y-67033673D01*
X133726084Y-66972350D01*
X133731068Y-66902658D01*
X133772940Y-66846725D01*
X133803915Y-66829810D01*
X133935331Y-66780796D01*
X134050546Y-66694546D01*
X134136796Y-66579331D01*
X134187091Y-66444483D01*
X134189016Y-66426578D01*
X136233000Y-66426578D01*
X136233001Y-66429872D01*
X136233353Y-66433152D01*
X136233354Y-66433159D01*
X136238632Y-66482256D01*
X136239409Y-66489483D01*
X136289704Y-66624331D01*
X136375954Y-66739546D01*
X136491169Y-66825796D01*
X136623098Y-66875002D01*
X136679032Y-66916873D01*
X136703449Y-66982337D01*
X136688597Y-67050610D01*
X136667447Y-67078865D01*
X136545388Y-67200924D01*
X136409900Y-67394421D01*
X136310069Y-67608507D01*
X136252864Y-67821999D01*
X136252864Y-67822000D01*
X137149814Y-67822000D01*
X137124007Y-67862156D01*
X137083500Y-68000111D01*
X137083500Y-68143889D01*
X137124007Y-68281844D01*
X137149814Y-68322000D01*
X136252864Y-68322000D01*
X136310069Y-68535492D01*
X136409899Y-68749576D01*
X136545393Y-68943081D01*
X136712418Y-69110106D01*
X136905923Y-69245600D01*
X137120009Y-69345430D01*
X137333500Y-69402634D01*
X137333500Y-68507501D01*
X137441185Y-68556680D01*
X137547737Y-68572000D01*
X137619263Y-68572000D01*
X137725815Y-68556680D01*
X137833500Y-68507501D01*
X137833500Y-69402633D01*
X138046990Y-69345430D01*
X138261076Y-69245600D01*
X138454581Y-69110106D01*
X138621606Y-68943081D01*
X138757100Y-68749576D01*
X138856930Y-68535492D01*
X138914136Y-68322000D01*
X138017186Y-68322000D01*
X138042993Y-68281844D01*
X138083500Y-68143889D01*
X138083500Y-68000111D01*
X138042993Y-67862156D01*
X138017186Y-67822000D01*
X138914136Y-67822000D01*
X138914135Y-67821999D01*
X138856930Y-67608507D01*
X138757099Y-67394421D01*
X138621609Y-67200921D01*
X138499553Y-67078865D01*
X138466068Y-67017542D01*
X138471052Y-66947850D01*
X138512924Y-66891917D01*
X138543897Y-66875004D01*
X138675831Y-66825796D01*
X138791046Y-66739546D01*
X138877296Y-66624331D01*
X138927591Y-66489483D01*
X138934000Y-66429873D01*
X138933999Y-64634128D01*
X138927591Y-64574517D01*
X138877296Y-64439669D01*
X138791046Y-64324454D01*
X138675831Y-64238204D01*
X138540983Y-64187909D01*
X138481373Y-64181500D01*
X138478050Y-64181500D01*
X136688939Y-64181500D01*
X136688920Y-64181500D01*
X136685628Y-64181501D01*
X136682348Y-64181853D01*
X136682340Y-64181854D01*
X136626015Y-64187909D01*
X136491169Y-64238204D01*
X136375954Y-64324454D01*
X136289704Y-64439668D01*
X136239409Y-64574516D01*
X136236115Y-64605159D01*
X136233000Y-64634127D01*
X136233000Y-64637448D01*
X136233000Y-64637449D01*
X136233000Y-66426560D01*
X136233000Y-66426578D01*
X134189016Y-66426578D01*
X134193500Y-66384873D01*
X134193499Y-64589128D01*
X134187091Y-64529517D01*
X134136796Y-64394669D01*
X134050546Y-64279454D01*
X133935331Y-64193204D01*
X133800483Y-64142909D01*
X133740873Y-64136500D01*
X133737550Y-64136500D01*
X131948439Y-64136500D01*
X131948420Y-64136500D01*
X131945128Y-64136501D01*
X131941848Y-64136853D01*
X131941840Y-64136854D01*
X131885515Y-64142909D01*
X131750669Y-64193204D01*
X131635454Y-64279454D01*
X131549204Y-64394668D01*
X131498910Y-64529515D01*
X131498909Y-64529517D01*
X131492500Y-64589127D01*
X131492500Y-64592448D01*
X131492500Y-64592449D01*
X131492500Y-66381560D01*
X131492500Y-66381578D01*
X131492501Y-66384872D01*
X131498909Y-66444483D01*
X131549204Y-66579331D01*
X131635454Y-66694546D01*
X131750669Y-66780796D01*
X131862907Y-66822658D01*
X131882082Y-66829810D01*
X131938016Y-66871681D01*
X131962433Y-66937146D01*
X131947581Y-67005419D01*
X131926431Y-67033673D01*
X131804503Y-67155601D01*
X131668965Y-67349170D01*
X131569097Y-67563336D01*
X131507936Y-67791592D01*
X131487340Y-68027000D01*
X131507936Y-68262407D01*
X131523904Y-68322000D01*
X131569097Y-68490663D01*
X131668965Y-68704830D01*
X131804505Y-68898401D01*
X131971599Y-69065495D01*
X132157160Y-69195426D01*
X132200783Y-69250002D01*
X132207976Y-69319501D01*
X132176454Y-69381855D01*
X132157158Y-69398575D01*
X132002472Y-69506888D01*
X131971595Y-69528508D01*
X131804505Y-69695598D01*
X131668965Y-69889170D01*
X131569097Y-70103336D01*
X131507936Y-70331592D01*
X131487340Y-70567000D01*
X128133500Y-70567000D01*
X128133500Y-62928683D01*
X128153184Y-62861648D01*
X128165350Y-62845714D01*
X128240533Y-62762216D01*
X128335179Y-62598284D01*
X128393674Y-62418256D01*
X128413460Y-62230000D01*
X128393674Y-62041744D01*
X128335179Y-61861716D01*
X128335179Y-61861715D01*
X128240533Y-61697783D01*
X128113870Y-61557110D01*
X127960730Y-61445848D01*
X127787802Y-61368855D01*
X127602648Y-61329500D01*
X127602646Y-61329500D01*
X127597952Y-61329500D01*
X127530913Y-61309815D01*
X127485158Y-61257011D01*
X127475214Y-61187853D01*
X127504239Y-61124297D01*
X127510271Y-61117819D01*
X127551276Y-61076815D01*
X127709771Y-60918319D01*
X127771095Y-60884834D01*
X127797453Y-60882000D01*
X127856648Y-60882000D01*
X128000096Y-60851509D01*
X128041803Y-60842644D01*
X128214730Y-60765651D01*
X128367871Y-60654388D01*
X128373598Y-60648027D01*
X128433084Y-60611379D01*
X128465747Y-60607000D01*
X131674229Y-60607000D01*
X131741268Y-60626685D01*
X131747114Y-60630682D01*
X131881269Y-60728151D01*
X132054197Y-60805144D01*
X132239352Y-60844500D01*
X132239354Y-60844500D01*
X132428647Y-60844500D01*
X132475042Y-60834638D01*
X132575280Y-60813332D01*
X132644946Y-60818648D01*
X132700679Y-60860785D01*
X132718991Y-60896304D01*
X132776820Y-61074284D01*
X132871466Y-61238216D01*
X132998129Y-61378889D01*
X133151269Y-61490151D01*
X133324197Y-61567144D01*
X133509352Y-61606500D01*
X133509354Y-61606500D01*
X133698648Y-61606500D01*
X133843484Y-61575714D01*
X133883803Y-61567144D01*
X134056730Y-61490151D01*
X134209871Y-61378888D01*
X134336533Y-61238216D01*
X134431179Y-61074284D01*
X134489674Y-60894256D01*
X134509460Y-60706000D01*
X134489674Y-60517744D01*
X134431179Y-60337716D01*
X134431179Y-60337715D01*
X134336533Y-60173783D01*
X134261350Y-60090284D01*
X134231120Y-60027293D01*
X134229500Y-60007312D01*
X134229500Y-58222451D01*
X134249185Y-58155412D01*
X134265815Y-58134774D01*
X134313772Y-58086818D01*
X134375095Y-58053334D01*
X134401452Y-58050500D01*
X134460648Y-58050500D01*
X134584083Y-58024262D01*
X134645803Y-58011144D01*
X134818730Y-57934151D01*
X134971871Y-57822888D01*
X135098533Y-57682216D01*
X135193179Y-57518284D01*
X135251674Y-57338256D01*
X135271460Y-57150000D01*
X135251674Y-56961744D01*
X135193179Y-56781716D01*
X135193179Y-56781715D01*
X135098533Y-56617783D01*
X134971870Y-56477110D01*
X134818730Y-56365848D01*
X134645802Y-56288855D01*
X134460648Y-56249500D01*
X134460646Y-56249500D01*
X134271354Y-56249500D01*
X134271352Y-56249500D01*
X134086197Y-56288855D01*
X133913269Y-56365848D01*
X133760129Y-56477110D01*
X133633466Y-56617783D01*
X133538820Y-56781715D01*
X133480326Y-56961742D01*
X133462679Y-57129649D01*
X133436094Y-57194263D01*
X133427039Y-57204368D01*
X133220208Y-57411199D01*
X133204110Y-57424096D01*
X133156096Y-57475225D01*
X133153392Y-57478016D01*
X133136628Y-57494780D01*
X133136621Y-57494787D01*
X133133880Y-57497529D01*
X133131499Y-57500597D01*
X133131490Y-57500608D01*
X133131411Y-57500711D01*
X133123842Y-57509572D01*
X133093935Y-57541420D01*
X133084285Y-57558974D01*
X133073609Y-57575228D01*
X133061326Y-57591063D01*
X133043975Y-57631158D01*
X133038838Y-57641644D01*
X133017802Y-57679907D01*
X133012821Y-57699309D01*
X133006520Y-57717711D01*
X132998561Y-57736102D01*
X132991728Y-57779242D01*
X132989360Y-57790674D01*
X132978499Y-57832977D01*
X132978500Y-57853016D01*
X132976973Y-57872415D01*
X132973839Y-57892195D01*
X132977949Y-57935671D01*
X132978499Y-57947339D01*
X132978499Y-59055813D01*
X132958814Y-59122852D01*
X132906010Y-59168607D01*
X132836852Y-59178551D01*
X132799431Y-59163362D01*
X132798636Y-59165149D01*
X132613802Y-59082855D01*
X132428648Y-59043500D01*
X132428646Y-59043500D01*
X132239354Y-59043500D01*
X132239352Y-59043500D01*
X132054197Y-59082855D01*
X131881269Y-59159848D01*
X131728129Y-59271110D01*
X131688637Y-59314972D01*
X131629150Y-59351621D01*
X131596487Y-59356000D01*
X130010448Y-59356000D01*
X129943409Y-59336315D01*
X129897654Y-59283511D01*
X129887710Y-59214353D01*
X129892517Y-59193683D01*
X129917673Y-59116259D01*
X129917672Y-59116259D01*
X129917674Y-59116256D01*
X129937460Y-58928000D01*
X129917674Y-58739744D01*
X129859179Y-58559716D01*
X129859179Y-58559715D01*
X129764533Y-58395783D01*
X129689350Y-58312284D01*
X129659120Y-58249293D01*
X129657500Y-58229312D01*
X129657500Y-52768687D01*
X129677185Y-52701648D01*
X129689350Y-52685714D01*
X129764533Y-52602216D01*
X129779084Y-52577014D01*
X129859179Y-52438284D01*
X129861470Y-52431233D01*
X129917674Y-52258256D01*
X129937460Y-52070000D01*
X129917674Y-51881744D01*
X129876328Y-51754496D01*
X129859179Y-51701715D01*
X129764533Y-51537783D01*
X129637870Y-51397110D01*
X129484730Y-51285848D01*
X129311802Y-51208855D01*
X129136099Y-51171508D01*
X129074617Y-51138315D01*
X129040841Y-51077152D01*
X129045493Y-51007438D01*
X129054489Y-50988224D01*
X129097179Y-50914284D01*
X129155674Y-50734256D01*
X129175460Y-50546000D01*
X129155674Y-50357744D01*
X129097179Y-50177716D01*
X129097179Y-50177715D01*
X129002533Y-50013783D01*
X128875870Y-49873110D01*
X128722730Y-49761848D01*
X128549802Y-49684855D01*
X128364648Y-49645500D01*
X128364646Y-49645500D01*
X128175354Y-49645500D01*
X128175352Y-49645500D01*
X127990197Y-49684855D01*
X127817269Y-49761848D01*
X127664129Y-49873110D01*
X127537466Y-50013783D01*
X127442820Y-50177715D01*
X127384326Y-50357742D01*
X127364540Y-50546000D01*
X127384326Y-50734257D01*
X127442820Y-50914284D01*
X127537464Y-51078213D01*
X127612650Y-51161714D01*
X127642880Y-51224706D01*
X127644500Y-51244687D01*
X127644500Y-55689312D01*
X127624815Y-55756351D01*
X127612650Y-55772284D01*
X127537466Y-55855783D01*
X127442820Y-56019715D01*
X127384326Y-56199742D01*
X127364540Y-56387999D01*
X127384326Y-56576257D01*
X127442820Y-56756284D01*
X127537466Y-56920216D01*
X127664129Y-57060889D01*
X127817269Y-57172151D01*
X127990197Y-57249144D01*
X128175352Y-57288500D01*
X128282500Y-57288500D01*
X128349539Y-57308185D01*
X128395294Y-57360989D01*
X128406500Y-57412500D01*
X128406500Y-58229312D01*
X128386815Y-58296351D01*
X128374650Y-58312284D01*
X128299466Y-58395783D01*
X128204820Y-58559715D01*
X128146326Y-58739742D01*
X128126540Y-58928000D01*
X128131315Y-58973440D01*
X128118745Y-59042169D01*
X128071012Y-59093192D01*
X128003271Y-59110309D01*
X127982214Y-59107689D01*
X127856649Y-59081000D01*
X127856646Y-59081000D01*
X127667354Y-59081000D01*
X127667352Y-59081000D01*
X127482197Y-59120355D01*
X127309269Y-59197348D01*
X127211846Y-59268130D01*
X127146040Y-59291610D01*
X127077986Y-59275784D01*
X127029291Y-59225678D01*
X127015416Y-59157200D01*
X127015433Y-59157005D01*
X127035468Y-58927999D01*
X127018998Y-58739744D01*
X127015635Y-58701308D01*
X126956739Y-58481504D01*
X126860568Y-58275266D01*
X126730047Y-58088861D01*
X126730046Y-58088859D01*
X126569140Y-57927953D01*
X126382733Y-57797431D01*
X126324725Y-57770382D01*
X126272285Y-57724210D01*
X126253133Y-57657017D01*
X126273348Y-57590135D01*
X126324725Y-57545618D01*
X126382734Y-57518568D01*
X126569139Y-57388047D01*
X126730047Y-57227139D01*
X126860568Y-57040734D01*
X126956739Y-56834496D01*
X127015635Y-56614692D01*
X127035468Y-56388000D01*
X127015635Y-56161308D01*
X126956739Y-55941504D01*
X126860568Y-55735266D01*
X126730047Y-55548861D01*
X126730046Y-55548859D01*
X126569140Y-55387953D01*
X126382733Y-55257431D01*
X126324725Y-55230382D01*
X126272285Y-55184210D01*
X126253133Y-55117017D01*
X126273348Y-55050135D01*
X126324725Y-55005618D01*
X126382734Y-54978568D01*
X126569139Y-54848047D01*
X126730047Y-54687139D01*
X126860568Y-54500734D01*
X126956739Y-54294496D01*
X127015635Y-54074692D01*
X127035468Y-53848000D01*
X127015635Y-53621308D01*
X126956739Y-53401504D01*
X126860568Y-53195266D01*
X126730047Y-53008861D01*
X126730046Y-53008859D01*
X126569140Y-52847953D01*
X126382736Y-52717433D01*
X126324723Y-52690381D01*
X126272284Y-52644208D01*
X126253133Y-52577014D01*
X126273349Y-52510133D01*
X126324721Y-52465619D01*
X126382734Y-52438568D01*
X126569139Y-52308047D01*
X126730047Y-52147139D01*
X126860568Y-51960734D01*
X126956739Y-51754496D01*
X127015635Y-51534692D01*
X127035468Y-51308000D01*
X127015635Y-51081308D01*
X126956739Y-50861504D01*
X126860568Y-50655266D01*
X126730047Y-50468861D01*
X126730046Y-50468859D01*
X126569140Y-50307953D01*
X126382735Y-50177432D01*
X126176497Y-50081261D01*
X125956689Y-50022364D01*
X125730000Y-50002531D01*
X125503310Y-50022364D01*
X125283502Y-50081261D01*
X125077264Y-50177432D01*
X124890859Y-50307953D01*
X124729953Y-50468859D01*
X124599432Y-50655264D01*
X124503261Y-50861502D01*
X124444364Y-51081310D01*
X124424531Y-51307999D01*
X124444364Y-51534690D01*
X124462680Y-51603047D01*
X124461017Y-51672897D01*
X124430586Y-51722821D01*
X124221208Y-51932199D01*
X124205110Y-51945096D01*
X124157096Y-51996225D01*
X124154392Y-51999016D01*
X124137628Y-52015780D01*
X124137621Y-52015787D01*
X124134880Y-52018529D01*
X124132499Y-52021597D01*
X124132490Y-52021608D01*
X124132411Y-52021711D01*
X124124842Y-52030572D01*
X124094935Y-52062420D01*
X124085285Y-52079974D01*
X124074609Y-52096228D01*
X124062326Y-52112063D01*
X124044975Y-52152158D01*
X124039838Y-52162644D01*
X124018802Y-52200907D01*
X124013821Y-52220309D01*
X124007520Y-52238711D01*
X123999561Y-52257102D01*
X123992728Y-52300242D01*
X123990360Y-52311674D01*
X123979500Y-52353977D01*
X123979500Y-52374016D01*
X123977972Y-52393414D01*
X123974840Y-52413196D01*
X123978950Y-52456673D01*
X123979500Y-52468343D01*
X123979500Y-60758951D01*
X123977235Y-60779461D01*
X123979439Y-60849567D01*
X123979500Y-60853462D01*
X123979500Y-60881045D01*
X123979986Y-60884897D01*
X123980085Y-60886466D01*
X123964642Y-60954608D01*
X123929215Y-60994558D01*
X123854129Y-61049112D01*
X123848401Y-61055472D01*
X123788916Y-61092121D01*
X123756253Y-61096500D01*
X122115747Y-61096500D01*
X122048708Y-61076815D01*
X122023599Y-61055473D01*
X122017871Y-61049112D01*
X121864730Y-60937849D01*
X121864729Y-60937848D01*
X121864727Y-60937847D01*
X121691802Y-60860855D01*
X121506648Y-60821500D01*
X121506646Y-60821500D01*
X121317354Y-60821500D01*
X121317352Y-60821500D01*
X121132197Y-60860855D01*
X120959269Y-60937848D01*
X120806129Y-61049110D01*
X120679466Y-61189783D01*
X120584820Y-61353715D01*
X120526326Y-61533742D01*
X120506540Y-61721999D01*
X117465500Y-61721999D01*
X117465500Y-61658687D01*
X117485185Y-61591648D01*
X117497350Y-61575714D01*
X117497351Y-61575713D01*
X117572533Y-61492216D01*
X117605219Y-61435603D01*
X117667179Y-61328284D01*
X117699129Y-61229953D01*
X117725674Y-61148256D01*
X117745460Y-60960000D01*
X117725674Y-60771744D01*
X117690639Y-60663918D01*
X117667179Y-60591715D01*
X117572533Y-60427783D01*
X117445870Y-60287110D01*
X117292730Y-60175848D01*
X117119802Y-60098855D01*
X116934648Y-60059500D01*
X116934646Y-60059500D01*
X116745354Y-60059500D01*
X116745351Y-60059500D01*
X116560916Y-60098702D01*
X116491249Y-60093386D01*
X116435516Y-60051249D01*
X116411411Y-59985669D01*
X116426588Y-59917467D01*
X116447451Y-59889734D01*
X116570047Y-59767139D01*
X116700568Y-59580734D01*
X116796739Y-59374496D01*
X116855635Y-59154692D01*
X116875468Y-58928000D01*
X116855635Y-58701308D01*
X116796739Y-58481504D01*
X116700568Y-58275266D01*
X116570047Y-58088861D01*
X116570046Y-58088859D01*
X116409140Y-57927953D01*
X116222733Y-57797431D01*
X116164725Y-57770382D01*
X116112285Y-57724210D01*
X116093133Y-57657017D01*
X116113348Y-57590135D01*
X116164725Y-57545618D01*
X116222734Y-57518568D01*
X116409139Y-57388047D01*
X116570047Y-57227139D01*
X116700568Y-57040734D01*
X116716044Y-57007545D01*
X116762213Y-56955107D01*
X116829406Y-56935954D01*
X116896288Y-56956168D01*
X116920574Y-56976976D01*
X116996129Y-57060888D01*
X116996132Y-57060890D01*
X117149269Y-57172151D01*
X117322197Y-57249144D01*
X117507352Y-57288500D01*
X117507354Y-57288500D01*
X117696648Y-57288500D01*
X117841484Y-57257714D01*
X117881803Y-57249144D01*
X118054730Y-57172151D01*
X118113229Y-57129649D01*
X118207870Y-57060889D01*
X118334533Y-56920216D01*
X118429179Y-56756284D01*
X118466312Y-56642000D01*
X118487674Y-56576256D01*
X118507460Y-56388000D01*
X118487674Y-56199744D01*
X118429179Y-56019716D01*
X118429179Y-56019715D01*
X118334533Y-55855783D01*
X118259350Y-55772284D01*
X118229120Y-55709293D01*
X118227500Y-55689312D01*
X118227500Y-49720687D01*
X118247185Y-49653648D01*
X118259350Y-49637714D01*
X118334533Y-49554216D01*
X118429179Y-49390284D01*
X118487674Y-49210256D01*
X118507460Y-49022000D01*
X118487674Y-48833744D01*
X118429179Y-48653716D01*
X118429179Y-48653715D01*
X118334533Y-48489783D01*
X118207870Y-48349110D01*
X118054730Y-48237848D01*
X117881802Y-48160855D01*
X117696648Y-48121500D01*
X117696646Y-48121500D01*
X117507354Y-48121500D01*
X117507352Y-48121500D01*
X117322197Y-48160855D01*
X117149269Y-48237848D01*
X116996129Y-48349110D01*
X116869466Y-48489783D01*
X116774820Y-48653715D01*
X116716326Y-48833742D01*
X116696540Y-49022000D01*
X116716326Y-49210257D01*
X116774820Y-49390284D01*
X116869464Y-49554213D01*
X116944650Y-49637714D01*
X116974880Y-49700706D01*
X116976500Y-49720687D01*
X116976500Y-50110456D01*
X116956815Y-50177495D01*
X116904011Y-50223250D01*
X116834853Y-50233194D01*
X116771297Y-50204169D01*
X116753234Y-50184767D01*
X116727548Y-50150455D01*
X116612331Y-50064204D01*
X116477483Y-50013909D01*
X116421166Y-50007854D01*
X116421165Y-50007853D01*
X116417873Y-50007500D01*
X116414550Y-50007500D01*
X114725439Y-50007500D01*
X114725420Y-50007500D01*
X114722128Y-50007501D01*
X114718848Y-50007853D01*
X114718840Y-50007854D01*
X114662515Y-50013909D01*
X114527669Y-50064204D01*
X114412454Y-50150454D01*
X114326204Y-50265668D01*
X114326203Y-50265669D01*
X114326204Y-50265669D01*
X114275909Y-50400517D01*
X114269500Y-50460127D01*
X114269500Y-50463448D01*
X114269500Y-50463449D01*
X114269500Y-52152560D01*
X114269500Y-52152578D01*
X114269501Y-52155872D01*
X114269853Y-52159152D01*
X114269854Y-52159159D01*
X114275909Y-52215484D01*
X114291862Y-52258256D01*
X114326204Y-52350331D01*
X114412454Y-52465546D01*
X114527669Y-52551796D01*
X114662517Y-52602091D01*
X114697594Y-52605862D01*
X114762143Y-52632598D01*
X114801993Y-52689989D01*
X114804488Y-52759814D01*
X114768837Y-52819904D01*
X114755463Y-52830725D01*
X114730861Y-52847951D01*
X114569953Y-53008859D01*
X114439432Y-53195264D01*
X114343261Y-53401502D01*
X114284364Y-53621310D01*
X114264531Y-53847999D01*
X114284364Y-54074689D01*
X114343261Y-54294497D01*
X114439432Y-54500735D01*
X114569953Y-54687140D01*
X114730859Y-54848046D01*
X114917263Y-54978566D01*
X114917266Y-54978568D01*
X114975275Y-55005618D01*
X115027714Y-55051791D01*
X115046865Y-55118985D01*
X115026649Y-55185866D01*
X114975275Y-55230382D01*
X114917263Y-55257433D01*
X114730859Y-55387953D01*
X114569953Y-55548859D01*
X114439432Y-55735264D01*
X114343261Y-55941502D01*
X114284364Y-56161310D01*
X114264531Y-56388000D01*
X114284364Y-56614689D01*
X114343261Y-56834497D01*
X114439432Y-57040735D01*
X114569953Y-57227140D01*
X114730859Y-57388046D01*
X114855365Y-57475225D01*
X114917266Y-57518568D01*
X114975273Y-57545617D01*
X115027713Y-57591789D01*
X115046865Y-57658982D01*
X115026650Y-57725864D01*
X114975276Y-57770380D01*
X114917266Y-57797431D01*
X114730859Y-57927953D01*
X114569953Y-58088859D01*
X114439432Y-58275264D01*
X114343261Y-58481502D01*
X114284364Y-58701310D01*
X114264531Y-58928000D01*
X114284364Y-59154689D01*
X114343261Y-59374497D01*
X114439432Y-59580735D01*
X114569953Y-59767140D01*
X114730859Y-59928046D01*
X114917264Y-60058567D01*
X114917265Y-60058567D01*
X114917266Y-60058568D01*
X115123504Y-60154739D01*
X115343308Y-60213635D01*
X115494436Y-60226856D01*
X115569999Y-60233468D01*
X115569999Y-60233467D01*
X115570000Y-60233468D01*
X115796692Y-60213635D01*
X116016496Y-60154739D01*
X116044712Y-60141581D01*
X116113785Y-60131089D01*
X116177570Y-60159606D01*
X116215811Y-60218082D01*
X116216368Y-60287949D01*
X116189267Y-60336935D01*
X116107464Y-60427786D01*
X116012820Y-60591715D01*
X115954326Y-60771742D01*
X115934540Y-60959999D01*
X115954326Y-61148257D01*
X116012820Y-61328284D01*
X116107464Y-61492213D01*
X116107467Y-61492216D01*
X116182649Y-61575714D01*
X116212879Y-61638705D01*
X116214499Y-61658686D01*
X116214499Y-69310546D01*
X116194814Y-69377585D01*
X116142010Y-69423340D01*
X116072852Y-69433284D01*
X116009296Y-69404259D01*
X116002818Y-69398227D01*
X115853413Y-69248822D01*
X115819928Y-69187499D01*
X115821319Y-69129047D01*
X115839635Y-69060692D01*
X115859468Y-68834000D01*
X115839635Y-68607308D01*
X115780739Y-68387504D01*
X115684568Y-68181266D01*
X115554047Y-67994861D01*
X115554046Y-67994859D01*
X115393140Y-67833953D01*
X115206733Y-67703431D01*
X115148725Y-67676382D01*
X115096285Y-67630210D01*
X115077133Y-67563017D01*
X115097348Y-67496135D01*
X115148725Y-67451618D01*
X115206734Y-67424568D01*
X115393139Y-67294047D01*
X115554047Y-67133139D01*
X115684568Y-66946734D01*
X115780739Y-66740496D01*
X115839635Y-66520692D01*
X115859468Y-66294000D01*
X115839635Y-66067308D01*
X115780739Y-65847504D01*
X115684568Y-65641266D01*
X115670457Y-65621112D01*
X115554046Y-65454859D01*
X115393140Y-65293953D01*
X115206733Y-65163431D01*
X115148725Y-65136382D01*
X115096285Y-65090210D01*
X115077133Y-65023017D01*
X115097348Y-64956135D01*
X115148725Y-64911618D01*
X115206734Y-64884568D01*
X115393139Y-64754047D01*
X115554047Y-64593139D01*
X115684568Y-64406734D01*
X115780739Y-64200496D01*
X115839635Y-63980692D01*
X115859468Y-63754000D01*
X115839635Y-63527308D01*
X115780739Y-63307504D01*
X115684568Y-63101266D01*
X115554047Y-62914861D01*
X115554046Y-62914859D01*
X115393140Y-62753953D01*
X115206735Y-62623432D01*
X115000497Y-62527261D01*
X114780689Y-62468364D01*
X114553999Y-62448531D01*
X114327310Y-62468364D01*
X114107502Y-62527261D01*
X113901264Y-62623432D01*
X113714859Y-62753953D01*
X113553953Y-62914859D01*
X113423432Y-63101264D01*
X113327261Y-63307502D01*
X113268364Y-63527310D01*
X113248531Y-63754000D01*
X113268364Y-63980689D01*
X113327261Y-64200497D01*
X113423432Y-64406735D01*
X113553953Y-64593140D01*
X113714859Y-64754046D01*
X113775249Y-64796331D01*
X113901266Y-64884568D01*
X113959275Y-64911618D01*
X114011714Y-64957791D01*
X114030865Y-65024985D01*
X114010649Y-65091866D01*
X113959275Y-65136382D01*
X113901263Y-65163433D01*
X113714859Y-65293953D01*
X113553953Y-65454859D01*
X113423432Y-65641264D01*
X113327261Y-65847502D01*
X113268364Y-66067310D01*
X113248531Y-66293999D01*
X113268364Y-66520689D01*
X113327261Y-66740497D01*
X113423432Y-66946735D01*
X113553953Y-67133140D01*
X113714859Y-67294046D01*
X113793587Y-67349171D01*
X113901266Y-67424568D01*
X113959275Y-67451618D01*
X114011714Y-67497791D01*
X114030865Y-67564985D01*
X114010649Y-67631866D01*
X113959275Y-67676382D01*
X113901263Y-67703433D01*
X113714859Y-67833953D01*
X113553953Y-67994859D01*
X113423432Y-68181264D01*
X113327261Y-68387502D01*
X113268364Y-68607310D01*
X113248531Y-68833999D01*
X113268364Y-69060689D01*
X113327261Y-69280497D01*
X113423432Y-69486735D01*
X113553953Y-69673140D01*
X113714859Y-69834046D01*
X113831537Y-69915744D01*
X113901266Y-69964568D01*
X113959275Y-69991618D01*
X114011714Y-70037791D01*
X114030865Y-70104985D01*
X114010649Y-70171866D01*
X113959275Y-70216382D01*
X113901263Y-70243433D01*
X113714859Y-70373953D01*
X113553953Y-70534859D01*
X113423432Y-70721264D01*
X113327261Y-70927502D01*
X113268364Y-71147310D01*
X113248531Y-71374000D01*
X104798986Y-71374000D01*
X104779165Y-71248852D01*
X104721641Y-71135955D01*
X104709686Y-71124000D01*
X105672872Y-71124000D01*
X105672871Y-71123999D01*
X105620266Y-70927673D01*
X105524134Y-70721519D01*
X105393658Y-70535180D01*
X105232819Y-70374341D01*
X105046482Y-70243866D01*
X104988133Y-70216657D01*
X104935694Y-70170484D01*
X104916543Y-70103290D01*
X104936759Y-70036409D01*
X104988134Y-69991893D01*
X105046734Y-69964568D01*
X105233139Y-69834047D01*
X105394047Y-69673139D01*
X105524568Y-69486734D01*
X105620739Y-69280496D01*
X105679635Y-69060692D01*
X105699468Y-68834000D01*
X105699468Y-68833999D01*
X106028540Y-68833999D01*
X106048326Y-69022257D01*
X106106820Y-69202284D01*
X106201466Y-69366216D01*
X106328129Y-69506889D01*
X106481269Y-69618151D01*
X106654197Y-69695144D01*
X106839352Y-69734500D01*
X106839354Y-69734500D01*
X107028648Y-69734500D01*
X107152084Y-69708262D01*
X107213803Y-69695144D01*
X107386730Y-69618151D01*
X107539871Y-69506888D01*
X107666533Y-69366216D01*
X107761179Y-69202284D01*
X107819674Y-69022256D01*
X107839460Y-68834000D01*
X107819674Y-68645744D01*
X107769285Y-68490663D01*
X107761179Y-68465715D01*
X107666533Y-68301783D01*
X107591350Y-68218284D01*
X107561120Y-68155293D01*
X107559500Y-68135312D01*
X107559500Y-57340687D01*
X107579185Y-57273648D01*
X107591350Y-57257714D01*
X107666533Y-57174216D01*
X107669612Y-57168884D01*
X107761179Y-57010284D01*
X107790444Y-56920216D01*
X107819674Y-56830256D01*
X107839460Y-56642000D01*
X107819674Y-56453744D01*
X107789332Y-56360363D01*
X107761179Y-56273715D01*
X107666533Y-56109783D01*
X107539870Y-55969110D01*
X107386730Y-55857848D01*
X107213802Y-55780855D01*
X107028648Y-55741500D01*
X107028646Y-55741500D01*
X106839354Y-55741500D01*
X106839352Y-55741500D01*
X106654197Y-55780855D01*
X106481269Y-55857848D01*
X106328129Y-55969110D01*
X106201466Y-56109783D01*
X106106820Y-56273715D01*
X106048326Y-56453742D01*
X106028540Y-56641999D01*
X106048326Y-56830257D01*
X106106820Y-57010284D01*
X106201464Y-57174213D01*
X106228616Y-57204368D01*
X106249120Y-57227140D01*
X106276650Y-57257714D01*
X106306880Y-57320706D01*
X106308500Y-57340687D01*
X106308500Y-68135312D01*
X106288815Y-68202351D01*
X106276650Y-68218284D01*
X106201466Y-68301783D01*
X106106820Y-68465715D01*
X106048326Y-68645742D01*
X106028540Y-68833999D01*
X105699468Y-68833999D01*
X105679635Y-68607308D01*
X105620739Y-68387504D01*
X105524568Y-68181266D01*
X105394047Y-67994861D01*
X105394046Y-67994859D01*
X105233140Y-67833953D01*
X105046733Y-67703431D01*
X104988725Y-67676382D01*
X104936285Y-67630210D01*
X104917133Y-67563017D01*
X104937348Y-67496135D01*
X104988725Y-67451618D01*
X105046734Y-67424568D01*
X105233139Y-67294047D01*
X105394047Y-67133139D01*
X105524568Y-66946734D01*
X105620739Y-66740496D01*
X105679635Y-66520692D01*
X105699468Y-66294000D01*
X105679635Y-66067308D01*
X105620739Y-65847504D01*
X105524568Y-65641266D01*
X105510457Y-65621112D01*
X105394046Y-65454859D01*
X105233140Y-65293953D01*
X105208537Y-65276726D01*
X105164912Y-65222150D01*
X105157718Y-65152651D01*
X105189241Y-65090296D01*
X105249470Y-65054882D01*
X105266401Y-65051862D01*
X105301483Y-65048091D01*
X105436331Y-64997796D01*
X105551546Y-64911546D01*
X105637796Y-64796331D01*
X105688091Y-64661483D01*
X105694500Y-64601873D01*
X105694499Y-62906128D01*
X105688091Y-62846517D01*
X105637796Y-62711669D01*
X105551546Y-62596454D01*
X105436331Y-62510204D01*
X105301483Y-62459909D01*
X105241873Y-62453500D01*
X105238550Y-62453500D01*
X103549439Y-62453500D01*
X103549420Y-62453500D01*
X103546128Y-62453501D01*
X103542848Y-62453853D01*
X103542840Y-62453854D01*
X103486515Y-62459909D01*
X103351669Y-62510204D01*
X103236454Y-62596454D01*
X103150204Y-62711668D01*
X103099910Y-62846515D01*
X103099909Y-62846517D01*
X103093500Y-62906127D01*
X103093500Y-62909448D01*
X103093500Y-62909449D01*
X103093500Y-64598560D01*
X103093500Y-64598578D01*
X103093501Y-64601872D01*
X103099909Y-64661483D01*
X103150204Y-64796331D01*
X103236454Y-64911546D01*
X103351669Y-64997796D01*
X103486517Y-65048091D01*
X103521594Y-65051862D01*
X103586143Y-65078598D01*
X103625993Y-65135989D01*
X103628488Y-65205814D01*
X103592837Y-65265904D01*
X103579463Y-65276725D01*
X103554861Y-65293951D01*
X103393953Y-65454859D01*
X103263432Y-65641264D01*
X103167261Y-65847502D01*
X103108364Y-66067310D01*
X103088531Y-66294000D01*
X103108364Y-66520689D01*
X103167261Y-66740497D01*
X103263432Y-66946735D01*
X103393953Y-67133140D01*
X103554859Y-67294046D01*
X103633587Y-67349171D01*
X103741266Y-67424568D01*
X103799275Y-67451618D01*
X103851714Y-67497791D01*
X103870865Y-67564985D01*
X103850649Y-67631866D01*
X103799275Y-67676382D01*
X103741263Y-67703433D01*
X103554859Y-67833953D01*
X103393953Y-67994859D01*
X103263432Y-68181264D01*
X103167261Y-68387502D01*
X103108364Y-68607310D01*
X103088531Y-68833999D01*
X101872500Y-68833999D01*
X101872500Y-52324000D01*
X107298540Y-52324000D01*
X107301691Y-52353977D01*
X107318326Y-52512257D01*
X107376820Y-52692284D01*
X107471466Y-52856216D01*
X107598129Y-52996889D01*
X107751269Y-53108151D01*
X107924197Y-53185144D01*
X108109352Y-53224500D01*
X108109354Y-53224500D01*
X108298648Y-53224500D01*
X108436192Y-53195264D01*
X108483803Y-53185144D01*
X108656730Y-53108151D01*
X108809871Y-52996888D01*
X108815598Y-52990527D01*
X108875084Y-52953879D01*
X108907747Y-52949500D01*
X110407256Y-52949500D01*
X110427762Y-52951764D01*
X110430665Y-52951672D01*
X110430667Y-52951673D01*
X110497872Y-52949561D01*
X110501768Y-52949500D01*
X110525439Y-52949500D01*
X110529350Y-52949500D01*
X110529559Y-52949473D01*
X110561434Y-52951811D01*
X110649354Y-52970500D01*
X110838648Y-52970500D01*
X110962084Y-52944262D01*
X111023803Y-52931144D01*
X111196730Y-52854151D01*
X111314362Y-52768687D01*
X111349870Y-52742889D01*
X111476533Y-52602216D01*
X111571179Y-52438284D01*
X111573470Y-52431233D01*
X111629674Y-52258256D01*
X111649460Y-52070000D01*
X111629674Y-51881744D01*
X111588328Y-51754496D01*
X111571179Y-51701715D01*
X111476533Y-51537783D01*
X111349870Y-51397110D01*
X111196730Y-51285848D01*
X111023802Y-51208855D01*
X110838648Y-51169500D01*
X110838646Y-51169500D01*
X110649354Y-51169500D01*
X110649352Y-51169500D01*
X110464197Y-51208855D01*
X110291269Y-51285848D01*
X110138129Y-51397110D01*
X110011466Y-51537783D01*
X109954473Y-51636500D01*
X109903906Y-51684715D01*
X109847086Y-51698500D01*
X108907747Y-51698500D01*
X108840708Y-51678815D01*
X108815599Y-51657473D01*
X108809871Y-51651112D01*
X108656730Y-51539849D01*
X108656729Y-51539848D01*
X108656727Y-51539847D01*
X108483802Y-51462855D01*
X108298648Y-51423500D01*
X108298646Y-51423500D01*
X108109354Y-51423500D01*
X108109352Y-51423500D01*
X107924197Y-51462855D01*
X107751269Y-51539848D01*
X107598129Y-51651110D01*
X107471466Y-51791783D01*
X107376820Y-51955715D01*
X107318326Y-52135742D01*
X107316210Y-52155873D01*
X107298540Y-52324000D01*
X101872500Y-52324000D01*
X101872500Y-42825230D01*
X101892185Y-42758191D01*
X101944989Y-42712436D01*
X102014147Y-42702492D01*
X102077703Y-42731517D01*
X102103887Y-42763230D01*
X102182027Y-42898573D01*
X102229873Y-42958571D01*
X102880766Y-42307678D01*
X102924316Y-42389822D01*
X103044009Y-42530735D01*
X103191195Y-42642623D01*
X103233402Y-42662150D01*
X102582831Y-43312720D01*
X102754546Y-43429793D01*
X102990860Y-43543596D01*
X103241496Y-43620908D01*
X103500856Y-43660000D01*
X103763144Y-43660000D01*
X104022503Y-43620908D01*
X104273139Y-43543596D01*
X104509456Y-43429792D01*
X104681167Y-43312720D01*
X104030609Y-42662161D01*
X104149431Y-42590669D01*
X104283658Y-42463523D01*
X104386861Y-42311308D01*
X105034124Y-42958571D01*
X105081972Y-42898572D01*
X105213117Y-42671423D01*
X105308940Y-42427270D01*
X105367306Y-42171552D01*
X105386907Y-41909999D01*
X105367306Y-41648447D01*
X105308941Y-41392735D01*
X105229297Y-41189802D01*
X105223129Y-41120205D01*
X105255567Y-41058322D01*
X105316313Y-41023799D01*
X105344726Y-41020500D01*
X106999274Y-41020500D01*
X107066313Y-41040185D01*
X107112068Y-41092989D01*
X107122012Y-41162147D01*
X107114703Y-41189802D01*
X107035058Y-41392735D01*
X106976693Y-41648447D01*
X106957092Y-41909999D01*
X106976693Y-42171552D01*
X107035059Y-42427270D01*
X107130882Y-42671424D01*
X107262027Y-42898573D01*
X107309873Y-42958571D01*
X107960766Y-42307678D01*
X108004316Y-42389822D01*
X108124009Y-42530735D01*
X108271195Y-42642623D01*
X108313402Y-42662150D01*
X107662831Y-43312720D01*
X107834546Y-43429793D01*
X108070860Y-43543596D01*
X108321496Y-43620908D01*
X108580856Y-43660000D01*
X108843144Y-43660000D01*
X109102503Y-43620908D01*
X109353139Y-43543596D01*
X109589456Y-43429792D01*
X109761167Y-43312720D01*
X109110609Y-42662161D01*
X109229431Y-42590669D01*
X109363658Y-42463523D01*
X109466861Y-42311308D01*
X110114124Y-42958571D01*
X110161972Y-42898572D01*
X110293117Y-42671423D01*
X110388940Y-42427270D01*
X110447306Y-42171552D01*
X110466907Y-41909999D01*
X110447306Y-41648447D01*
X110388940Y-41392729D01*
X110293117Y-41148575D01*
X110161972Y-40921426D01*
X110114125Y-40861427D01*
X109463232Y-41512319D01*
X109419684Y-41430178D01*
X109299991Y-41289265D01*
X109152805Y-41177377D01*
X109110596Y-41157849D01*
X109761167Y-40507278D01*
X109589451Y-40390205D01*
X109353139Y-40276403D01*
X109102503Y-40199091D01*
X108843144Y-40160000D01*
X108580856Y-40160000D01*
X108321496Y-40199091D01*
X108070857Y-40276404D01*
X108000301Y-40310382D01*
X107931360Y-40321734D01*
X107867226Y-40294012D01*
X107828260Y-40236016D01*
X107822500Y-40198662D01*
X107822500Y-38541337D01*
X107842185Y-38474298D01*
X107894989Y-38428543D01*
X107964147Y-38418599D01*
X108000303Y-38429617D01*
X108070863Y-38463597D01*
X108321496Y-38540908D01*
X108580856Y-38580000D01*
X108843144Y-38580000D01*
X109102503Y-38540908D01*
X109353139Y-38463596D01*
X109589456Y-38349792D01*
X109761167Y-38232720D01*
X109110609Y-37582162D01*
X109229431Y-37510669D01*
X109363658Y-37383523D01*
X109466861Y-37231308D01*
X110114124Y-37878571D01*
X110161972Y-37818572D01*
X110293117Y-37591423D01*
X110388940Y-37347270D01*
X110447306Y-37091552D01*
X110466907Y-36829999D01*
X110447306Y-36568447D01*
X110388940Y-36312729D01*
X110293117Y-36068575D01*
X110161972Y-35841426D01*
X110114125Y-35781427D01*
X109463232Y-36432319D01*
X109419684Y-36350178D01*
X109299991Y-36209265D01*
X109152805Y-36097377D01*
X109110596Y-36077849D01*
X109761167Y-35427278D01*
X109589451Y-35310205D01*
X109353139Y-35196403D01*
X109102503Y-35119091D01*
X109089387Y-35117115D01*
X109026030Y-35087659D01*
X108988656Y-35028625D01*
X108989131Y-34958757D01*
X109027304Y-34900237D01*
X109091056Y-34871645D01*
X109107868Y-34870500D01*
X111571901Y-34870500D01*
X112936132Y-34870500D01*
X113003171Y-34890185D01*
G37*
G04 #@! TD.AperFunction*
G04 #@! TA.AperFunction,Conductor*
G36*
X102924316Y-37309822D02*
G01*
X103044009Y-37450735D01*
X103191195Y-37562623D01*
X103233402Y-37582150D01*
X102582831Y-38232720D01*
X102754546Y-38349793D01*
X102990860Y-38463596D01*
X103241496Y-38540908D01*
X103500856Y-38580000D01*
X103763144Y-38580000D01*
X104022503Y-38540908D01*
X104273136Y-38463597D01*
X104343697Y-38429617D01*
X104412639Y-38418265D01*
X104476773Y-38445986D01*
X104515739Y-38503981D01*
X104521500Y-38541337D01*
X104521500Y-40198662D01*
X104501815Y-40265701D01*
X104449011Y-40311456D01*
X104379853Y-40321400D01*
X104343699Y-40310382D01*
X104273142Y-40276404D01*
X104022503Y-40199091D01*
X103763144Y-40160000D01*
X103500856Y-40160000D01*
X103241496Y-40199091D01*
X102990860Y-40276403D01*
X102754545Y-40390206D01*
X102582831Y-40507278D01*
X103233390Y-41157837D01*
X103114569Y-41229331D01*
X102980342Y-41356477D01*
X102877138Y-41508691D01*
X102229874Y-40861428D01*
X102182026Y-40921428D01*
X102103887Y-41056769D01*
X102053320Y-41104985D01*
X101984713Y-41118207D01*
X101919848Y-41092239D01*
X101879320Y-41035325D01*
X101872500Y-40994769D01*
X101872500Y-37745230D01*
X101892185Y-37678191D01*
X101944989Y-37632436D01*
X102014147Y-37622492D01*
X102077703Y-37651517D01*
X102103887Y-37683230D01*
X102182027Y-37818573D01*
X102229873Y-37878571D01*
X102880766Y-37227678D01*
X102924316Y-37309822D01*
G37*
G04 #@! TD.AperFunction*
G04 #@! TA.AperFunction,Conductor*
G36*
X118083171Y-34890185D02*
G01*
X118128926Y-34942989D01*
X118138870Y-35012147D01*
X118109845Y-35075703D01*
X118051067Y-35113477D01*
X118034613Y-35117115D01*
X118021496Y-35119091D01*
X117770860Y-35196403D01*
X117534545Y-35310206D01*
X117362832Y-35427278D01*
X118013391Y-36077837D01*
X117894569Y-36149331D01*
X117760342Y-36276477D01*
X117657138Y-36428691D01*
X117009874Y-35781428D01*
X116962026Y-35841428D01*
X116830882Y-36068576D01*
X116735059Y-36312729D01*
X116676693Y-36568447D01*
X116657092Y-36829999D01*
X116676693Y-37091552D01*
X116735058Y-37347264D01*
X116814703Y-37550198D01*
X116820871Y-37619795D01*
X116788433Y-37681678D01*
X116727687Y-37716201D01*
X116699274Y-37719500D01*
X115044726Y-37719500D01*
X114977687Y-37699815D01*
X114931932Y-37647011D01*
X114921988Y-37577853D01*
X114929297Y-37550198D01*
X115008941Y-37347264D01*
X115067306Y-37091552D01*
X115086907Y-36830000D01*
X115067306Y-36568447D01*
X115008940Y-36312729D01*
X114913117Y-36068575D01*
X114781972Y-35841426D01*
X114734125Y-35781427D01*
X114083232Y-36432319D01*
X114039684Y-36350178D01*
X113919991Y-36209265D01*
X113772805Y-36097377D01*
X113730596Y-36077849D01*
X114381167Y-35427278D01*
X114209451Y-35310205D01*
X113973139Y-35196403D01*
X113722503Y-35119091D01*
X113709387Y-35117115D01*
X113646030Y-35087659D01*
X113608656Y-35028625D01*
X113609131Y-34958757D01*
X113647304Y-34900237D01*
X113711056Y-34871645D01*
X113727868Y-34870500D01*
X118016132Y-34870500D01*
X118083171Y-34890185D01*
G37*
G04 #@! TD.AperFunction*
G04 #@! TA.AperFunction,Conductor*
G36*
X127783171Y-34890185D02*
G01*
X127828926Y-34942989D01*
X127838870Y-35012147D01*
X127809845Y-35075703D01*
X127751067Y-35113477D01*
X127734613Y-35117115D01*
X127721496Y-35119091D01*
X127470860Y-35196403D01*
X127234545Y-35310206D01*
X127062832Y-35427278D01*
X127713391Y-36077837D01*
X127594569Y-36149331D01*
X127460342Y-36276477D01*
X127357138Y-36428691D01*
X126709874Y-35781428D01*
X126662026Y-35841428D01*
X126530882Y-36068576D01*
X126435059Y-36312729D01*
X126376693Y-36568447D01*
X126357092Y-36830000D01*
X126376693Y-37091552D01*
X126435058Y-37347264D01*
X126514703Y-37550198D01*
X126520871Y-37619795D01*
X126488433Y-37681678D01*
X126427687Y-37716201D01*
X126399274Y-37719500D01*
X124744726Y-37719500D01*
X124677687Y-37699815D01*
X124631932Y-37647011D01*
X124621988Y-37577853D01*
X124629297Y-37550198D01*
X124708941Y-37347264D01*
X124767306Y-37091552D01*
X124786907Y-36830000D01*
X124767306Y-36568447D01*
X124708940Y-36312729D01*
X124613117Y-36068575D01*
X124481972Y-35841426D01*
X124434125Y-35781427D01*
X123783232Y-36432319D01*
X123739684Y-36350178D01*
X123619991Y-36209265D01*
X123472805Y-36097377D01*
X123430596Y-36077849D01*
X124081167Y-35427278D01*
X123909451Y-35310205D01*
X123673139Y-35196403D01*
X123422503Y-35119091D01*
X123409387Y-35117115D01*
X123346030Y-35087659D01*
X123308656Y-35028625D01*
X123309131Y-34958757D01*
X123347304Y-34900237D01*
X123411056Y-34871645D01*
X123427868Y-34870500D01*
X127716132Y-34870500D01*
X127783171Y-34890185D01*
G37*
G04 #@! TD.AperFunction*
G04 #@! TA.AperFunction,Conductor*
G36*
X137483171Y-34890185D02*
G01*
X137528926Y-34942989D01*
X137538870Y-35012147D01*
X137509845Y-35075703D01*
X137451067Y-35113477D01*
X137434613Y-35117115D01*
X137421496Y-35119091D01*
X137170860Y-35196403D01*
X136934545Y-35310206D01*
X136762832Y-35427278D01*
X137413391Y-36077837D01*
X137294569Y-36149331D01*
X137160342Y-36276477D01*
X137057138Y-36428691D01*
X136409874Y-35781428D01*
X136362026Y-35841428D01*
X136230882Y-36068576D01*
X136135059Y-36312729D01*
X136076693Y-36568447D01*
X136057092Y-36830000D01*
X136076693Y-37091552D01*
X136135058Y-37347264D01*
X136214703Y-37550198D01*
X136220871Y-37619795D01*
X136188433Y-37681678D01*
X136127687Y-37716201D01*
X136099274Y-37719500D01*
X134444726Y-37719500D01*
X134377687Y-37699815D01*
X134331932Y-37647011D01*
X134321988Y-37577853D01*
X134329297Y-37550198D01*
X134408941Y-37347264D01*
X134467306Y-37091552D01*
X134486907Y-36830000D01*
X134467306Y-36568447D01*
X134408940Y-36312729D01*
X134313117Y-36068575D01*
X134181972Y-35841426D01*
X134134125Y-35781427D01*
X133483232Y-36432319D01*
X133439684Y-36350178D01*
X133319991Y-36209265D01*
X133172805Y-36097377D01*
X133130596Y-36077849D01*
X133781167Y-35427278D01*
X133609451Y-35310205D01*
X133373139Y-35196403D01*
X133122503Y-35119091D01*
X133109387Y-35117115D01*
X133046030Y-35087659D01*
X133008656Y-35028625D01*
X133009131Y-34958757D01*
X133047304Y-34900237D01*
X133111056Y-34871645D01*
X133127868Y-34870500D01*
X137416132Y-34870500D01*
X137483171Y-34890185D01*
G37*
G04 #@! TD.AperFunction*
G04 #@! TD*
M02*
