G04 #@! TF.GenerationSoftware,KiCad,Pcbnew,7.0.2*
G04 #@! TF.CreationDate,2024-03-05T19:29:17+01:00*
G04 #@! TF.ProjectId,BalunAndFilter,42616c75-6e41-46e6-9446-696c7465722e,rev?*
G04 #@! TF.SameCoordinates,Original*
G04 #@! TF.FileFunction,Soldermask,Bot*
G04 #@! TF.FilePolarity,Negative*
%FSLAX46Y46*%
G04 Gerber Fmt 4.6, Leading zero omitted, Abs format (unit mm)*
G04 Created by KiCad (PCBNEW 7.0.2) date 2024-03-05 19:29:17*
%MOMM*%
%LPD*%
G01*
G04 APERTURE LIST*
G04 Aperture macros list*
%AMRoundRect*
0 Rectangle with rounded corners*
0 $1 Rounding radius*
0 $2 $3 $4 $5 $6 $7 $8 $9 X,Y pos of 4 corners*
0 Add a 4 corners polygon primitive as box body*
4,1,4,$2,$3,$4,$5,$6,$7,$8,$9,$2,$3,0*
0 Add four circle primitives for the rounded corners*
1,1,$1+$1,$2,$3*
1,1,$1+$1,$4,$5*
1,1,$1+$1,$6,$7*
1,1,$1+$1,$8,$9*
0 Add four rect primitives between the rounded corners*
20,1,$1+$1,$2,$3,$4,$5,0*
20,1,$1+$1,$4,$5,$6,$7,0*
20,1,$1+$1,$6,$7,$8,$9,0*
20,1,$1+$1,$8,$9,$2,$3,0*%
G04 Aperture macros list end*
%ADD10C,3.200000*%
%ADD11C,6.400000*%
%ADD12C,1.600000*%
%ADD13O,2.200000X2.200000*%
%ADD14R,2.200000X2.200000*%
%ADD15O,1.700000X1.700000*%
%ADD16R,1.700000X1.700000*%
%ADD17O,2.000000X1.905000*%
%ADD18R,2.000000X1.905000*%
%ADD19R,1.600000X1.600000*%
%ADD20O,1.600000X1.600000*%
%ADD21C,2.500000*%
%ADD22RoundRect,0.200100X-0.949900X-0.949900X0.949900X-0.949900X0.949900X0.949900X-0.949900X0.949900X0*%
G04 APERTURE END LIST*
D10*
G04 #@! TO.C,REF\u002A\u002A*
X107188000Y-75220000D03*
G04 #@! TD*
D11*
G04 #@! TO.C,REF\u002A\u002A*
X107188000Y-109220000D03*
G04 #@! TD*
D12*
G04 #@! TO.C,F2*
X112339000Y-101386000D03*
X112339000Y-106386000D03*
G04 #@! TD*
G04 #@! TO.C,F1*
X117927000Y-106386000D03*
X117927000Y-101386000D03*
G04 #@! TD*
D13*
G04 #@! TO.C,D3*
X114625000Y-94488000D03*
D14*
X114625000Y-81788000D03*
G04 #@! TD*
D13*
G04 #@! TO.C,D2*
X118435000Y-81788000D03*
D14*
X118435000Y-94488000D03*
G04 #@! TD*
D15*
G04 #@! TO.C,JP1*
X132843000Y-70567000D03*
X132843000Y-68027000D03*
D16*
X132843000Y-65487000D03*
G04 #@! TD*
D15*
G04 #@! TO.C,J8*
X137583500Y-68072000D03*
D16*
X137583500Y-65532000D03*
G04 #@! TD*
D17*
G04 #@! TO.C,U5*
X136977000Y-85090000D03*
X136977000Y-82550000D03*
D18*
X136977000Y-80010000D03*
G04 #@! TD*
D19*
G04 #@! TO.C,U2*
X104394000Y-63754000D03*
D20*
X104394000Y-66294000D03*
X104394000Y-68834000D03*
X104394000Y-71374000D03*
X114554000Y-71374000D03*
X114554000Y-68834000D03*
X114554000Y-66294000D03*
X114554000Y-63754000D03*
G04 #@! TD*
D19*
G04 #@! TO.C,U1*
X115570000Y-51308000D03*
D20*
X115570000Y-53848000D03*
X115570000Y-56388000D03*
X115570000Y-58928000D03*
X125730000Y-58928000D03*
X125730000Y-56388000D03*
X125730000Y-53848000D03*
X125730000Y-51308000D03*
G04 #@! TD*
D15*
G04 #@! TO.C,J7*
X124785000Y-111506000D03*
X122245000Y-111506000D03*
X119705000Y-111506000D03*
D16*
X117165000Y-111506000D03*
G04 #@! TD*
G04 #@! TO.C,J6*
X103378000Y-85598000D03*
D15*
X103378000Y-88138000D03*
G04 #@! TD*
D16*
G04 #@! TO.C,J5*
X103378000Y-77211000D03*
D15*
X103378000Y-79751000D03*
G04 #@! TD*
D21*
G04 #@! TO.C,J4*
X137812000Y-41910000D03*
X137812000Y-36830000D03*
X132732000Y-36830000D03*
X132732000Y-41910000D03*
D22*
X135272000Y-39370000D03*
G04 #@! TD*
D21*
G04 #@! TO.C,J3*
X128112000Y-41910000D03*
X128112000Y-36830000D03*
X123032000Y-36830000D03*
X123032000Y-41910000D03*
D22*
X125572000Y-39370000D03*
G04 #@! TD*
D21*
G04 #@! TO.C,J2*
X118412000Y-41910000D03*
X118412000Y-36830000D03*
X113332000Y-36830000D03*
X113332000Y-41910000D03*
D22*
X115872000Y-39370000D03*
G04 #@! TD*
D21*
G04 #@! TO.C,J1*
X108712000Y-41910000D03*
X108712000Y-36830000D03*
X103632000Y-36830000D03*
X103632000Y-41910000D03*
D22*
X106172000Y-39370000D03*
G04 #@! TD*
D12*
G04 #@! TO.C,C12*
X130627000Y-85065112D03*
D19*
X130627000Y-87565112D03*
G04 #@! TD*
D12*
G04 #@! TO.C,C11*
X130627000Y-81812888D03*
D19*
X130627000Y-79312888D03*
G04 #@! TD*
D12*
G04 #@! TO.C,C10*
X122220112Y-98806000D03*
D19*
X124720112Y-98806000D03*
G04 #@! TD*
G04 #@! TO.C,C9*
X124745000Y-104902000D03*
D12*
X122245000Y-104902000D03*
G04 #@! TD*
D19*
G04 #@! TO.C,C8*
X124720112Y-86614000D03*
D12*
X122220112Y-86614000D03*
G04 #@! TD*
D19*
G04 #@! TO.C,C7*
X124785000Y-92964000D03*
D12*
X122285000Y-92964000D03*
G04 #@! TD*
M02*
